<?xml version="1.0" standalone="no"?>
<!DOCTYPE svg PUBLIC "-//W3C//DTD SVG 1.1//EN" "http://www.w3.org/Graphics/SVG/1.1/DTD/svg11.dtd" >
<svg>
<metadata>
Created by FontForge 20090914 at Sat Oct  3 18:45:11 2020
 By www-data
Copyright \251 DoubleAlex Team.      All rights reserved.
</metadata>
<defs>
<font id="VerbenaC-Bold" horiz-adv-x="444" >
  <font-face 
    font-family="VerbenaC"
    font-weight="700"
    font-stretch="normal"
    units-per-em="1000"
    panose-1="0 0 8 0 0 0 0 0 0 0"
    ascent="710"
    descent="-290"
    x-height="348"
    cap-height="698"
    bbox="-152.001 -290.003 1042 867.995"
    underline-thickness="50"
    underline-position="-100"
    unicode-range="U+0020-U+2122"
  />
<missing-glyph horiz-adv-x="1000" 
 />
    <glyph glyph-name=".notdef" horiz-adv-x="1000" 
 />
    <glyph glyph-name="space" unicode=" " horiz-adv-x="222" 
 />
    <glyph glyph-name="space" unicode="&#xa0;" horiz-adv-x="222" 
 />
    <glyph glyph-name="exclam" unicode="!" horiz-adv-x="259" 
d="M83 63c0 -18.667 -7.33301 -34.834 -22 -48.501s-30.667 -20.5 -48 -20.5c-10 0 -18 3.66699 -24 11s-9 15.666 -9 24.999c0 18.667 7.33301 34.834 22 48.501s30.667 20.5 48 20.5c10 0 18 -3.66699 24 -11s9 -15.666 9 -24.999zM281 553
c0 -4 -5.16699 -18.332 -15.5 -42.999l-38 -87c-15 -33.333 -22.833 -51 -23.5 -53l-96 -228c-3.33301 -7.33301 -6 -12.833 -8 -16.5s-5.5 -7.33398 -10.5 -11.001s-11.167 -5.5 -18.5 -5.5c-10.667 0 -18.167 2 -22.5 6s-6.5 11 -6.5 21c0 2 5.33301 16.5 16 43.5l35 87.5
c12.667 31.333 19.667 49 21 53l86 227c4.66699 13.333 10 22.5 16 27.5s15.333 7.5 28 7.5c8.66699 0 17 -2.33301 25 -7s12 -12 12 -22z" />
    <glyph glyph-name="quotedbl" unicode="&#x22;" horiz-adv-x="333" 
d="M209 610l-16 -187c-4.66699 -27.333 -14.667 -41 -30 -41s-25.333 13.667 -30 41l-16 187c0 1.33301 -0.166992 3.66602 -0.5 6.99902s-0.5 6 -0.5 8c0 48.667 15.667 73 47 73s47 -24.333 47 -73c0 -2 -0.166992 -4.66699 -0.5 -8s-0.5 -5.66602 -0.5 -6.99902zM346 610
l-16 -187c-4.66699 -27.333 -14.667 -41 -30 -41s-25.333 13.667 -30 41l-16 187c0 1.33301 -0.166992 3.66602 -0.5 6.99902s-0.5 6 -0.5 8c0 48.667 15.667 73 47 73s47 -24.333 47 -73c0 -2 -0.166992 -4.66699 -0.5 -8s-0.5 -5.66602 -0.5 -6.99902z" />
    <glyph glyph-name="numbersign" unicode="#" 
d="M274 330h-84l-14 -92h84zM437 330h-93l-14 -92h79l5 -63h-92l-26 -174h-71l26 174h-84l-26 -174h-70l26 174h-86l-5 63h100l13 92h-86l-5 62h100l26 171h72l-27 -171h84l26 171h71l-27 -171h79z" />
    <glyph glyph-name="dollar" unicode="$" 
d="M447 444c0 -10 -3.16797 -19.8311 -9.50098 -29.498s-13.833 -14.5 -22.5 -14.5c-7.33301 0 -13 0.5 -17 1.5s-7.83301 4.66699 -11.5 11s-5.5 15.5 -5.5 27.5c0 11.333 -4.66699 20.833 -14 28.5s-23 11.5 -41 11.5c-27.333 0 -48.333 -8 -63 -24s-22 -32 -22 -48
c0 -19.333 5.66699 -38 17 -56s24 -33.333 38 -46s26.667 -29.5 38 -50.5s17 -43.5 17 -67.5c0 -49.333 -16.667 -90 -50 -122s-75.666 -48 -126.999 -48h-2l-14 -33c-21.333 -50.667 -38 -76 -50 -76c-20.667 0 -31 9 -31 27c0 4.66699 12.333 35 37 91
c-54.667 20.667 -82 58.667 -82 114c0 13.333 2.83301 26 8.5 38s14.834 18 27.501 18c8.66699 0 15.834 -2.5 21.501 -7.5s8.5 -11.833 8.5 -20.5v-29c0 -19.333 7.66699 -34.666 23 -45.999s35.666 -17 60.999 -17c30 0 54 11 72 33s27 44.667 27 68
c0 17.333 -3.83301 33.666 -11.5 48.999s-16.834 28.833 -27.501 40.5l-32 35c-10.667 11.667 -19.834 25.167 -27.501 40.5s-11.5 32 -11.5 50c0 40 15.333 74.833 46 104.5s67 44.5 109 44.5h6c6 11.333 12.667 25.666 20 42.999
c0.666992 1.33301 1.5 3.16602 2.5 5.49902s1.66699 4 2 5s1 2.5 2 4.5s1.83301 3.5 2.5 4.5s1.5 2.16699 2.5 3.5s2 2.33301 3 3s2.33301 1.5 4 2.5s3.33398 1.66699 5.00098 2s3.66699 0.666016 6 0.999023s4.83301 0.5 7.5 0.5c5.33301 0 11.5 -2.66699 18.5 -8
s10.5 -10.333 10.5 -15c0 -3.33301 -1.33301 -8.66602 -4 -15.999l-22 -52c36.667 -18 55 -45.333 55 -82z" />
    <glyph glyph-name="percent" unicode="%" horiz-adv-x="685" 
d="M277 435c-9.33301 6 -14.001 14.333 -14.001 25c0 2.66699 1.66699 6 5 10s5 6.33301 5 7v1c-7.33301 17.333 -20.666 26 -39.999 26c-26 0 -49.667 -11.333 -71 -34s-37 -48.167 -47 -76.5s-15 -54.833 -15 -79.5c0 -40 13.333 -60 40 -60
c36.667 0 68.667 20.167 96 60.5s41 79.833 41 118.5v2zM584.999 242c0 20.667 -3.16699 36.667 -9.5 48s-18.833 17 -37.5 17c-20.667 0 -39.667 -7 -57 -21s-31 -31.333 -41 -52s-17.833 -41 -23.5 -61s-8.5 -37.333 -8.5 -52c0 -20 3.16699 -35.5 9.5 -46.5
s18.833 -16.5 37.5 -16.5c20.667 0 39.667 7 57 21s31 31 41 51s17.833 40 23.5 60s8.5 37.333 8.5 52zM586.999 544c0 -2.66699 -5.83105 -12.667 -17.498 -30s-22.167 -31.333 -31.5 -42c-206.667 -246 -338.334 -423 -395.001 -531c-6 -12.667 -14.667 -19 -26 -19
c-8 0 -14.667 4 -20 12s-8 15.667 -8 23c0 13.333 23 54.166 69 122.499s79.667 115.166 101 140.499l66.5 80l76.5 93.5l62 76.5c-40 -20 -80.667 -33.333 -122 -40c-12 -88.667 -49 -154.667 -111 -198c-32 -21.333 -62.333 -32 -91 -32
c-34.667 0 -60.334 10.833 -77.001 32.5s-25 49.5 -25 83.5c0 34.667 7.83301 70.334 23.5 107.001s39.167 68.167 70.5 94.5s66.333 39.5 105 39.5c50 -0.666992 83 -25 99 -73c26 2 56 11.333 90 28s63.667 34.334 89 53.001c14 11.333 25.333 17 34 17
c6.66699 0 14.667 -5.66699 24 -17s14 -18.333 14 -21zM647.001 244c0 -55.333 -19 -109.166 -57 -161.499s-85.333 -78.5 -142 -78.5c-34.667 0 -60.334 10.833 -77.001 32.5s-25 49.5 -25 83.5c0 55.333 19 109.166 57 161.499s85.333 78.5 142 78.5
c34.667 0 60.334 -10.833 77.001 -32.5s25 -49.5 25 -83.5z" />
    <glyph glyph-name="ampersand" unicode="&#x26;" horiz-adv-x="500" 
d="M449 454c0 -12.667 -8.16992 -26.8311 -24.5029 -42.498s-37.5 -32.834 -63.5 -51.501s-43 -32 -51 -40c-32 -28 -49.667 -42.333 -53 -43c-6.66699 1.33301 -14.667 5 -24 11s-14 11.333 -14 16c0 6 5.83301 16.833 17.5 32.5s21.167 26.834 28.5 33.501
c6.66699 6.66699 19.334 16.167 38.001 28.5l49 33.5c14 10 21 17 21 21c0 5.33301 -6 8 -18 8c-2 0 -5 -0.166992 -9 -0.5s-6.33301 -0.5 -7 -0.5c-38.667 0 -77 -12.5 -115 -37.5s-57 -54.833 -57 -89.5c0 -14.667 5.33301 -31 16 -49c12 -19.333 18 -35 18 -47
c0 -10 -6.5 -20.833 -19.5 -32.5s-27.333 -22.167 -43 -31.5s-30 -21.333 -43 -36s-19.5 -30 -19.5 -46c0 -22 17.333 -33 52 -33c20.667 0 43.5 6.66699 68.5 20s47.167 28.666 66.5 45.999c-2.66699 4.66699 -7.33398 11.667 -14.001 21s-12.167 18 -16.5 26
s-7.16602 15.333 -8.49902 22c0 6 6 12.5 18 19.5s23.333 10.5 34 10.5l33 -51l39 45c5.33301 6 14 9 26 9c14.667 0 28.334 -5.33301 41.001 -16c-4.66699 -9.33301 -10.334 -18.833 -17.001 -28.5s-12.167 -17.167 -16.5 -22.5s-11 -13 -20 -23s-14.833 -16.667 -17.5 -20
l80 -111c-24.667 -2.66699 -46 -4 -64 -4c-3.33301 0 -7.16602 1.33301 -11.499 4s-9.16602 7.33398 -14.499 14.001l-12 15c-2.66699 3.33301 -7.16699 10 -13.5 20s-9.83301 15.333 -10.5 16c-56 -49.333 -119 -74 -189 -74c-32 0 -58.167 8 -78.5 24s-30.5 39 -30.5 69
c-0 18 6.83301 36 20.5 54s28.667 32.667 45 44l45 32c13.667 10 20.5 17.333 20.5 22c0 0.666992 -5.33301 10 -16 28c-12 21.333 -18 41.666 -18 60.999c0 53.333 25.833 98.666 77.5 135.999s106.5 56 164.5 56c27.333 0 52.5 -5.5 75.5 -16.5s34.5 -28.167 34.5 -51.5z
" />
    <glyph glyph-name="quotesingle" unicode="'" horiz-adv-x="222" 
d="M236 610l-16 -187c-4.66699 -27.333 -14.667 -41 -30 -41s-25.333 13.667 -30 41l-16 187c0 1.33301 -0.166992 3.66602 -0.5 6.99902s-0.5 6 -0.5 8c0 48.667 15.667 73 47 73s47 -24.333 47 -73c0 -2 -0.166992 -4.66699 -0.5 -8s-0.5 -5.66602 -0.5 -6.99902z" />
    <glyph glyph-name="parenleft" unicode="(" horiz-adv-x="370" 
d="M470 697c-106 -122.667 -189.333 -252.666 -250 -389.999s-91 -274 -91 -410c0 -32.667 5 -79.667 15 -141h-65c-8.66699 49.333 -13 98.666 -13 147.999c0 262 109.333 526.333 328 793h76z" />
    <glyph glyph-name="parenright" unicode=")" horiz-adv-x="370" 
d="M285 549c0 -262 -109.333 -526.334 -328 -793.001h-76c106 122.667 189.333 252.667 250 390s91 274 91 410c0 32.667 -5 79.667 -15 141h65c8.66699 -49.333 13 -98.666 13 -147.999z" />
    <glyph glyph-name="asterisk" unicode="*" horiz-adv-x="333" 
d="M396 547l-134 -16l71 -96l-67 -32l-58 105l-80 -89l-59 44l95 81l-112 37l30 62l114 -53l14 109h79l-32 -113l121 29z" />
    <glyph glyph-name="plus" unicode="+" horiz-adv-x="600" 
d="M492 148h-160v-148h-64v148h-160v59h160v147h64v-147h160v-59z" />
    <glyph glyph-name="comma" unicode="," horiz-adv-x="222" 
d="M104 55c0 -2.66699 -7 -13.668 -21 -33.001l-49.5 -65.5c-19 -24.333 -28.5 -36.833 -28.5 -37.5c-6 -9.33301 -15.667 -14 -29 -14c-18.667 0 -28 7.33301 -28 22c0 0.666992 10 21.834 30 63.501s30.333 64.167 31 67.5s8.66699 7 24 11s25.333 6 30 6
c9.33301 0 18.5 -1.66699 27.5 -5s13.5 -8.33301 13.5 -15z" />
    <glyph glyph-name="hyphen" unicode="-" horiz-adv-x="333" 
d="M272 194l-12.001 -15c-5.33301 -12 -16 -18 -32 -18h-228l11 17c6.66699 10.667 17.334 16 32.001 16h229z" />
    <glyph glyph-name="hyphen" unicode="&#xad;" horiz-adv-x="333" 
d="M272 194l-12.001 -15c-5.33301 -12 -16 -18 -32 -18h-228l11 17c6.66699 10.667 17.334 16 32.001 16h229z" />
    <glyph glyph-name="period" unicode="." horiz-adv-x="222" 
d="M86 47c0 -14.667 -7.16699 -26.999 -21.5 -36.999s-30.5 -15 -48.5 -15c-10 0 -18 2.66699 -24 8s-9 11.666 -9 18.999c0 14.667 7.33301 27.167 22 37.5s30.667 15.5 48 15.5c10 0 18 -2.83301 24 -8.5s9 -12.167 9 -19.5z" />
    <glyph glyph-name="slash" unicode="/" horiz-adv-x="279" 
d="M381 723l-342 -746h-77l342 746h77z" />
    <glyph glyph-name="zero" unicode="0" 
d="M378 411c0 60.667 -25.335 90.9961 -76.002 90.9961c-39.333 0 -77.666 -19.667 -114.999 -59s-66.666 -86.166 -87.999 -140.499s-32 -104.833 -32 -151.5c0 -29.333 5.33301 -52.166 16 -68.499s30 -24.5 58 -24.5c34 0 69.667 18.333 107 55s68.333 82.834 93 138.501
s37 108.834 37 159.501zM449.998 393.996c0 -47.333 -13.833 -101.498 -41.5 -162.498s-66.667 -115.333 -117 -163s-102.5 -71.5 -156.5 -71.5c-47.333 0 -82.5 15.5 -105.5 46.5s-34.5 74.167 -34.5 129.5c0 47.333 13.833 101.166 41.5 161.499
s66.667 114.166 117 161.499s102.5 71 156.5 71c93.333 0 140 -57.667 140 -173z" />
    <glyph glyph-name="one" unicode="1" horiz-adv-x="445" 
d="M415 536c0 -20 -14.332 -44 -42.999 -72c-12 -10.667 -24.667 -31.334 -38 -62.001c-47.333 -102.667 -86.333 -183.5 -117 -242.5s-62.667 -111.833 -96 -158.5l-83 -5c15.333 22 30.5 45 45.5 69s27.667 45 38 63l37 67c14.333 26.667 24.666 46.5 30.999 59.5l32 64
c15 29.667 24.5 48.834 28.5 57.501c-32 -18 -51.333 -27 -58 -27s-12.334 3.16699 -17.001 9.5s-7 12.833 -7 19.5c0 13.333 11.667 26.333 35 39c24.667 12 55.334 33.667 92.001 65c4.66699 4 11.5 13.667 20.5 29s18.833 28.333 29.5 39s23 16 37 16c10 0 18 -3 24 -9
s9 -13 9 -21z" />
    <glyph glyph-name="two" unicode="2" 
d="M32 68c-17.333 7.33301 -30.667 11 -40 11c-14 0 -21 -4.66699 -21 -14c0 -7.33301 6.33301 -11 19 -11c6 0 20 4.66699 42 14zM463.999 468c0 -38 -18.166 -83.4971 -54.499 -136.497s-76.333 -100 -120 -141s-87.167 -77.5 -130.5 -109.5
c41.333 -12.667 78.333 -19 111 -19c24.667 0 53 5.33301 85 16c4.66699 2.66699 9.66699 4 15 4c2.66699 0 6.16699 -3.33301 10.5 -10s6.5 -13.334 6.5 -20.001c0 -17.333 -12.667 -32.333 -38 -45c-18 -6.66699 -48 -10 -90 -10c-44 0 -97.667 14.333 -161 43
c-48.667 -28.667 -86.667 -43 -114 -43c-20.667 0 -38.667 5.33301 -54 16s-23 25.667 -23 45c0 23.333 7.5 42.166 22.5 56.499s34.833 21.5 59.5 21.5c24 0 59 -10 105 -30c39.333 29.333 79.666 62.5 120.999 99.5s81.166 80.667 119.499 131s57.5 92.5 57.5 126.5
c0 26 -16 39 -48 39c-24 0 -49.667 -10 -77 -30s-50.166 -40 -68.499 -60s-28.166 -30 -29.499 -30c-5.33301 0 -12.5 4 -21.5 12s-13.5 14.333 -13.5 19c0 5.33301 6.16699 16.166 18.5 32.499s28.166 33.666 47.499 51.999s43 34.5 71 48.5s55 21 81 21
c35.333 0 62.833 -8.16699 82.5 -24.5s29.5 -41.166 29.5 -74.499z" />
    <glyph glyph-name="three" unicode="3" 
d="M454 476c0 -32.667 -12.834 -63.8311 -38.501 -93.498s-56.5 -54.834 -92.5 -75.501c29.333 -22 44 -53.333 44 -94c0 -54 -24.333 -103.5 -73 -148.5s-106.334 -67.5 -173.001 -67.5c-43.333 0 -77 10.833 -101 32.5s-36 48.834 -36 81.501v35
c0 11.333 3.66699 21 11 29s15.666 12 24.999 12c6.66699 0 13.167 -1.83301 19.5 -5.5s9.5 -8.16699 9.5 -13.5c0 -1.33301 -0.166992 -5.33301 -0.5 -12s-0.5 -12.334 -0.5 -17.001c0 -13.333 0.5 -23.5 1.5 -30.5s3.5 -15.167 7.5 -24.5s11.167 -16 21.5 -20
s24.166 -6 41.499 -6c42.667 0 82.5 15.833 119.5 47.5s55.5 67.5 55.5 107.5c0 16.667 -4 31 -12 43s-17 18 -27 18c-1.33301 0 -8.33301 -1 -21 -3s-21 -3 -25 -3c-41.333 0 -62 12.667 -62 38c0 11.333 7.5 20.5 22.5 27.5s30.167 10.5 45.5 10.5
c5.33301 0 13.333 -1 24 -3s18.334 -3 23.001 -3c2.66699 0 13.167 6.16699 31.5 18.5s37.5 29.333 57.5 51s30 42.167 30 61.5c0 22 -15.333 33 -46 33c-17.333 0 -37.666 -5.83301 -60.999 -17.5s-40.666 -24.5 -51.999 -38.5
c-0.666992 -0.666992 -2.66699 -2.83398 -6 -6.50098s-5.66602 -6 -6.99902 -7l-6.5 -5c-3 -2.33301 -6 -3.83301 -9 -4.5s-6.16699 -1 -9.5 -1c-6.66699 0 -13.667 2.66699 -21 8s-11 11 -11 17c0 20 21.5 45 64.5 75s85.167 45 126.5 45c32 0 58.333 -7.83301 79 -23.5
s31 -38.167 31 -67.5z" />
    <glyph glyph-name="four" unicode="4" 
d="M446 483c0 -4 -22.8301 -48.001 -68.4971 -132.001s-68.5 -126.333 -68.5 -127s1 -1 3 -1c3.33301 0 9.66602 1.33301 18.999 4s14.333 4 15 4c4 0 10.167 0.333008 18.5 1s14.166 1 17.499 1c5.33301 0 11.833 -2 19.5 -6s11.5 -8.33301 11.5 -13
c0 -8.66699 -4.33301 -18.5 -13 -29.5s-20 -16.5 -34 -16.5c-8.66699 0 -22 1 -40 3s-31.667 3 -41 3l-63 -141c-10.667 -24 -24.334 -36 -41.001 -36c-9.33301 0 -17.166 2.5 -23.499 7.5s-9.5 11.833 -9.5 20.5c0 7.33301 4.16699 20.5 12.5 39.5s18.5 40.5 30.5 64.5
s20 41.333 24 52c-58.667 7.33301 -102.667 11 -132 11c-6 0 -17.167 -8.83301 -33.5 -26.5s-30.833 -26.5 -43.5 -26.5c-24 0 -36 10.333 -36 31c0 25.333 21.667 49.333 65 72c5.33301 2.66699 9.5 5 12.5 7s5 3.66699 6 5l6 8l7.5 10
c17.333 22.667 35.333 50.834 54 84.501s33.667 63.167 45 88.5l32 73l15 36c10 19.333 18 30.333 24 33c5.33301 2.66699 11.666 4 18.999 4c23.333 0 35 -9.66699 35 -29c0 -8.66699 -19.333 -51 -58 -127s-73.667 -138 -105 -186c52.667 -7.33301 89 -11 109 -11
c4.66699 0 8.33398 1.66699 11.001 5l82 153c2.66699 5.33301 10.667 19.833 24 43.5s22.666 41.167 27.999 52.5c5.33301 10.667 16 16 32 16c8 0 15.333 -2.83301 22 -8.5s10 -11.167 10 -16.5z" />
    <glyph glyph-name="five" unicode="5" 
d="M458 566l-0.000976562 -4c0 -20 -2 -34.667 -6 -44c-6 -13.333 -31.333 -20 -76 -20c-10.667 0 -26.834 0.333008 -48.501 1s-38.167 1 -49.5 1c-20.667 0 -34 -2.33301 -40 -7s-13 -16.334 -21 -35.001l-24 -58c26 8.66699 47.667 13 65 13c42.667 0 76 -11.333 100 -34
s36 -54 36 -94c0 -72 -32.167 -138 -96.5 -198s-134.833 -90 -211.5 -90c-40.667 0 -72.167 7.83301 -94.5 23.5s-33.5 37.834 -33.5 66.501c0 9.33301 2.83301 18 8.5 26s13.167 12 22.5 12c18 0 27 -8.33301 27 -25c0 -28 20.667 -42 62 -42
c65.333 0 122.333 23.833 171 71.5s73 98.834 73 153.501c0 43.333 -23 65 -69 65c-24.667 0 -53 -8 -85 -24c-8.66699 -4.66699 -18.834 -17 -30.501 -37s-25.167 -30 -40.5 -30c-23.333 0 -35 12.667 -35 38c0 7.33301 3.33301 15.333 10 24s13.834 16.167 21.501 22.5
s11.834 10.166 12.501 11.499l58 131c14.667 33.333 29.667 55.5 45 66.5s40.333 16.5 75 16.5c10.667 0 26.834 -1 48.501 -3s38.167 -3 49.5 -3c20 0 45.333 1.66699 76 5z" />
    <glyph glyph-name="six" unicode="6" 
d="M317 267c0 16.667 -3.5 28.832 -10.5 36.499s-19.167 11.5 -36.5 11.5c-14.667 0 -29.5 -4.66699 -44.5 -14s-27.5 -18.666 -37.5 -27.999s-16 -14 -18 -14c-10 0 -17.5 2 -22.5 6s-7.83301 7.5 -8.5 10.5s-1 7.16699 -1 12.5c-37.333 -54.667 -56 -104.667 -56 -150
c0 -24.667 3.83301 -43.5 11.5 -56.5s23.167 -19.5 46.5 -19.5c44 0 84.5 23.667 121.5 71s55.5 92 55.5 134zM424 561.998c0 -11.333 -10.3311 -23.6689 -30.998 -37.002c-36 -20.667 -75.5 -49.667 -118.5 -87s-80.833 -76.666 -113.5 -117.999
c38.667 37.333 75.667 56 111 56c78 0 117 -37.333 117 -112c0 -59.333 -26.333 -118.666 -79 -177.999s-110.334 -89 -173.001 -89c-36.667 0 -67 11.833 -91 35.5s-36 53.167 -36 88.5c0 45.333 10.833 91 32.5 137s51 88.667 88 128s74.167 74.333 111.5 105
s77.666 59.667 120.999 87c12 8 21.667 12 29 12c8 0 15.333 -3.33301 22 -10s10 -12.667 10 -18z" />
    <glyph glyph-name="seven" unicode="7" 
d="M473 545v-4.00098c0 -13.333 -11.333 -34.333 -34 -63c-24 -30.667 -45.333 -60.834 -64 -90.501s-32 -52.5 -40 -68.5l-43 -87c-49.333 -102.667 -87.666 -175.667 -114.999 -219c-8 -12 -15 -19.667 -21 -23s-16 -5 -30 -5c-8 0 -15.667 2.33301 -23 7
s-11 10.667 -11 18c0 2.66699 3.16699 9.5 9.5 20.5s13.5 22.833 21.5 35.5l14 22c22 38 45.5 82 70.5 132s49.333 95.333 73 136s53.834 86.667 90.501 138c-12 0.666992 -32.833 2.83398 -62.5 6.50098s-52.5 5.5 -68.5 5.5c-20 0 -37 -1.66699 -51 -5
c-2.66699 -1.33301 -4.33398 -3.66602 -5.00098 -6.99902c-7.33301 -14 -18.5 -29.667 -33.5 -47s-28.5 -26 -40.5 -26c-10.667 0 -19 3.66699 -25 11s-9 15.333 -9 24c0 12 9.66699 28.333 29 49s29.666 36 30.999 46c0 5.33301 4.33301 10 13 14s16 6 22 6
c2.66699 0 6.5 -0.333008 11.5 -1s8.16699 -1 9.5 -1c0.666992 0 1.16699 -0.833008 1.5 -2.5s1.16602 -2.5 2.49902 -2.5c0.666992 0 3.5 0.333008 8.5 1l19.5 2.5c8 1 16.333 1.5 25 1.5c4 0 20.333 -1.66699 49 -5s50.334 -5 65.001 -5c8 0 20.167 0.666992 36.5 2
s28.5 2 36.5 2c24.667 0 37 -6 37 -18z" />
    <glyph glyph-name="eight" unicode="8" 
d="M284 161c0 9.33301 -1.16602 17.998 -3.49902 25.998s-6.5 15.667 -12.5 23s-11 13 -15 17s-10.667 9.83301 -20 17.5s-15.666 13.167 -18.999 16.5l-24.5 -15l-29.5 -18.5l-28.5 -19c-12.333 -8.33301 -22 -15.666 -29 -21.999s-14.333 -13.666 -22 -21.999
s-13.334 -16.5 -17.001 -24.5s-5.5 -15.667 -5.5 -23c0 -23.333 7.66699 -39 23 -47s36.666 -12 63.999 -12c35.333 0 67.333 9.16699 96 27.5s43 43.5 43 75.5zM443.001 453.998l-0.998047 -20.999c0 -8.66699 -16.667 -25.334 -50 -50.001l-121 -85
c16 -15.333 28.833 -28.333 38.5 -39s19.167 -24.667 28.5 -42s14 -34.333 14 -51c0 -50 -20.333 -90.667 -61 -122s-88 -47 -142 -47c-42 0 -79 8.83301 -111 26.5s-48 44.834 -48 81.501c0 26.667 6.16699 49.334 18.5 68.001s31.166 38.667 56.499 60l103 70
c-22 20 -38.167 38.333 -48.5 55s-15.5 38 -15.5 64c0 29.333 12.667 55.666 38 78.999s54.166 40.166 86.499 50.499s63.166 15.5 92.499 15.5c18 0 39.5 -3.5 64.5 -10.5s38.167 -13.167 39.5 -18.5c2.66699 -5.33301 4 -10 4 -14c0 -10.667 -2.33301 -17.5 -7 -20.5
s-12.667 -4.5 -24 -4.5c-5.33301 0 -18.166 1.16699 -38.499 3.5s-35.5 3.5 -45.5 3.5c-31.333 0 -62.833 -7.83301 -94.5 -23.5s-47.5 -36.5 -47.5 -62.5c0 -12 2.83301 -23.5 8.5 -34.5s11 -19 16 -24s13.833 -13.167 26.5 -24.5l189 131c4.66699 2.66699 9 4 13 4
c12 0 18 -5.33301 18 -16v-2z" />
    <glyph glyph-name="nine" unicode="9" 
d="M372 448c0 36 -18.668 54.001 -56.001 54.001c-45.333 0 -88 -23.5 -128 -70.5s-60 -92.5 -60 -136.5c0 -27.333 12.333 -41 37 -41c32.667 0 74.334 29 125.001 87c17.333 -11.333 28.333 -23 33 -35c32.667 55.333 49 102.666 49 141.999zM443.999 445.001
c0 -70 -39.999 -155.168 -119.999 -255.501s-167.333 -181.166 -262 -242.499c-18 -11.333 -31.333 -17 -40 -17s-16.834 2.66699 -24.501 8s-11.5 12 -11.5 20s10.667 19.333 32 34c40.667 26.667 85.834 63.5 135.501 110.5s92.834 95.167 129.501 144.5
c-40.667 -36.667 -83.334 -55 -128.001 -55c-30 0 -54 10 -72 30s-27 44.667 -27 74c0 64 27.167 125.167 81.5 183.5s114.5 87.5 180.5 87.5c41.333 0 72.666 -10.5 93.999 -31.5s32 -51.167 32 -90.5z" />
    <glyph glyph-name="colon" unicode=":" horiz-adv-x="222" 
d="M69 61c0 -18.667 -7.16699 -34.334 -21.5 -47.001s-30.5 -19 -48.5 -19c-10 0 -18 3.5 -24 10.5s-9 15.167 -9 24.5c0 18.667 7.16699 34.334 21.5 47.001s30.5 19 48.5 19c10 0 18 -3.5 24 -10.5s9 -15.167 9 -24.5zM188 318c0 -18.667 -7.33301 -34.5 -22 -47.5
s-30.667 -19.5 -48 -19.5c-10 0 -18 3.5 -24 10.5s-9 15.167 -9 24.5c0 18.667 7.33301 34.5 22 47.5s30.667 19.5 48 19.5c10 0 18 -3.5 24 -10.5s9 -15.167 9 -24.5z" />
    <glyph glyph-name="semicolon" unicode=";" horiz-adv-x="222" 
d="M88 71c0 -2.66699 -7.16699 -14.9971 -21.5 -36.9971l-48.5 -71c-18 -25.333 -27.667 -39.333 -29 -42c-6 -10.667 -15.667 -16 -29 -16c-18.667 0 -28 8 -28 24c0 0.666992 10 24.167 30 70.5s30.333 71.166 31 74.499s8.5 7.16602 23.5 11.499s25.167 6.5 30.5 6.5
c10 0 19.333 -1.83301 28 -5.5s13 -8.83398 13 -15.501zM188 317.003c0 -18.667 -7.33301 -34.501 -22 -47.501s-30.667 -19.5 -48 -19.5c-10 0 -18 3.5 -24 10.5s-9 15.167 -9 24.5c0 18.667 7.16699 34.667 21.5 48s30.5 20 48.5 20c10 0 18 -3.66699 24 -11
s9 -15.666 9 -24.999z" />
    <glyph glyph-name="less" unicode="&#x3c;" horiz-adv-x="600" 
d="M497 -9l-395 161v52l395 161v-65l-299 -122l299 -122v-65z" />
    <glyph glyph-name="equal" unicode="=" horiz-adv-x="600" 
d="M492 92h-384v55h384v-55zM492 208h-384v54h384v-54z" />
    <glyph glyph-name="greater" unicode="&#x3e;" horiz-adv-x="600" 
d="M498 152l-395 -161v65l299 122l-299 122v65l395 -161v-52z" />
    <glyph glyph-name="question" unicode="?" horiz-adv-x="315" 
d="M95 63c0 -18.667 -7.33301 -34.834 -22 -48.501s-30.667 -20.5 -48 -20.5c-10 0 -18 3.66699 -24 11s-9 15.666 -9 24.999c0 18.667 7.33301 34.834 22 48.501s30.667 20.5 48 20.5c10 0 18 -3.66699 24 -11s9 -15.666 9 -24.999zM349 478
c0 -24.667 -10.9961 -52.498 -32.9961 -83.498s-46.5 -58.667 -73.5 -83s-53.333 -50 -79 -77s-41.5 -48.833 -47.5 -65.5c-4.66699 -15.333 -11.334 -27.5 -20.001 -36.5s-17.334 -13.5 -26.001 -13.5c-10.667 0 -17.834 2 -21.501 6s-5.5 11 -5.5 21
c0 17.333 8.16699 37.666 24.5 60.999s36.166 46.5 59.499 69.5l70 69.5c23.333 23.333 43.166 47.166 59.499 71.499s24.5 45.833 24.5 64.5c0 27.333 -15.667 41 -47 41c-15.333 0 -31.333 -6.16699 -48 -18.5s-28.667 -25.833 -36 -40.5c-12.667 -24 -26 -36 -40 -36
c-8 0 -15 3.5 -21 10.5s-9 14.167 -9 21.5c0 11.333 6.5 25.5 19.5 42.5s26.167 31.5 39.5 43.5c28.667 24 62.334 36 101.001 36c35.333 0 62.333 -9 81 -27s28 -43.667 28 -77z" />
    <glyph glyph-name="at" unicode="@" horiz-adv-x="800" 
d="M490 404c0 18.667 -6.5 36.5 -19.5 53.5s-27.5 25.5 -43.5 25.5c-44 0 -81.333 -23.333 -112 -70s-46 -93.667 -46 -141c0 -24 6.83301 -43.667 20.5 -59s30.5 -23 50.5 -23c40 0 75 24.667 105 74s45 96 45 140zM678 399c0 50.667 -15.333 95 -46 133l-99 -286
c-2.66699 -10.667 -4 -23 -4 -37c0 -2 -0.333008 -5 -1 -9s-1 -7 -1 -9c0 -4 1.66699 -6 5 -6c34.667 0 67.667 23.833 99 71.5s47 95.167 47 142.5zM757 396c0 -74 -25.1641 -139.333 -75.4971 -196s-103.5 -85 -159.5 -85c-20 0 -38 4.83301 -54 14.5s-24 20.167 -24 31.5
l22 21c-47.333 -44.667 -94 -67 -140 -67c-44 0 -79.5 14.667 -106.5 44s-40.5 65.333 -40.5 108c0 74 24.167 141 72.5 201s108.166 90 179.499 90c44.667 0 79.334 -19.667 104.001 -59l17 41h73c-52.667 58 -122.334 87 -209.001 87
c-82.667 0 -152.334 -28.833 -209.001 -86.5s-85 -126.5 -85 -206.5c0 -78.667 29 -146 87 -202s127.667 -84 209 -84c47.333 0 93.666 11.333 138.999 34s82.666 54 111.999 94h83c-36 -64 -84 -113.167 -144 -147.5s-123.333 -51.5 -190 -51.5
c-105.333 0 -194.166 35.333 -266.499 106s-108.5 156.334 -108.5 257.001c0 98 36.667 182.333 110 253s160.333 106 261 106c96.667 0 178 -28.833 244 -86.5s99 -129.834 99 -216.501z" />
    <glyph glyph-name="A" unicode="A" horiz-adv-x="547" 
d="M520 625c0 4.66699 -1.66797 7.00098 -5.00098 7.00098c-36.667 0 -98.167 -40.5 -184.5 -121.5s-147.833 -155.5 -184.5 -223.5c56 -6 102.167 -15.667 138.5 -29s69.5 -36.666 99.5 -69.999c14 57.333 37.333 132.666 70 225.999s53.334 155.666 62.001 186.999
c2.66699 8 4 16 4 24zM595.999 623.001c0 -14 -25.667 -96.6621 -77 -247.995s-77 -244.333 -77 -279c0 -6.66699 0.5 -17.667 1.5 -33s1.5 -25 1.5 -29c0 -9.33301 -4 -17.833 -12 -25.5s-18.333 -11.5 -31 -11.5c-28.667 0 -43 14 -43 42c0 4.66699 0.5 12.667 1.5 24
s1.5 19.666 1.5 24.999c0 14 -11.667 34.667 -35 62c-36 43.333 -109 68.666 -219 75.999c-15.333 -20.667 -34.166 -53.334 -56.499 -98.001s-37.166 -78.334 -44.499 -101.001c-6 -17.333 -21.333 -26 -46 -26h-45c35.333 88.667 71.666 163.667 108.999 225
c-10.667 -0.666992 -29 -2.66699 -55 -6c-12.667 0 -20.667 1.83301 -24 5.5s-5 9.5 -5 17.5c0 15.333 2.66699 26.166 8 32.499s14 10.5 26 12.5c12 2.66699 35 4 69 4h22c19.333 32 46.666 70 81.999 114s74.5 88.5 117.5 133.5s87.833 82.833 134.5 113.5
s86.667 46 120 46c26.667 0 46 -6.33301 58 -19s18 -31.667 18 -57z" />
    <glyph glyph-name="B" unicode="B" horiz-adv-x="500" 
d="M473 523c0 -39.333 -6.33301 -73.498 -19 -102.498s-28 -50.5 -46 -64.5s-36 -25.5 -54 -34.5s-33.333 -16.167 -46 -21.5s-19 -10.666 -19 -15.999c0 -6 7.5 -10.5 22.5 -13.5l49.5 -9.5c18 -3.33301 34.5 -13.833 49.5 -31.5s22.5 -42.167 22.5 -73.5
c0 -26.667 -7 -50 -21 -70s-32.5 -35.333 -55.5 -46s-46.5 -18.5 -70.5 -23.5s-49 -8.16699 -75 -9.5c-37.333 -1.33301 -64.333 -2 -81 -2h-87c0 26.667 5.66699 47 17 61c50.667 1.33301 83 2 97 2c133.333 0 200 29.333 200 88c0 16 -5 28 -15 36s-22 13.333 -36 16
s-28 5.66699 -42 9s-26 10.666 -36 21.999s-15 27.333 -15 48c0 18 4.5 32.667 13.5 44s20.333 19.166 34 23.499s28.5 10.166 44.5 17.499s30.833 15.666 44.5 24.999s25 24.833 34 46.5s13.5 48.834 13.5 81.501c0 71.333 -19.333 107 -58 107
c-39.333 0 -77.333 -40.333 -114 -121l-195 -436c-1.33301 -3.33301 -3.66602 -8.66602 -6.99902 -15.999s-5.83301 -13.333 -7.5 -18s-4.33398 -9.83398 -8.00098 -15.501s-7.5 -10.834 -11.5 -15.501c-8 -8.66699 -26 -13 -54 -13c-5.33301 0 -11.166 2.66699 -17.499 8
s-9.5 11 -9.5 17c36 62.667 81.167 155 135.5 277s89.166 198.667 104.499 230c55.333 113.333 118.333 170 189 170c30 0 55.167 -9.66699 75.5 -29s34.333 -41.666 42 -66.999s11.5 -52 11.5 -80z" />
    <glyph glyph-name="C" unicode="C" horiz-adv-x="537" 
d="M574 578c0 -51.333 -20.3359 -101.336 -61.0029 -150.003s-87.667 -87.334 -141 -116.001c-8 -4 -24.5 -9.33301 -49.5 -16s-44.5 -10 -58.5 -10c-12 0 -18 2.66699 -18 8c0 10.667 3.5 21.834 10.5 33.501s15.167 19.167 24.5 22.5c43.333 16.667 71.666 29 84.999 37
c36 20.667 68 48.834 96 84.501s42 70.834 42 105.501c0 38.667 -20.333 58 -61 58c-31.333 0 -68.666 -13.5 -111.999 -40.5s-84.166 -60.667 -122.499 -101s-70.666 -87.166 -96.999 -140.499s-39.166 -103.333 -38.499 -150c0.666992 -40.667 11.334 -74 32.001 -100
s51.334 -39 92.001 -39c89.333 0 159.666 49.333 210.999 148c20 0 39 -7.66699 57 -23c-20 -55.333 -54.667 -101.166 -104 -137.499s-102 -54.5 -158 -54.5c-137.333 0 -206 72 -206 216c0 45.333 14.167 96.666 42.5 153.999s63.833 110.333 106.5 159
s91.667 89.667 147 123s107.666 50 156.999 50c38.667 0 69 -10.833 91 -32.5s33 -51.167 33 -88.5z" />
    <glyph glyph-name="D" unicode="D" horiz-adv-x="722" 
d="M582 212c0 25.333 -6.16699 51.833 -18.5 79.5s-24.333 49.667 -36 66s-29.167 38.833 -52.5 67.5l-84 -193c-30 -70 -66 -126 -108 -168c29.333 -2.66699 51.333 -4 66 -4c155.333 0 233 50.667 233 152zM658 208c0 -39.333 -8.33887 -73.1689 -25.0059 -101.502
s-39.334 -50.166 -68.001 -65.499s-59.5 -26.5 -92.5 -33.5s-68.5 -10.5 -106.5 -10.5c-21.333 0 -54.166 1.83301 -98.499 5.5s-69.166 5.5 -74.499 5.5c-1.33301 0 -9.33301 -1 -24 -3s-31.667 -3.83301 -51 -5.5s-34.666 -2.5 -45.999 -2.5c-22 0 -45.833 3.5 -71.5 10.5
s-38.5 18.5 -38.5 34.5c0 14.667 10 25.5 30 32.5s39 10.5 57 10.5c19.333 0 42 -2.33301 68 -7c26.667 -4 43.334 -6 50.001 -6c50.667 0 104 63 160 189l97 219c-37.333 38.667 -80 74.167 -128 106.5s-90.667 48.5 -128 48.5c-4.66699 0 -9 -2.16699 -13 -6.5
s-6 -9.16602 -6 -14.499c0 -30 20.667 -61.833 62 -95.5s83 -59.834 125 -78.501c0 -11.333 -3 -22.833 -9 -34.5s-12.333 -17.5 -19 -17.5c-5.33301 0 -20.166 6.83301 -44.499 20.5s-42.833 24.834 -55.5 33.501c-30 18.667 -58.333 44.334 -85 77.001s-40 63.667 -40 93
c0 28 8.33301 49.5 25 64.5s39.334 22.5 68.001 22.5c36.667 0 82.334 -16.667 137.001 -50s103.334 -69 146.001 -107c19.333 27.333 32.666 42.666 39.999 45.999c2.66699 0 11 -5 25 -15s21 -18 21 -24c0 -0.666992 -6 -9.5 -18 -26.5s-18 -28.167 -18 -33.5
c0 -1.33301 3.33301 -5.5 10 -12.5l28.5 -31.5c12.333 -14 23.5 -28 33.5 -42c51.333 -70 77 -135 77 -195z" />
    <glyph glyph-name="E" unicode="E" horiz-adv-x="481" 
d="M486 615c0 -12 -4.49805 -26.166 -13.498 -42.499s-18 -30.333 -27 -42s-21.5 -26.834 -37.5 -45.501l-30 -35c-29.333 -35.333 -47.666 -53 -54.999 -53c-10 1.33301 -18.833 5.83301 -26.5 13.5s-11.5 16.167 -11.5 25.5c0 7.33301 21.833 35 65.5 83s65.5 80 65.5 96
c0 11.333 -12 17 -36 17c-51.333 0 -102.5 -23.833 -153.5 -71.5s-76.5 -96.167 -76.5 -145.5c0 -21.333 5 -44 15 -68c11.333 -28 17 -45.333 17 -52c0 -13.333 -5.16699 -25.5 -15.5 -36.5s-22.833 -20.833 -37.5 -29.5l-44.5 -27c-15 -9.33301 -27.667 -21 -38 -35
s-15.5 -29.667 -15.5 -47s5.33301 -31 16 -41s25 -15 43 -15c32 0 64 6.5 96 19.5s59 28.333 81 46s40.167 34.334 54.5 50.001s23.166 27.834 26.499 36.501c1.33301 3.33301 6.66602 6.83301 15.999 10.5s16.333 5.5 21 5.5l40 -7c-20.667 -58 -66.5 -110.5 -137.5 -157.5
s-135.833 -70.5 -194.5 -70.5c-38.667 0 -71.334 9.33301 -98.001 28s-40 46.667 -40 84c0 25.333 5.33301 48.333 16 69s23.834 37.167 39.501 49.5s31.167 23.333 46.5 33l39 25c10.667 7 16 13.5 16 19.5c0 2 -6 15 -18 39c-13.333 29.333 -20 51.666 -20 66.999
c0 68 33.667 133 101 195s135.666 93 204.999 93c28 0 52.667 -7.33301 74 -22s32 -35.334 32 -62.001z" />
    <glyph glyph-name="F" unicode="F" horiz-adv-x="593" 
d="M603 616c0 -54 -56.668 -184.672 -170.001 -392.005h61c31.333 0 47 -8.33301 47 -25c0 -5.33301 -0.833008 -10.666 -2.5 -15.999s-6.16699 -10.833 -13.5 -16.5s-16.666 -8.5 -27.999 -8.5h-97c-12 -20 -28.167 -45.167 -48.5 -75.5s-42.333 -60.166 -66 -89.499
s-39.5 -43.666 -47.5 -42.999l-79 5c64 64.667 116 132.334 156 203.001h-14c-13.333 0 -25.5 2.33301 -36.5 7s-16.5 9 -16.5 13c0 12.667 4.66699 23.5 14 32.5s20.666 13.5 33.999 13.5h57c2.66699 6 10.334 20.5 23.001 43.5l31.5 59l32 63
c13 25.667 24 48.334 33 68.001l27 61c9 21 15.833 39.333 20.5 55s7 28.167 7 37.5c0 13.333 -10.667 20 -32 20c-36 0 -80.167 -14 -132.5 -42s-101.166 -61.333 -146.499 -100s-84.333 -79 -117 -121s-49 -75.667 -49 -101c0 -7.33301 5.33301 -11 16 -11
c34.667 0 78.5 28.5 131.5 85.5s88.833 103.5 107.5 139.5c2 4 5.66699 8.16699 11 12.5s11 6.5 17 6.5c5.33301 0 11.166 -6.33301 17.499 -19s9.5 -22.334 9.5 -29.001v-1c-1.33301 -8.66699 -12 -26.667 -32 -54s-44.333 -56.666 -73 -87.999
s-61.667 -59.166 -99 -83.499s-71.333 -36.5 -102 -36.5c-49.333 0 -74 26 -74 78c0 32.667 18 74 54 124s79.667 97.667 131 143s108.5 84.166 171.5 116.499s118.5 48.5 166.5 48.5c30 0 54.167 -6.83301 72.5 -20.5s27.5 -34.5 27.5 -62.5z" />
    <glyph glyph-name="G" unicode="G" horiz-adv-x="500" 
d="M531 574c0 -43.333 -13.168 -82.999 -39.501 -118.999s-64.166 -60.333 -113.499 -73l-5 60c28 14.667 49.667 34.167 65 58.5s23 50.166 23 77.499c0 38 -19 57 -57 57c-54 0 -109.833 -30.5 -167.5 -91.5s-104.334 -132.167 -140.001 -213.5s-53.5 -153.333 -53.5 -216
c0 -15.333 4.5 -27.833 13.5 -37.5s21.5 -14.5 37.5 -14.5c69.333 0 154.333 59.333 255 178c4 5.33301 10.5 17.333 19.5 36s18.667 34.5 29 47.5s22.166 19.5 35.499 19.5c8.66699 0 16.834 -3.5 24.501 -10.5s11.5 -14.5 11.5 -22.5
c0 -18.667 -7.66699 -36.334 -23 -53.001c-12.667 -14 -41.834 -70.667 -87.501 -170s-79.5 -166 -101.5 -200c-10 -15.333 -24.833 -33.166 -44.5 -53.499s-35.167 -30.5 -46.5 -30.5c-6.66699 0 -12.5 2.5 -17.5 7.5s-7.5 11.167 -7.5 18.5c0 12 5.66699 26.333 17 43
c53.333 73.333 93.666 141.333 120.999 204c-65.333 -54.667 -128.666 -82 -189.999 -82c-38 0 -67.833 12 -89.5 36s-32.5 54.667 -32.5 92c0 49.333 12.5 107 37.5 173s57.333 129 97 189s87.834 110.833 144.501 152.5s113.334 62.5 170.001 62.5
c38.667 0 67.5 -11.333 86.5 -34s28.5 -53 28.5 -91z" />
    <glyph glyph-name="H" unicode="H" horiz-adv-x="722" 
d="M259 177c-14.667 -1.33301 -35.3301 -3.66797 -61.9971 -7.00098s-43 -5.33301 -49 -6c-14.667 -2 -29.834 -4.5 -45.501 -7.5s-33.834 -7.16699 -54.501 -12.5s-37.834 -12.666 -51.501 -21.999s-21.167 -19.333 -22.5 -30v-3c0 -16.667 16 -25 48 -25
c54.667 0 99.5 9.33301 134.5 28s69.167 47 102.5 85zM767.004 668.998c-68 -126 -124.997 -258.002 -170.997 -396.002l73 21c10 -31.333 15 -51.666 15 -60.999c-4 -2.66699 -20 -7.5 -48 -14.5s-50.333 -11.833 -67 -14.5l-58 -182c-4 -11.333 -8 -18.666 -12 -21.999
s-9.66699 -5 -17 -5c-19.333 0 -34.333 5 -45 15c5.33301 28.667 23.333 89 54 181l-135 -8c-30.667 -38.667 -58.834 -69.834 -84.501 -93.501s-60.5 -45 -104.5 -64s-92.667 -28.5 -146 -28.5c-30 0 -57 8.16699 -81 24.5s-36 39.5 -36 69.5c0 19.333 7.83301 37 23.5 53
s37.167 29.167 64.5 39.5s55 19.333 83 27s59.667 13.834 95 18.501s62.666 8 81.999 10s39.666 3.66699 60.999 5c35.333 58 66.5 118.667 93.5 182s44.167 120 51.5 170c0.666992 5.33301 1.5 10 2.5 14s2.66699 7.5 5 10.5s4 5.33301 5 7s3.16699 3.16699 6.5 4.5
s5.33301 2.16602 6 2.49902s3 0.833008 7 1.5l7 2c13.333 0 23.5 -1.83301 30.5 -5.5s10.5 -11.167 10.5 -22.5c0 -20 -14.5 -71.833 -43.5 -155.5s-59.833 -152.167 -92.5 -205.5l111 8l35 93.5l39 104.5c8.66699 22.667 21.167 51.834 37.5 87.501s32.833 67.5 49.5 95.5
c6 10.667 17.5 23.5 34.5 38.5s29.833 22.5 38.5 22.5c6 0 11.167 -2.5 15.5 -7.5s6.5 -10.167 6.5 -15.5c0 -2 -0.666992 -4.33301 -2 -7z" />
    <glyph glyph-name="I" unicode="I" horiz-adv-x="333" 
d="M385 622c0 -30.667 -7.33691 -71.6709 -22.0039 -123.004s-35 -105.666 -61 -162.999s-55 -111.5 -87 -162.5s-68 -93.167 -108 -126.5s-78.333 -50 -115 -50c-13.333 0 -28.666 2.5 -45.999 7.5s-27 12.5 -29 22.5c0 8.66699 4.83301 19.167 14.5 31.5
s19.167 18.5 28.5 18.5c13.333 -8.66699 25 -13 35 -13c23.333 0 48.5 12.5 75.5 37.5s52.667 57 77 96s44 72.5 59 100.5s28.167 54.667 39.5 80c6.66699 14.667 15.5 35.334 26.5 62.001s22.833 59.334 35.5 98.001s19 66.667 19 84c0 13.333 -3.66699 20 -11 20
c-22.667 0 -47.667 -18 -75 -54s-49.666 -75 -66.999 -117s-26 -74 -26 -96c0 -6.66699 -7.83301 -17.334 -23.5 -32.001s-26.5 -22 -32.5 -22c-7.33301 0 -13.166 4.33301 -17.499 13s-6.5 17 -6.5 25c0 30.667 12 73.334 36 128.001s56.333 105.334 97 152.001
s79.334 70 116.001 70c45.333 0 68 -29 68 -87z" />
    <glyph glyph-name="J" unicode="J" horiz-adv-x="333" 
d="M149 144c-48.667 -25.333 -98.8301 -73.333 -150.497 -144s-77.5 -132.667 -77.5 -186c0 -14 3.33301 -21 10 -21c4 0 8.16699 1.66699 12.5 5s8.16602 7 11.499 11s7.16602 9.5 11.499 16.5s7.66602 12.833 9.99902 17.5l8.5 17.5l6 12.5l145 282zM377.004 606
c0 -46 -20.335 -120.835 -61.002 -224.502s-79 -190.167 -115 -259.5l-156 -301c-32.667 -64 -72.334 -96 -119.001 -96c-50 0 -75 31 -75 93c0 40 9.5 81 28.5 123s44.167 80.833 75.5 116.5s64 67.834 98 96.501s69.333 54.334 106 77.001
c11.333 7.33301 18 12.166 20 14.499s6 10.166 12 23.499c22.667 50.667 46.667 112 72 184s38 124.333 38 157c0 1.33301 0.333008 3.66602 1 6.99902s1 6 1 8c0 4 -2 6 -6 6c-20 0 -44.167 -18.667 -72.5 -56s-53.833 -86.166 -76.5 -146.499s-35 -118.166 -37 -173.499
c-0.666992 -10 -6.66699 -18.667 -18 -26s-22.666 -11 -33.999 -11c-16 0 -24 10.667 -24 32c0 50.667 13.333 111.167 40 181.5s61.334 132.5 104.001 186.5s83.334 81 122.001 81c24.667 0 43.5 -9.16699 56.5 -27.5s19.5 -40.166 19.5 -65.499z" />
    <glyph glyph-name="K" unicode="K" 
d="M522 675c-4.66699 -28 -44.8311 -74.1719 -120.498 -138.505s-155.5 -120.166 -239.5 -167.499c-2.66699 -2 -7.16699 -8.83301 -13.5 -20.5s-9.5 -20.834 -9.5 -27.501c0 -5.33301 14.833 -29.166 44.5 -71.499s67.667 -87.666 114 -135.999
s86.166 -78.833 119.499 -91.5c0 -8.66699 -8.16699 -16.167 -24.5 -22.5s-28.166 -9.5 -35.499 -9.5c-9.33301 0 -19.333 2.33301 -30 7c-27.333 10.667 -62.5 41.834 -105.5 93.501s-82.5 104.167 -118.5 157.5l-107 -225c-5.33301 -10.667 -10.333 -17.167 -15 -19.5
s-14 -3.5 -28 -3.5c-7.33301 0 -14.833 2 -22.5 6s-11.5 7.33301 -11.5 10c0 0.666992 0.333008 2.66699 1 6v4l139 291c0.666992 0.666992 1 1.66699 1 3s-1.66699 5.33301 -5 12s-5 13.334 -5 20.001c0 10.667 7.16699 23.5 21.5 38.5s26.166 23.833 35.499 26.5
c0.666992 0 1.66699 1.5 3 4.5l6 14c2.66699 6.33301 5 11.5 7 15.5l111 233c2 4 6.5 7.33301 13.5 10s12.833 4 17.5 4l45 -4c-3.33301 -18.667 -12.333 -43.667 -27 -75l-66 -137c94 62 163.667 119.333 209 172c0 0.666992 3.16699 4.83398 9.5 12.501s11.833 14 16.5 19
s8 7.83301 10 8.5c6.66699 1.33301 15.667 2 27 2c9.33301 0 17.166 -2.5 23.499 -7.5s9.5 -9.5 9.5 -13.5z" />
    <glyph glyph-name="L" unicode="L" horiz-adv-x="556" 
d="M549 591c0 -49.333 -17.335 -106.332 -52.002 -170.999c-0.666992 -1.33301 -3.33398 -6.16602 -8.00098 -14.499l-11.5 -21c-3 -5.66699 -7.33301 -13.167 -13 -22.5s-11 -17.166 -16 -23.499l-16 -19.5c-5.66699 -6.66699 -11.167 -11.834 -16.5 -15.501
s-10.666 -5.83398 -15.999 -6.50098l-69 -7l72.5 107.5c17 26.333 33.833 59 50.5 98s25 73.167 25 102.5c0 22.667 -12 34 -36 34c-16 0 -31.667 -6.66699 -47 -20s-29 -29.833 -41 -49.5s-24.5 -44.667 -37.5 -75s-23.833 -57.833 -32.5 -82.5l-30.5 -87.5
c-11.667 -33.667 -20.834 -58.834 -27.501 -75.501c-31.333 -82 -70.333 -141.333 -117 -178c26.667 -2.66699 58.667 -4 96 -4c55.333 0 111 4 167 12l61 9c0 -43.333 -11 -67.333 -33 -72c-48 -10.667 -109.333 -16 -184 -16c-55.333 0 -118.666 6.66699 -189.999 20
c-0.666992 0 -3.33398 -1 -8.00098 -3s-9.5 -3.83301 -14.5 -5.5s-11.167 -3.5 -18.5 -5.5s-15.833 -3.5 -25.5 -4.5s-19.5 -1.5 -29.5 -1.5c-18 0 -34.5 4 -49.5 12s-22.5 20.333 -22.5 37c0 10.667 3.66699 19.667 11 27s16.333 12.5 27 15.5s20.334 5.16699 29.001 6.5
s16.334 2 23.001 2c10 0 20.833 -0.833008 32.5 -2.5s21.5 -3.5 29.5 -5.5s12.667 -3 14 -3c13.333 0 27.833 8.16699 43.5 24.5s29.834 35.833 42.501 58.5s26.167 50 40.5 82s25.833 59.5 34.5 82.5l27 74c9.33301 26.333 14.333 40.5 15 42.5
c62 168.667 135.667 253 221 253c36.667 0 62.5 -9 77.5 -27s22.5 -45 22.5 -81z" />
    <glyph glyph-name="M" unicode="M" horiz-adv-x="704" 
d="M783 661c0 -14.667 -5.33301 -31.668 -16 -51.001c-1.33301 -2.66699 -12.333 -22.167 -33 -58.5l-38 -67.5l-34.5 -64c-18.333 -34 -30.666 -58 -36.999 -72l-31 -66c-14.333 -30 -24.333 -53.667 -30 -71l-20 -62.5c-7.66699 -24.333 -13 -46.166 -16 -65.499
s-4.5 -37.666 -4.5 -54.999c0 -8.66699 -3.66699 -15.667 -11 -21s-16 -8 -26 -8c-16.667 0 -27.334 1.66699 -32.001 5s-7 10.333 -7 21c0 62 19.167 137.333 57.5 226s90.166 192.334 155.499 311.001l-78 -87l-67.5 -78.5l-78 -95l-67 -83l-78.5 -98.5
c-42 -52.667 -65.667 -82.667 -71 -90c-13.333 -18 -26.333 -27 -39 -27c-11.333 0 -19 2.5 -23 7.5s-6 13.167 -6 24.5c0 5.33301 5 30.333 15 75l34.5 148.5l21.5 89.5l36 152c-102.667 -226 -187.667 -379.667 -255 -461c-28 -34.667 -47 -52.334 -57 -53.001l-99 -5
c52.667 48 102.5 105.833 149.5 173.5s85.5 131.667 115.5 192l82 171c24.667 53.667 46.167 96.5 64.5 128.5s33.833 48 46.5 48c24 0 39.5 -3.83301 46.5 -11.5s10.5 -20.834 10.5 -39.501c0 -21.333 -18.333 -107 -55 -257l-45 -190
c164.667 202 290.334 349.667 377.001 443l26.5 27.5c5.66699 5.66699 15 12.5 28 20.5s25.167 12 36.5 12c12 0 23.667 -3.66699 35 -11s17 -16.333 17 -27z" />
    <glyph glyph-name="N" unicode="N" horiz-adv-x="519" 
d="M531 546c0 -12 -5.33203 -28.6641 -15.999 -49.9971c-22 -44.667 -50 -113.834 -84 -207.501s-57.667 -154.5 -71 -182.5c-0.666992 -1.33301 -3.83398 -8.16602 -9.50098 -20.499s-10.5 -22 -14.5 -29s-9.33301 -15.667 -16 -26s-13.5 -18 -20.5 -23
s-13.833 -7.5 -20.5 -7.5c-10.667 0 -18.667 4.83301 -24 14.5s-8 19.834 -8 30.501l-6 500c-113.333 -264 -195.333 -434 -246 -510c-10 -14.667 -17.333 -25 -22 -31s-11.167 -12 -19.5 -18s-16.833 -9 -25.5 -9l-67 10c43.333 48.667 79.833 99 109.5 151
s60.167 113 91.5 183l114 254c34 80 62.667 120 86 120c14 0 25 -3.33301 33 -10s12.833 -13.834 14.5 -21.501s2.83398 -17.834 3.50098 -30.501l8 -443c7.33301 19.333 20 55.166 38 107.499s34.333 97.166 49 134.499s30 73.333 46 108c4 8.66699 11.5 20.5 22.5 35.5
s19.167 22.5 24.5 22.5c9.33301 0 16.666 -6.16699 21.999 -18.5s8 -23.5 8 -33.5z" />
    <glyph glyph-name="O" unicode="O" horiz-adv-x="537" 
d="M557 509c0 -37.333 -7.32812 -79 -21.9951 -125s-35.5 -91.5 -62.5 -136.5s-57.5 -86.333 -91.5 -124s-72.5 -68.167 -115.5 -91.5s-85.833 -35 -128.5 -35c-52 0 -91 14.333 -117 43s-39 67.334 -39 116.001c0 85.333 24.833 172.333 74.5 261
s111.167 158.667 184.5 210c26.667 18.667 58 35.334 94 50.001s67.667 22 95 22c8 0 16 -2.33301 24 -7s13 -10.667 15 -18c0 -8.66699 -2.5 -16.334 -7.5 -23.001s-11.167 -10 -18.5 -10c-18.667 0 -43.5 -6.33301 -74.5 -19s-57.5 -26.667 -79.5 -42
c-64.667 -43.333 -120.334 -106.166 -167.001 -188.499s-70 -160.5 -70 -234.5c0 -28.667 7.66699 -51.334 23 -68.001s37.333 -25 66 -25c43.333 0 87 16.167 131 48.5s81.333 71.666 112 117.999s55.667 95 75 146s29 95.833 29 134.5c0 34.667 -16 52 -48 52
c-20.667 0 -41 -9 -61 -27s-37 -38.333 -51 -61c-5.33301 -8.66699 -10.833 -19.167 -16.5 -31.5s-10.334 -23 -14.001 -32s-5.83398 -14.167 -6.50098 -15.5c-14.667 -13.333 -38.334 -21 -71.001 -23c1.33301 60.667 26.666 118 75.999 172s102 81 158 81
c34.667 0 60.667 -11 78 -33s26 -50 26 -84z" />
    <glyph glyph-name="P" unicode="P" horiz-adv-x="426" 
d="M447 519c0 -43.333 -6.33398 -87.3291 -19.001 -131.996s-30.667 -86.667 -54 -126s-55 -71.5 -95 -96.5s-84.333 -37.5 -133 -37.5c-40 0 -60 11.667 -60 35c0 8 2.66699 14.667 8 20s12 8 20 8c31.333 0 60.666 4.33301 87.999 13c54.667 18 96.5 59 125.5 123
s43.5 128.333 43.5 193v13c0 14 -0.5 25.5 -1.5 34.5s-3.16699 19.167 -6.5 30.5s-9 19.833 -17 25.5s-18.667 8.5 -32 8.5c-28 0 -60.833 -28.833 -98.5 -86.5s-69.167 -117.334 -94.5 -179.001s-40.666 -106.834 -45.999 -135.501
c-12.667 -72.667 -24.334 -123.667 -35.001 -153l-30 -84c-4 -12 -11.5 -25.833 -22.5 -41.5s-20.833 -23.5 -29.5 -23.5c-9.33301 0 -16.333 3.66699 -21 11s-7 15.666 -7 24.999c0 22 8.66699 64.333 26 127c8.66699 30 19.5 64.167 32.5 102.5s32.5 89.166 58.5 152.499
s52.5 119.5 79.5 168.5s58.333 91.833 94 128.5s69.834 55 102.501 55c24 0 44.5 -5.5 61.5 -16.5s29.833 -26 38.5 -45s14.834 -38 18.501 -57s5.5 -39.167 5.5 -60.5z" />
    <glyph glyph-name="Q" unicode="Q" horiz-adv-x="537" 
d="M567 558c0 -42 -14.3389 -88.1689 -43.0059 -138.502s-64.667 -97.666 -108 -141.999s-89.166 -85 -137.499 -122s-93.833 -66.167 -136.5 -87.5c8 -1.33301 14 -2 18 -2c57.333 -2.66699 96.333 -4 117 -4c47.333 0 95 3 143 9c8 -10.667 12 -18.667 12 -24
c0 -10.667 -2.66699 -20.667 -8 -30c-4.66699 -9.33301 -17.667 -14.333 -39 -15c-60 -3.33301 -118 -5 -174 -5c-28 0 -63.333 3.66699 -106 11c-9.33301 1.33301 -18.833 3 -28.5 5s-17.334 3.66699 -23.001 5s-8.83398 2 -9.50098 2
c-1.33301 0 -3.66602 -0.5 -6.99902 -1.5l-14.5 -4.5c-6.33301 -2 -12.166 -3.66699 -17.499 -5c-29.333 -8 -50.666 -12 -63.999 -12c-16.667 0 -32 3.5 -46 10.5s-21 18.5 -21 34.5c0 20 6.33301 34.167 19 42.5s33.334 12.5 62.001 12.5c7.33301 0 18.5 -1.66699 33.5 -5
s25.833 -5 32.5 -5c4 0 10.333 1.66699 19 5s18.167 7.83301 28.5 13.5l28.5 16l27 16c9.33301 5.66699 15 9.16699 17 10.5c53.333 30.667 105.666 67.667 156.999 111s96.333 92.666 135 147.999s58 105.666 58 150.999c0 24.667 -7.16699 43.667 -21.5 57
s-34.166 20 -59.499 20c-56.667 0 -114.5 -27.5 -173.5 -82.5s-99.5 -110.833 -121.5 -167.5c-5.33301 -14 -13.666 -23.333 -24.999 -28c-11.333 2.66699 -20.833 8.33398 -28.5 17.001s-11.5 17.667 -11.5 27c0 8.66699 7 25.334 21 50.001s25.333 42.667 34 54
c40 53.333 86.333 99 139 137s107.334 57 164.001 57c44.667 0 82.334 -12.667 113.001 -38s46 -59.666 46 -102.999z" />
    <glyph glyph-name="R" unicode="R" horiz-adv-x="389" 
d="M423 514c0 -82 -18.3359 -148.17 -55.0029 -198.503s-97.334 -84.833 -182.001 -103.5c1.33301 -2.66699 4.83301 -6.66699 10.5 -12s11.834 -10.833 18.501 -16.5s10.667 -9.16699 12 -10.5c79.333 -82 119 -137.667 119 -167c0 -10.667 -4.16699 -20 -12.5 -28
s-17.166 -12 -26.499 -12s-19 9 -29 27c-17.333 34 -40 65.667 -68 95l-68.5 72c-17.667 18.667 -26.5 36 -26.5 52c0 15.333 5.66699 28.333 17 39s25.666 18.834 42.999 24.501s36 14 56 25s38.667 23.833 56 38.5s31.666 37.167 42.999 67.5s17 66.5 17 108.5
c0 15.333 -0.333008 27.833 -1 37.5s-2.66699 21.667 -6 36s-9.16602 25.166 -17.499 32.499s-19.166 11 -32.499 11c-16 0 -34 -12.667 -54 -38s-38.833 -56.666 -56.5 -93.999s-32.5 -70.5 -44.5 -99.5s-21.667 -54.167 -29 -75.5c-6.66699 -21.333 -21 -80.333 -43 -177
c-2.66699 -13.333 -14.667 -41.333 -36 -84s-37.666 -64 -48.999 -64s-18.833 2.5 -22.5 7.5s-5.5 13.5 -5.5 25.5c0 38.667 17.333 106.834 52 204.501s66.334 178.5 95.001 242.5l17 36.5c4 8.33301 10.667 21.5 20 39.5s17.666 32.333 24.999 43s16.833 23 28.5 37
s22.834 25 33.501 33s22.834 15 36.501 21s27.5 9 41.5 9c24 0 44.667 -5.83301 62 -17.5s30.166 -27.5 38.499 -47.5s14.333 -39.667 18 -59s5.5 -39.666 5.5 -60.999z" />
    <glyph glyph-name="S" unicode="S" horiz-adv-x="500" 
d="M543 613c0 -31.333 -18.832 -62.9971 -56.499 -94.9971s-81.167 -57.333 -130.5 -76s-92.666 -28 -129.999 -28h-5c0 25.333 3.66699 45.333 11 60c20.667 4 43.167 9.66699 67.5 17s50.333 16.666 78 27.999s50.5 25.333 68.5 42s27 34 27 52
c0 14.667 -11.333 22 -34 22c-46.667 0 -101.667 -20.333 -165 -61s-95 -82.334 -95 -125.001c0 -20.667 6.33301 -38.5 19 -53.5s28.334 -26.5 47.001 -34.5l61 -27.5c22 -10.333 42.333 -20.666 61 -30.999s34.334 -25.666 47.001 -45.999s19 -44.5 19 -72.5
c0 -36 -10 -67 -30 -93s-46.333 -45.333 -79 -58s-65.334 -21.834 -98.001 -27.501s-66.334 -8.5 -101.001 -8.5c-30 0 -59.333 2.66699 -88 8s-55 16.166 -79 32.499s-36 36.833 -36 61.5c0 37.333 20 66.833 60 88.5s90.333 32.5 151 32.5c38 0 94.667 -8.33301 170 -25
v-2c0 -10 -3.16699 -22 -9.5 -36s-11.5 -21 -15.5 -21c-2.66699 0 -23.5 3.5 -62.5 10.5s-69.5 10.5 -91.5 10.5c-12 0 -24.333 -0.666992 -37 -2s-26.834 -3.5 -42.501 -6.5s-28.334 -8.33301 -38.001 -16s-14.5 -16.834 -14.5 -27.501c0 -27.333 34.667 -41 104 -41h28
c159.333 0 239 38.333 239 115c0 20.667 -8.66699 39 -26 55s-38.5 29.5 -63.5 40.5s-50 22.833 -75 35.5s-46.167 29.5 -63.5 50.5s-26 45.833 -26 74.5c0 45.333 18.333 89 55 131s80.5 74.667 131.5 98s99.5 35 145.5 35c28 0 52 -7.5 72 -22.5s30 -36.167 30 -63.5z" />
    <glyph glyph-name="T" unicode="T" horiz-adv-x="519" 
d="M634 663c0 -8 -4.33301 -16.333 -13 -25s-17 -15 -25 -19c-4 -2 -7.33301 -5 -10 -9s-5 -9.83301 -7 -17.5s-3.33301 -12.167 -4 -13.5l-46 -114l-56 -135.5l-48 -111.5c-20.667 -48 -38.667 -87.333 -54 -118s-30 -57 -44 -79c-6 -9.33301 -10.667 -16.333 -14 -21
s-8.5 -9.66699 -15.5 -15s-14.167 -8 -21.5 -8c-2.66699 0 -11.334 0.5 -26.001 1.5s-30.334 1.5 -47.001 1.5l44.5 66.5c14.333 22.333 28.5 46.333 42.5 72l36.5 66c10.333 18.333 22.333 42.5 36 72.5l31 66.5c7 14.333 17.667 38.666 32 72.999l28 67l29.5 72.5
c15.333 38 24.333 60.667 27 68l-75 -17c-3.33301 -0.666992 -17.166 -3.16699 -41.499 -7.5l-79 -14.5c-28.333 -5.33301 -57.333 -11.333 -87 -18s-54.167 -13.5 -73.5 -20.5s-29 -13.167 -29 -18.5c0 -10.667 7.16699 -21.167 21.5 -31.5s32.5 -20.5 54.5 -30.5
s35.667 -16.667 41 -20c0 -11.333 -5.16699 -21.833 -15.5 -31.5s-19.833 -14.5 -28.5 -14.5c-4.66699 0 -18 5.33301 -40 16s-44.667 26.5 -68 47.5s-35 42.167 -35 63.5c0 12.667 4.16699 24.5 12.5 35.5s21.5 20.833 39.5 29.5s35.833 16.334 53.5 23.001
s41 13.167 70 19.5l72.5 15.5c19.333 4 45.166 8.83301 77.499 14.5l70.5 12.5l98 19c4.66699 0.666992 11.834 4.66699 21.501 12s17.834 11 24.501 11c26 0 39 -12 39 -36z" />
    <glyph glyph-name="U" unicode="U" horiz-adv-x="611" 
d="M695 569c0 -8.66699 -8.33301 -26.6689 -25 -54.002c-25.333 -44.667 -44.833 -80.167 -58.5 -106.5l-58.5 -118.5c-25.333 -52.667 -44.5 -100.834 -57.5 -144.501s-19.5 -81.834 -19.5 -114.501c0 -16.667 -11 -26.667 -33 -30l-47 -7
c1.33301 88 26.333 183.333 75 286l16 34c-204 -210 -331 -315 -381 -315c-32 0 -48 13 -48 39c0 28 20.333 82.667 61 164l122 245c40.667 82 61 138 61 168c0 10.667 -4.33301 16 -13 16c-23.333 0 -49.666 -16.5 -78.999 -49.5s-54.333 -70.167 -75 -111.5
s-33.334 -75.666 -38.001 -102.999c-2.66699 -14.667 -10.5 -26.334 -23.5 -35.001s-25.167 -13 -36.5 -13c-6.66699 0 -12 3 -16 9s-6 13 -6 21c0 20.667 8.66699 50.334 26 89.001s39 77.334 65 116.001s56.333 72.334 91 101.001s66.667 43 96 43
c26 0 46.667 -6.83301 62 -20.5s23 -33.167 23 -58.5c0 -39.333 -34.833 -126.5 -104.5 -261.5s-111.167 -223.833 -124.5 -266.5c18.667 12.667 38 27.334 58 44.001s41.333 35.5 64 56.5l55.5 52.5l58.5 59l48 49l114 115c33.333 33.333 58.333 67 75 101
c9.33301 18 24.333 27 45 27c10.667 0 18 -1.83301 22 -5.5s6 -10.5 6 -20.5z" />
    <glyph glyph-name="V" unicode="V" horiz-adv-x="519" 
d="M608 595c0 -33.333 -15.002 -82.665 -45.002 -147.998s-67.333 -131.666 -112 -198.999s-97.334 -126 -158.001 -176s-117.667 -75 -171 -75c-68 0 -102 30.667 -102 92c0 30.667 19.667 84.667 59 162l118 227.5c39.333 74.333 59 122.5 59 144.5c0 6 -2 9 -6 9
c-16.667 0 -34.5 -11 -53.5 -33s-36.167 -48.333 -51.5 -79s-28.166 -58.834 -38.499 -84.501s-17.5 -45.834 -21.5 -60.501c-3.33301 -9.33301 -11.5 -19.333 -24.5 -30s-23.833 -16 -32.5 -16c-6.66699 0 -12 3 -16 9s-6 13 -6 21c0 10 4.33301 27.667 13 53
s21.334 54.333 38.001 87s35.167 64 55.5 94s43.666 55.167 69.999 75.5s52.166 30.5 77.499 30.5c22.667 0 39.334 -7.5 50.001 -22.5s16 -33.833 16 -56.5c0 -26 -19.667 -76.833 -59 -152.5l-118 -226.5c-39.333 -75.333 -59 -126 -59 -152
c0 -7.33301 3.16699 -13.333 9.5 -18s13.833 -7 22.5 -7c43.333 0 89 20.167 137 60.5s90.333 88.666 127 144.999s68.334 112.5 95.001 168.5s43.667 102 51 138c2 12 10.333 23.833 25 35.5s25.334 17.5 32.001 17.5c4.66699 0 9 -3 13 -9s6 -14.333 6 -25z" />
    <glyph glyph-name="W" unicode="W" horiz-adv-x="759" 
d="M857 630c0 -34 -14.8271 -85.8311 -44.4941 -155.498s-66.334 -140 -110.001 -211s-94.834 -133.167 -153.501 -186.5s-113 -80 -163 -80c-30 0 -54.167 7.66699 -72.5 23s-27.5 37 -27.5 65c0 24 37.333 108.333 112 253l-268 -280c-38.667 -40.667 -69 -61 -91 -61
c-12 0 -22.333 2.83301 -31 8.5s-13 14.167 -13 25.5c0 18 22 70.167 66 156.5l132 262.5c44 88.667 66 145 66 169c0 8.66699 -3.33301 13 -10 13c-30.667 0 -61.834 -27.833 -93.501 -83.5s-52.167 -109.5 -61.5 -161.5c0 -9.33301 -7.16699 -19.833 -21.5 -31.5
s-26.5 -17.5 -36.5 -17.5c-14.667 0 -22 10.333 -22 31c0 14.667 6.5 39.5 19.5 74.5s30 71.833 51 110.5s47.167 72.5 78.5 101.5s62.333 43.5 93 43.5c52.667 0 79 -27.667 79 -83c0 -20.667 -18 -68 -54 -142l-158 -329c130.667 130 255.667 261.667 375 395
c11.333 11.333 21 17 29 17c9.33301 0 18.166 -3.33301 26.499 -10s12.5 -14.667 12.5 -24c0 -6.66699 -34 -75.834 -102 -207.501s-102 -210.834 -102 -237.501c0 -9.33301 8 -14 24 -14h4c38.667 0 82.167 24.333 130.5 73s91 104.667 128 168s68.333 124.833 94 184.5
s38.5 101.5 38.5 125.5c0 11.333 1.5 20.666 4.5 27.999s7.66699 12.333 14 15s11.666 4.33398 15.999 5.00098s10.166 1 17.499 1c16 0 24 -11.333 24 -34z" />
    <glyph glyph-name="X" unicode="X" horiz-adv-x="481" 
d="M592 662c2 -12 3.00293 -22.6611 3.00293 -31.9941c0 -24.667 -10.333 -43.334 -31 -56.001c-29.333 -18 -74.5 -59.833 -135.5 -125.5s-91.5 -102.167 -91.5 -109.5c0 -112 12.333 -202.667 37 -272c2 -6.66699 4.66699 -13.667 8 -21s5.83301 -13 7.5 -17
s2.5 -6.66699 2.5 -8c0 -14 -14.667 -21 -44 -21c-14.667 0 -24.834 2.5 -30.501 7.5s-11.5 18.167 -17.5 39.5c-20 66 -32 136.667 -36 212l-48.5 -55l-55 -61.5c-11.667 -13 -27.834 -29.833 -48.501 -50.5s-40 -39 -58 -55l-16 -15.5c-7.33301 -7 -12.833 -12 -16.5 -15
s-9.33398 -6 -17.001 -9s-15.834 -4.5 -24.501 -4.5h-7l-83 6c42 28.667 82.5 60.167 121.5 94.5s69.667 63.166 92 86.499l85.5 93c0.666992 1.33301 7.83398 8.66602 21.501 21.999l38.5 39c12 12.667 18 20 18 22l-2 262c0 0.666992 1 2.66699 3 6s3 5.66602 3 6.99902
c0 0.666992 -0.333008 1 -1 1c-16 0 -52 -39 -108 -117c-8.66699 -12.667 -16.667 -19 -24 -19c-6 0 -12 6.66699 -18 20s-9 23 -9 29c0 7.33301 9.16699 23.166 27.5 47.499s41.5 48.166 69.5 71.499s52 35 72 35c18.667 0 33.5 -5.5 44.5 -16.5s16.5 -25.5 16.5 -43.5v-1
l-3 -191c44 57.333 99.333 114 166 170c38 30 67.333 45 88 45z" />
    <glyph glyph-name="Y" unicode="Y" horiz-adv-x="556" 
d="M625 558l-240.997 -541.003c-36.667 -81.333 -73 -148 -109 -200c-24.667 -35.333 -43 -56.666 -55 -63.999c-7.33301 -4 -14.333 -6 -21 -6c-17.333 0 -26 7.33301 -26 22c0 8.66699 6.33301 22.667 19 42c26 35.333 72.333 125 139 269l69 151
c-161.333 -159.333 -269.333 -239 -324 -239c-13.333 0 -24.333 1.83301 -33 5.5s-14.667 9.33398 -18 17.001s-5.5 14.167 -6.5 19.5s-1.5 12.333 -1.5 21c0 16.667 40.333 109.167 121 277.5s120.667 262.833 120 283.5v3v7c0 2.66699 -1.33301 4 -4 4
c-29.333 0 -60.833 -32 -94.5 -96s-52.834 -114.333 -57.501 -151c0 -2 -0.333008 -4 -1 -6s-1.33398 -3.83301 -2.00098 -5.5s-1.16699 -3.16699 -1.5 -4.5s-1.16602 -2.66602 -2.49902 -3.99902s-2.16602 -2.33301 -2.49902 -3s-1.5 -1.66699 -3.5 -3
s-3.33301 -2.33301 -4 -3s-2.33398 -1.83398 -5.00098 -3.50098s-4.33398 -2.83398 -5.00098 -3.50098c-12.667 -8.66699 -30.334 -16 -53.001 -22c0 40.667 11.333 90 34 148s53.5 110 92.5 156s77.833 69 116.5 69c46 0 69 -26.667 69 -80v-6
c-0.666992 -20 -41 -114.667 -121 -284s-120 -257.666 -120 -264.999l-1 -2c0 -0.666992 0.333008 -1 1 -1c12.667 0 56.167 32.833 130.5 98.5s135.5 123.5 183.5 173.5c36 38 61.5 68.833 76.5 92.5s36.5 64.834 64.5 123.501z" />
    <glyph glyph-name="Z" unicode="Z" horiz-adv-x="407" 
d="M444 576c0 -28 -8.00098 -56.167 -24.001 -84.5s-38.333 -55.666 -67 -81.999s-54.5 -48.166 -77.5 -65.499s-49.833 -36 -80.5 -56c42 -2 73.333 -13 94 -33s31 -52.333 31 -97c0 -48.667 -17.333 -104.334 -52 -167.001s-79.334 -117 -134.001 -163
s-106.667 -69 -156 -69c-32 0 -57.333 7.83301 -76 23.5s-28 39.167 -28 70.5c0 45.333 14.333 88.5 43 129.5s64.334 75.833 107.001 104.5c32 22 54.333 33 67 33c20 0 30 -11.333 30 -34c-14 -10 -27.667 -20.333 -41 -31s-32 -27.5 -56 -50.5s-43.333 -48 -58 -75
s-22 -53.167 -22 -78.5c0 -18.667 10.333 -28 31 -28c32 0 69.333 17.833 112 53.5s79.5 79.5 110.5 131.5s46.5 99.333 46.5 142c0 22 -4.5 38.833 -13.5 50.5s-19.833 19 -32.5 22s-25.5 5.5 -38.5 7.5s-24 7.16699 -33 15.5s-13.5 20.833 -13.5 37.5
c0 12.667 8.83301 27 26.5 43s38.834 32.5 63.501 49.5s49.5 35.333 74.5 55s46.333 42.667 64 69s26.5 53.166 26.5 80.499c0 34 -18 51 -54 51c-34 0 -70.167 -13.333 -108.5 -40s-73.166 -57 -104.499 -91c-10 -8.66699 -24.667 -13 -44 -13c0 29.333 5 54 15 74
c7.33301 14.667 27.666 35 60.999 61c64.667 51.333 126.334 77 185.001 77c41.333 0 72.666 -10.5 93.999 -31.5s32 -51.5 32 -91.5z" />
    <glyph glyph-name="bracketleft" unicode="[" horiz-adv-x="370" 
d="M461 697l-21 -60h-98l-290 -821h98l-16 -60h-168l331 941h164z" />
    <glyph glyph-name="backslash" unicode="\" horiz-adv-x="278" 
d="M327 -23h-76l-301 746h76zM251 -23h76h-76z" />
    <glyph glyph-name="bracketright" unicode="]" horiz-adv-x="370" 
d="M389 697l-331 -941h-164l21 60h98l290 821h-98l16 60h168z" />
    <glyph glyph-name="asciicircum" unicode="^" horiz-adv-x="600" 
d="M525 200h-79l-152 273l-149 -273h-79l199 363h60z" />
    <glyph glyph-name="underscore" unicode="_" horiz-adv-x="500" 
d="M515 -125h-530v50h530v-50z" />
    <glyph glyph-name="grave" unicode="`" horiz-adv-x="222" 
d="M235 421h-73l-163 132h105z" />
    <glyph glyph-name="a" unicode="a" horiz-adv-x="412" 
d="M415 142c0 -15.333 -31.6689 -43.502 -95.002 -84.502s-105.666 -61.5 -126.999 -61.5c-31.333 0 -47 12.333 -47 37c0 3.33301 0.333008 6 1 8c-32.667 -30 -63 -45 -91 -45c-38 0 -63.833 10.833 -77.5 32.5s-20.5 59.167 -20.5 112.5c0 37.333 18.833 73.333 56.5 108
s80.167 61.5 127.5 80.5s89 28.5 125 28.5c18 0 38.5 -3.5 61.5 -10.5s35.833 -15.833 38.5 -26.5v-2c0 -6 -3.83301 -14.167 -11.5 -24.5s-13.834 -15.5 -18.501 -15.5c-1.33301 0 -4.16602 1.83301 -8.49902 5.5s-12 7.33398 -23 11.001s-24.5 5.5 -40.5 5.5
c-45.333 0 -96.166 -18.5 -152.499 -55.5s-84.5 -75.5 -84.5 -115.5c0 -2.66699 -0.166992 -7 -0.5 -13s-0.5 -10.667 -0.5 -14c0 -28 9.33301 -42 28 -42c22.667 0 56.167 24.833 100.5 74.5s74.833 88.5 91.5 116.5c6 11.333 12 19 18 23s15.333 6 28 6
c3.33301 0 10.5 -2.16699 21.5 -6.5s16.5 -8.16602 16.5 -11.499c0 -2.66699 -31 -65 -93 -187c10 4 20 8.66699 30 14s20.833 12.333 32.5 21l25.5 19c5.33301 4 15.5 12.333 30.5 25s23.833 20 26.5 22h3c8.66699 0 15.667 -4.16699 21 -12.5s8 -15.833 8 -22.5z" />
    <glyph glyph-name="b" unicode="b" horiz-adv-x="373" 
d="M258 298c-3.33301 0 -7.83301 -5.16699 -13.5 -15.5s-10.834 -25 -15.501 -44s-7 -38.167 -7 -57.5c4.66699 5.33301 11.834 21.5 21.501 48.5s14.5 49.833 14.5 68.5zM378 149c0 -15.333 -15.832 -33.4941 -47.499 -54.4941s-62.5 -31.5 -92.5 -31.5
c-7.33301 0 -16.333 2 -27 6c-54 -48 -101 -72 -141 -72c-30 0 -51.667 5.16699 -65 15.5s-20 29.166 -20 56.499c0 19.333 2.66699 37 8 53c-11.333 -8.66699 -18 -13 -20 -13c-16 0 -24 10 -24 30c0 12 15.667 32.5 47 61.5s49.666 50.167 54.999 63.5l135 323
c0.666992 0.666992 2.5 4.66699 5.5 12l7 17l8 18.5c3.66699 8.33301 6.83398 15.166 9.50098 20.499s6.16699 11.666 10.5 18.999s8.33301 13.333 12 18s7.66699 9.16699 12 13.5s8.66602 7.66602 12.999 9.99902s8.5 3.5 12.5 3.5c18 0 27 -11.667 27 -35
c0 -22.667 -37.333 -114.334 -112 -275.001c-2.66699 -4.66699 -4.5 -8.16699 -5.5 -10.5s-2.5 -5.5 -4.5 -9.5s-3.66699 -7.66699 -5 -11c-80.667 -173.333 -121 -274.333 -121 -303c0 -12 6 -18 18 -18c21.333 0 49 15.333 83 46l3 3c2 1.33301 3.66699 2.66602 5 3.99902
c-8.66699 24 -13 46.667 -13 68c0 19.333 4.83301 43.833 14.5 73.5s24.167 57.334 43.5 83.001s40 38.5 62 38.5c35.333 0 53 -22.667 53 -68c0 -54.667 -22.667 -114.334 -68 -179.001c14.667 0.666992 29.5 6 44.5 16s27.5 19.833 37.5 29.5s16 14.5 18 14.5
c6 0 11.167 -4.83301 15.5 -14.5s6.5 -17.167 6.5 -22.5z" />
    <glyph glyph-name="c" unicode="c" horiz-adv-x="323" 
d="M322 144c0 -12.667 -5.66895 -23.3359 -17.002 -32.0029c-0.666992 -0.666992 -10 -8.16699 -28 -22.5s-29.833 -23.5 -35.5 -27.5s-17.667 -11.667 -36 -23s-33.666 -19.166 -45.999 -23.499s-28 -8.66602 -47 -12.999s-37.833 -6.5 -56.5 -6.5
c-34 0 -57.833 11.667 -71.5 35s-20.5 58.666 -20.5 105.999c0 31.333 15 64.833 45 100.5s64.333 64.667 103 87s71 33.5 97 33.5c24 0 44.5 -4.66699 61.5 -14s25.5 -24.666 25.5 -45.999c0 -7.33301 -7.66699 -26.5 -23 -57.5s-28.666 -46.5 -39.999 -46.5
c-25.333 0 -38 7.66699 -38 23v4c0.666992 6 6 17.667 16 35s15 29.333 15 36c0 6 -7 9 -21 9c-24 0 -59.167 -20 -105.5 -60s-69.5 -81.333 -69.5 -124c0 -20 3.5 -35 10.5 -45s20.5 -15 40.5 -15c25.333 0 55.333 9.83301 90 29.5s64.167 39.334 88.5 59.001
s36.833 29.5 37.5 29.5c7.33301 0 13.333 -3.83301 18 -11.5s7 -14.167 7 -19.5z" />
    <glyph glyph-name="d" unicode="d" 
d="M219 314c-35.333 0 -75.333 -19.668 -120 -59.001s-67 -83.333 -67 -132c0 -12 0.333008 -21.333 1 -28s3.5 -13.5 8.5 -20.5s12.5 -10.5 22.5 -10.5c24 0 56.333 20.333 97 61c5.33301 4.66699 9.5 9 12.5 13s5.5 8.33301 7.5 13s3.33301 8.16699 4 10.5
s1.66699 6.83301 3 13.5s2.33301 11.334 3 14.001zM396 582.999l-6 -8c-19.333 -35.333 -40.333 -82 -63 -140s-40 -110 -52 -156l2 3c20 37.333 42.333 86.5 67 147.5s42 112.167 52 153.5zM474 664.999c0 -49.333 -19.6709 -124.337 -59.0039 -225.004
s-76 -177.667 -110 -231l-55 -86l-4 -32c-1.33301 -6.66699 -2 -11.667 -2 -15c0 -5.33301 2.33301 -8 7 -8c2.66699 0 5.5 0.333008 8.5 1s6.33301 1.66699 10 3s7 2.83301 10 4.5s6.5 3.83398 10.5 6.50098l10.5 7l11.5 8l11 8l12 9c5.33301 4 9 7 11 9
c52 41.333 80.333 62 85 62c4 0 8.33301 -4.5 13 -13.5s7 -16.833 7 -23.5c0 -12.667 -11 -28 -33 -46c-85.333 -70.667 -147 -106 -185 -106c-32 0 -50.333 19.333 -55 58c-15.333 -12.667 -27.333 -22.167 -36 -28.5s-20.5 -12.833 -35.5 -19.5s-29.5 -10 -43.5 -10
c-38.667 0 -64.5 11 -77.5 33s-19.5 53 -19.5 93c0 44.667 6.83301 78 20.5 100s40.834 50 81.501 84c30 25.333 56.833 41.833 80.5 49.5s53.834 11.834 90.501 12.501c10.667 34.667 25.834 76.334 45.501 125.001s44.834 98.334 75.501 149.001s57 76 79 76
c23.333 0 35 -18 35 -54z" />
    <glyph glyph-name="e" unicode="e" horiz-adv-x="315" 
d="M210 292c0 6 -6.33203 9 -18.999 9c-22 0 -50.833 -14.167 -86.5 -42.5s-58.834 -54.833 -69.501 -79.5h10c42 0 80 11.5 114 34.5s51 49.167 51 78.5zM323.001 147c0 -15.333 -7.33496 -28 -22.002 -38c-2 -2 -9.5 -7.83301 -22.5 -17.5s-22.833 -16.667 -29.5 -21
l-30.5 -20.5c-13.667 -9.33301 -26 -16.5 -37 -21.5s-23.667 -10.333 -38 -16s-28.666 -9.83398 -42.999 -12.501s-28.833 -4 -43.5 -4c-40.667 0 -68.334 11.833 -83.001 35.5s-22 59.834 -22 108.501c0 30 14.5 62.333 43.5 97s63 63.5 102 86.5s72.833 34.5 101.5 34.5
c25.333 0 45.166 -5.5 59.499 -16.5s21.5 -26.167 21.5 -45.5c0 -47.333 -23 -88.166 -69 -122.499s-102 -51.5 -168 -51.5h-22v-7c0 -38.667 16 -58 48 -58c30.667 0 64.334 10 101.001 30s67.334 40 92.001 60s37.334 30 38.001 30c5.33301 0 10.5 -3.83301 15.5 -11.5
s7.5 -13.834 7.5 -18.501z" />
    <glyph glyph-name="f" unicode="f" horiz-adv-x="287" 
d="M302 684c0 -21.333 -18.0039 -79.001 -54.0039 -173.001l-119 -303c-43.333 -108 -70.333 -179.667 -81 -215c-2 -7.33301 -8.5 -25 -19.5 -53s-20.167 -54.833 -27.5 -80.5s-11 -47.834 -11 -66.501l-2 -3c14 0 36.667 34.667 68 104c10 22 17.333 41.667 22 59
s8.83398 38.833 12.501 64.5s7.5 47.5 11.5 65.5c28.667 12 56 26 82 42s45.333 29 58 39l19 15c6.66699 0 12.167 -3.5 16.5 -10.5s6.5 -13.5 6.5 -19.5c0 -8 -1.66699 -15.333 -5 -22s-6.83301 -11.667 -10.5 -15s-9.5 -8.33301 -17.5 -15
c-23.333 -18 -53.333 -36.667 -90 -56c-1.33301 -42.667 -10.666 -89 -27.999 -139s-40.666 -93.333 -69.999 -130s-58.666 -55 -87.999 -55c-36.667 0 -55 23 -55 69c0 50 37.667 171.333 113 364c-36.667 -34 -57.667 -51 -63 -51c-6 0 -11.333 4.16699 -16 12.5
s-7 15.5 -7 21.5c0 7.33301 5.83301 17.333 17.5 30s28.834 29.834 51.501 51.501s41.667 41.834 57 60.501c12 14 31.667 58.667 59 134s54.166 145.833 80.499 211.5s45.5 98.5 57.5 98.5c13.333 0 22 -2.66699 26 -8s6 -14.333 6 -27z" />
    <glyph glyph-name="g" unicode="g" horiz-adv-x="414" 
d="M414 141c0 -13.333 -16.3311 -34.167 -48.998 -62.5l-111 -92.5c-41.333 -33.333 -68.666 -60.333 -81.999 -81c-2.66699 -4 -12 -23.5 -28 -58.5s-32.5 -65.833 -49.5 -92.5s-31.5 -40 -43.5 -40c-25.333 0 -38 15.667 -38 47c0 30 7.16699 58 21.5 84s32 51.5 53 76.5
s34.833 45.167 41.5 60.5l26 58c-38.667 -37.333 -73 -56 -103 -56c-40 0 -66.667 13 -80 39s-20 62.333 -20 109c0 36 18.833 72.167 56.5 108.5s80.834 65 129.501 86s91 31.5 127 31.5c18 0 39.667 -5.66699 65 -17s38 -21.333 38 -30c0 -8 -2.83301 -17.833 -8.5 -29.5
s-12.834 -17.5 -21.501 -17.5c-2 0 -5.83301 3 -11.5 9s-14 11.833 -25 17.5s-23.833 8.5 -38.5 8.5c-28.667 0 -61.834 -8.83301 -99.501 -26.5s-70.667 -41.167 -99 -70.5s-42.5 -58 -42.5 -86v-17c0 -32 11.333 -48 34 -48c16.667 0 37.167 11 61.5 33
s46.666 46.167 66.999 72.5s40.833 50.5 61.5 72.5s36 33 46 33c5.33301 0 11.166 -3 17.499 -9s9.5 -11 9.5 -15v-1l-81 -188c82.667 66 131.334 108 146.001 126c9.33301 0 16.666 -4.16699 21.999 -12.5s8 -15.5 8 -21.5z" />
    <glyph glyph-name="h" unicode="h" horiz-adv-x="452" 
d="M463 162v-5.00391c0 -18 -6 -32.667 -18 -44c-19.333 -18 -53 -41.833 -101 -71.5s-81.667 -44.5 -101 -44.5c-15.333 0 -26.666 3.16699 -33.999 9.5s-11 17.166 -11 32.499c0 4.66699 6.5 20.667 19.5 48l47 97l38.5 80c-46 -35.333 -92 -75.666 -138 -120.999l-94 -93
c-37.333 -35.333 -61 -53 -71 -53c-7.33301 0 -14.833 2.83301 -22.5 8.5s-11.5 12.167 -11.5 19.5v2c1.33301 10 14.333 42 39 96l-21 -17c-16.667 0 -25 12.333 -25 37c0 6.66699 17.5 25.834 52.5 57.501s56.167 55.834 63.5 72.501l150 344c28.667 68 54 102 76 102
c9.33301 0 16.833 -3.16699 22.5 -9.5s8.5 -14.833 8.5 -25.5c0 -7.33301 -2.5 -18 -7.5 -32s-12.667 -32.333 -23 -55l-32 -68.5l-42.5 -88.5l-46 -99l-78 -170c51.333 48.667 103.333 94 156 136s89 63 109 63c26.667 0 40 -12 40 -36c0 -2 -7.66699 -19.667 -23 -53
l-54 -116l-42 -90c10 4.66699 23.167 12.834 39.5 24.501s31.166 22.834 44.499 33.501l39.5 32.5c13 11 20.167 16.833 21.5 17.5c2.66699 2 6 3 10 3c12.667 0 19 -8 19 -24z" />
    <glyph glyph-name="i" unicode="i" horiz-adv-x="222" 
d="M228 140c0 -10.667 -31.998 -37.332 -95.998 -79.999s-104.667 -64 -122 -64c-31.333 0 -47 12 -47 36c0 14 11.333 43.667 34 89c-15.333 -11.333 -24 -17 -26 -17c-6.66699 0 -12.667 2.83301 -18 8.5s-8 13.834 -8 24.501c0 6.66699 19.167 27.667 57.5 63
s58.833 56 61.5 62l46 94h81l-136 -278l-1 -2c12 7.33301 29 18.666 51 33.999l57 41l24 18c1.33301 1.33301 4.66602 3.16602 9.99902 5.49902s9.66602 3.5 12.999 3.5c4 0 8.16699 -4 12.5 -12s6.5 -16.667 6.5 -26zM216.002 454.002c0 -16 -4.66699 -30 -14 -42
s-22.333 -18 -39 -18c-24.667 0 -37 13.667 -37 41c0 14 5.16699 27.333 15.5 40s22.5 19 36.5 19c11.333 0 20.5 -4.16699 27.5 -12.5s10.5 -17.5 10.5 -27.5z" />
    <glyph glyph-name="j" unicode="j" horiz-adv-x="269" 
d="M269 148c0 -9.33301 -1.83105 -17.5 -5.49805 -24.5s-7.16699 -12.167 -10.5 -15.5s-10 -9 -20 -17l-102 -87c-50.667 -43.333 -80.667 -79.666 -90 -108.999c-8.66699 -26.667 -21.667 -61.5 -39 -104.5s-30 -67.167 -38 -72.5s-16.333 -8 -25 -8s-16.167 4 -22.5 12
s-9.5 16.667 -9.5 26c0 24 5.5 49.833 16.5 77.5s23.667 53.667 38 78s22.5 38.833 24.5 43.5l94 247c-66 -64.667 -102.333 -97.334 -109 -98.001h-1c-6.66699 0 -12.334 3.66699 -17.001 11s-7 14 -7 20c0 15.333 17.333 38 52 68c38.667 34.667 88 87.667 148 159h69
l-110 -295l90 80c27.333 23.333 42.666 35 45.999 35c18.667 0 28 -8.66699 28 -26zM244.002 453c0 -16 -4.66699 -30.168 -14 -42.501s-22.333 -18.5 -39 -18.5c-24.667 0 -37 14 -37 42c0 14.667 5.16699 28.334 15.5 41.001s22.5 19 36.5 19
c11.333 0 20.5 -4.16699 27.5 -12.5s10.5 -17.833 10.5 -28.5z" />
    <glyph glyph-name="k" unicode="k" horiz-adv-x="436" 
d="M448 156c0 -4.66699 -0.500977 -8.83594 -1.50098 -12.5029s-1.66699 -6.66699 -2 -9s-2.16602 -5.16602 -5.49902 -8.49902s-5.33301 -5.5 -6 -6.5s-3.5 -3.66699 -8.5 -8s-8.16699 -6.83301 -9.5 -7.5c-88.667 -71.333 -154.667 -107 -198 -107
c-60 0 -90 29.333 -90 88c0 16.667 1.66699 30.5 5 41.5s9.16602 19.667 17.499 26s16 10.833 23 13.5s17.833 6 32.5 10c24.667 6.66699 50.834 22.834 78.501 48.501s41.5 49.834 41.5 72.501c0 4 -2 6 -6 6c-27.333 0 -76.5 -39 -147.5 -117
s-118.833 -135.333 -143.5 -172c-7.33301 -12 -17.333 -18 -30 -18c-8.66699 0 -16.167 2.5 -22.5 7.5s-9.5 11.833 -9.5 20.5c0 8 14.333 40.667 43 98c-10 -8 -17.667 -12 -23 -12c-8 0 -14.333 3.16699 -19 9.5s-7 14.166 -7 23.499c0 5.33301 7.5 15.333 22.5 30l49 47
c17.667 16.667 28.834 28.667 33.501 36c9.33301 15.333 17.333 30.333 24 45c8.66699 19.333 41.167 88.333 97.5 207s87.833 182.667 94.5 192c10 12.667 22.333 19 37 19c18.667 0 28 -10.667 28 -32c0 -12 -6.33301 -33.667 -19 -65s-24.334 -57.333 -35.001 -78
c-54 -99.333 -87.333 -163.333 -100 -192l-44 -97c76.667 76.667 136.667 115 180 115c25.333 0 42.833 -6.16699 52.5 -18.5s14.5 -31.166 14.5 -56.499c0 -10.667 -2.33301 -22.667 -7 -36s-12.834 -28.833 -24.501 -46.5s-30.5 -35.5 -56.5 -53.5
s-57.667 -33.667 -95 -47c-0.666992 0 -1.83398 -0.333008 -3.50098 -1s-2.66699 -1.16699 -3 -1.5s-1.16602 -0.833008 -2.49902 -1.5s-2.16602 -1.66699 -2.49902 -3s-0.833008 -3 -1.5 -5s-1.16699 -4.33301 -1.5 -7s-0.5 -6 -0.5 -10c0 -15.333 7.66699 -23 23 -23
c16 0 39.333 9.66699 70 29s57 38 79 56s34 28.333 36 31c7.33301 6 14.333 9 21 9c7.33301 0 12.833 -3.33301 16.5 -10s5.5 -13 5.5 -19z" />
    <glyph glyph-name="l" unicode="l" horiz-adv-x="269" 
d="M78 70h-2c-0.666992 0 -1 -0.666992 -1 -2c0 -3.33301 0.666992 -5 2 -5v1c0 2 0.333008 4 1 6zM304 684c0 -15.333 -8.49805 -45.6699 -25.498 -91.0029s-39.667 -102.333 -68 -171s-49.833 -124 -64.5 -166l-18 -46l-31 -83c-10 -28 -16.333 -47 -19 -57
c12 1.33301 31.833 11.166 59.5 29.499s52.834 36.5 75.501 54.5s34.667 27 36 27c11.333 0 18.666 -1.66699 21.999 -5s5 -9.66602 5 -18.999c0 -14 -3.66699 -25.333 -11 -34c-13.333 -17.333 -46 -42.666 -98 -75.999s-91 -50 -117 -50c-35.333 0 -53 12 -53 36
c0 10.667 10.333 47.667 31 111c-27.333 -24.667 -43 -37 -47 -37c-4.66699 0 -9.66699 5 -15 15s-8 17.333 -8 22c0 6.66699 8.66699 18 26 34l56.5 53.5c20.333 19.667 33.166 36.834 38.499 51.501l146 391c5.33301 14.667 11.666 25.834 18.999 33.501s18 11.5 32 11.5
c8 0 14.667 -3.33301 20 -10s8 -15 8 -25z" />
    <glyph glyph-name="m" unicode="m" horiz-adv-x="620" 
d="M616 153c0 -17.333 -6.33301 -32.3311 -19 -44.998c-14.667 -14.667 -47 -37 -97 -67s-84.667 -45 -104 -45c-16 0 -27.5 2.83301 -34.5 8.5s-10.5 15.834 -10.5 30.501c0 12 18.333 51.667 55 119l44 86c-26 -22 -68.333 -63.167 -127 -123.5l-98 -100.5
c-16.667 -13.333 -29.667 -20 -39 -20c-12.667 0 -21.5 2.33301 -26.5 7s-7.5 12.667 -7.5 24c0 15.333 18.333 58.333 55 129l42 81c-21.333 -18.667 -53 -49.334 -95 -92.001l-108 -106.5c-30 -28.333 -49 -42.5 -57 -42.5c-7.33301 0 -14.833 2.83301 -22.5 8.5
s-11.5 12.167 -11.5 19.5v2c1.33301 10 14.333 40.667 39 92l-21 -16c-17.333 0 -26 11.667 -26 35c0 6 17.667 24.667 53 56s56.666 54.333 63.999 69c1.33301 3.33301 3.83301 8.66602 7.5 15.999s6.16699 12.5 7.5 15.5s3.5 7.33301 6.5 13s5.33301 9.83398 7 12.501
s4 6 7 10s5.83301 6.83301 8.5 8.5s5.66699 3.66699 9 6s6.83301 3.83301 10.5 4.5s7.5 1 11.5 1c22 0 33 -7.66699 33 -23c0 -2 -4 -12 -12 -30l-55 -109c115.333 112 188.333 168 219 168c14.667 0 24.834 -1.83301 30.501 -5.5s9.16699 -11.834 10.5 -24.501v-1
c0 -10 -22.667 -57.333 -68 -142c117.333 115.333 192 173 224 173c26.667 0 40 -12 40 -36c0 -6.66699 -19 -48 -57 -124l-61 -125c18 9.33301 44.167 27.166 78.5 53.499s54.833 42.833 61.5 49.5c0.666992 0.666992 3 1 7 1c17.333 0 26 -7 26 -21z" />
    <glyph glyph-name="n" unicode="n" horiz-adv-x="450" 
d="M450 155v-5.99902c0 -16 -6 -29.667 -18 -41c-19.333 -17.333 -53 -40.333 -101 -69s-81.667 -43 -101 -43c-30 0 -45 13.667 -45 41c0 6 7 23 21 51l50.5 97.5l37.5 71.5c-48 -35.333 -95.333 -75.333 -142 -120l-94 -90c-36 -34 -59.667 -51 -71 -51
c-7.33301 0 -14.833 2.83301 -22.5 8.5s-11.5 12.167 -11.5 19.5v2c1.33301 10 14.333 40.667 39 92l-21 -16c-16.667 0 -25 11.667 -25 35c0 6 17.5 24.667 52.5 56s56.167 54.333 63.5 69c19.333 40 33 64 41 72c10 10 21.667 15 35 15c21.333 -5.33301 32 -13 32 -23
c0 -2 -4 -12 -12 -30l-64 -129c51.333 46.667 102.833 89.667 154.5 129s87.167 59 106.5 59c26.667 0 40 -11.667 40 -35c0 -2.66699 -7.5 -19.5 -22.5 -50.5l-54.5 -112l-42 -85.5c18.667 9.33301 44.667 26.666 78 51.999s54.333 42.333 63 51c0.666992 0.666992 3 1 7 1
c17.333 0 26 -7 26 -21z" />
    <glyph glyph-name="o" unicode="o" horiz-adv-x="348" 
d="M213 254c-6.66699 0 -12.5 -7.83203 -17.5 -23.499s-7.5 -30.5 -7.5 -44.5c0 -4.66699 0.333008 -8.33398 1 -11.001c16 34.667 24 61 24 79zM339 147.001c0 -17.333 -10.668 -32.9941 -32.001 -46.9941c-28 -20 -57.667 -30 -89 -30c-8.66699 0 -17 1 -25 3
c-20 -20.667 -43.667 -38.667 -71 -54s-53.333 -23 -78 -23c-20.667 0 -37.667 4 -51 12s-22.833 19.667 -28.5 35s-9.5 30.333 -11.5 45s-3 32.667 -3 54c0 29.333 8.83301 58.666 26.5 87.999s38.667 53.833 63 73.5s49 35.667 74 48s45.167 18.5 60.5 18.5
c12.667 0 21.5 -2.33301 26.5 -7s7.5 -12.334 7.5 -23.001c0 -9.33301 -3.83301 -16.5 -11.5 -21.5s-24.834 -12.167 -51.501 -21.5c-31.333 -10.667 -60 -31.834 -86 -63.501s-39 -64.5 -39 -98.5v-6c0 -16 0.5 -28.167 1.5 -36.5s4.5 -16.166 10.5 -23.499
s14.667 -11 26 -11c26.667 0 54.334 17.333 83.001 52c-12.667 17.333 -19 38 -19 62c0 33.333 10.333 66.666 31 99.999s45 50 73 50c16.667 0 29 -6.16699 37 -18.5s12 -26.833 12 -43.5c0 -44.667 -12.667 -87.334 -38 -128.001
c8.66699 1.33301 17.334 4.66602 26.001 9.99902s18.5 12.333 29.5 21s20.167 15 27.5 19c12.667 -8.66699 19 -20.334 19 -35.001z" />
    <glyph glyph-name="p" unicode="p" horiz-adv-x="478" 
d="M309 267c0 18.667 -6.99902 27.999 -20.999 27.999c-26.667 0 -61 -24.333 -103 -73s-72.333 -94 -91 -136c-5.33301 -10 -10.333 -22 -15 -36c15.333 8 31.666 12 48.999 12c3.33301 0 8.16602 -0.5 14.499 -1.5s10.833 -1.5 13.5 -1.5h6c12.667 0 21.334 3 26.001 9
l18 18.5c10.667 11 17 17.667 19 20l17 19c9.33301 10.333 15.5 17.666 18.5 21.999l15 21c7 9.66699 11.833 17.667 14.5 24l9.5 22.5c3.66699 8.66699 6.16699 17.334 7.5 26.001s2 17.334 2 26.001zM474.001 139.999c0 -15.333 -16.0029 -36.334 -48.0029 -63.001
c-29.333 -22.667 -63.166 -40.667 -101.499 -54s-76.166 -20 -113.499 -20c-2.66699 0 -8.66699 -2 -18 -6c-14.667 -8.66699 -30.667 -13 -48 -13c-16.667 0 -32.334 3.33301 -47.001 10s-24 15.667 -28 27c-26 -82.667 -44.333 -161.667 -55 -237
c-1.33301 -12 -7.33301 -26.667 -18 -44s-22 -26 -34 -26c-10 0 -17.167 5.33301 -21.5 16s-6.5 21 -6.5 31c0 33.333 11.667 91 35 173s47 154.333 71 217c-39.333 -36.667 -61.333 -55 -66 -55c-18 0 -27 10 -27 30c0 15.333 8.66699 30 26 44
c80.667 65.333 128 116 142 152c4.66699 12 9.33398 19.5 14.001 22.5s13.334 4.5 26.001 4.5c13.333 0 26 -3.66699 38 -11l-10 -31c40 34 74.667 51 104 51c34.667 0 59.5 -7.5 74.5 -22.5s22.5 -38.5 22.5 -70.5c0 -60 -29.667 -122.667 -89 -188
c22 6 44.833 16.833 68.5 32.5s42.5 29.667 56.5 42s21.333 18.5 22 18.5c6 0 12.667 -3.66699 20 -11s11 -13.666 11 -18.999z" />
    <glyph glyph-name="q" unicode="q" horiz-adv-x="407" 
d="M214 28c-71.333 -134.667 -111 -216 -119 -244c24 6 48.5 37.167 73.5 93.5s40.167 106.5 45.5 150.5zM416 144c0 -20 -12.6631 -39 -37.9961 -57l-103 -74c-2 -1.33301 -3.33301 -4 -4 -8s-1.5 -11.833 -2.5 -23.5s-2.5 -23.834 -4.5 -36.501
c-10 -53.333 -34 -105.833 -72 -157.5s-76.667 -77.5 -116 -77.5c-18.667 0 -32.167 4.33301 -40.5 13s-12.5 22.667 -12.5 42c0 18.667 4.66699 37.334 14 56.001l106 211c-38 -32 -68.333 -48 -91 -48c-40 0 -66.667 13 -80 39s-20 62.333 -20 109
c0 37.333 18.833 74 56.5 110s80.667 64.333 129 85s90.833 31 127.5 31c18 0 39.667 -5.66699 65 -17s38 -21.333 38 -30c0 -8 -2.83301 -17.833 -8.5 -29.5s-12.834 -17.5 -21.501 -17.5c-2 0 -5.83301 3 -11.5 9s-14 11.833 -25 17.5s-23.833 8.5 -38.5 8.5
c-46.667 0 -98.5 -19.833 -155.5 -59.5s-85.5 -80.834 -85.5 -123.501v-17c0 -32 11.333 -48 34 -48c16.667 0 37.167 11 61.5 33s46.666 46.167 66.999 72.5s40.833 50.5 61.5 72.5s36 33 46 33c5.33301 0 11.166 -3 17.499 -9s9.5 -11 9.5 -15v-1
c-8 -20.667 -37.667 -80 -89 -178c104 74.667 158 112 162 112c7.33301 0 13.166 -3.16699 17.499 -9.5s6.5 -12.166 6.5 -17.499z" />
    <glyph glyph-name="r" unicode="r" horiz-adv-x="333" 
d="M341 148c0 -12.667 -4.33594 -23.335 -13.0029 -32.002c-13.333 -13.333 -44.666 -36.666 -93.999 -69.999s-85 -50 -107 -50c-18 0 -30.833 2.16699 -38.5 6.5s-11.5 14.833 -11.5 31.5c0 9.33301 17.833 51.166 53.5 125.499s53.5 115.5 53.5 123.5
c0 4.66699 -4.33301 7 -13 7h-5c-7.33301 0 -17 -0.666992 -29 -2c-30.667 -54.667 -74.667 -109 -132 -163c-17.333 -14.667 -28.333 -22 -33 -22c-5.33301 0 -10.666 5.33301 -15.999 16s-8 18.334 -8 23.001c0 4 2 9.33301 6 16s8.33301 11.667 13 15
c12 8 31.333 27.667 58 59s45 57.333 55 78c-8.66699 10.667 -13 24 -13 40c0 14 4.33301 25.667 13 35s20.334 14 35.001 14c16.667 0 27.667 -4 33 -12s9 -20 11 -36c5.33301 0.666992 13 1 23 1c28.667 0 48.834 -4.5 60.501 -13.5s17.5 -25.833 17.5 -50.5
c0 -10 -6.5 -29.5 -19.5 -58.5s-27.833 -59.833 -44.5 -92.5s-27 -54.667 -31 -66c10.667 5.33301 26.5 15.833 47.5 31.5l59 45.5c18.333 14.667 28.166 22.334 29.499 23.001c6 6 12.667 9 20 9c4.66699 0 9.16699 -3.66699 13.5 -11s6.5 -14.333 6.5 -21z" />
    <glyph glyph-name="s" unicode="s" horiz-adv-x="348" 
d="M348 137c0 -6.66699 -13.166 -19.668 -39.499 -39.001s-57.166 -37.833 -92.499 -55.5s-63 -26.5 -83 -26.5c-1.33301 0 -6.33301 -1.66699 -15 -5s-19.167 -6.66602 -31.5 -9.99902s-23.833 -5 -34.5 -5c-16 0 -33.833 3.83301 -53.5 11.5s-29.5 18.167 -29.5 31.5
c0 6.66699 2.5 12.667 7.5 18s11.5 8.66602 19.5 9.99902c5.33301 0 15.666 -0.833008 30.999 -2.5s27.666 -2.5 36.999 -2.5c12 0 22.333 1.83301 31 5.5s16 9.5 22 17.5s10.833 15.833 14.5 23.5s6.66699 18.334 9 32.001s4 25.167 5 34.5s2.16699 22.333 3.5 39l3 37
l-104.5 -94c-39 -34 -60.833 -51 -65.5 -51c-6 0 -11.167 3.83301 -15.5 11.5s-6.5 14.834 -6.5 21.501v2c0 8 0.666992 13.333 2 16s5.33301 6.66699 12 12c75.333 62 141 125.667 197 191c2.66699 3.33301 6.5 12.833 11.5 28.5s11.833 29.334 20.5 41.001
s20.667 17.5 36 17.5c10.667 0 19.334 -3.83301 26.001 -11.5s10 -15.834 10 -24.501c0 -8 -3.33301 -17.5 -10 -28.5s-13.834 -21 -21.501 -30s-11.834 -14.167 -12.501 -15.5c-2.66699 -7.33301 -4 -26.333 -4 -57c-0.666992 -4 -2 -19.167 -4 -45.5
s-3.66699 -44.333 -5 -54s-4 -23.334 -8 -41.001s-8.66699 -32.5 -14 -44.5c22 9.33301 43.333 21.5 64 36.5s36.334 27.5 47.001 37.5l16 15c5.33301 0 10.833 -4.16699 16.5 -12.5s8.5 -19.833 8.5 -34.5z" />
    <glyph glyph-name="t" unicode="t" horiz-adv-x="249" 
d="M297 629c0 -11.333 -3.83008 -27.001 -11.4971 -47.001s-17.667 -42.833 -30 -68.5s-20.5 -44.167 -24.5 -55.5h43c12.667 0 19 -8.33301 19 -25c0 -11.333 -3.5 -20.5 -10.5 -27.5s-17.167 -10.5 -30.5 -10.5h-45l-46 -102l-66.5 -151
c-18.333 -42.667 -27.5 -67.334 -27.5 -74.001c0 1.33301 0.333008 2 1 2c15.333 0 42.166 14.333 80.499 43s63.166 49.334 74.499 62.001c8 6.66699 16.333 10 25 10c4 0 8.16699 -3.5 12.5 -10.5s6.5 -12.833 6.5 -17.5c0 -8 -1.5 -15.167 -4.5 -21.5
s-6.33301 -11.333 -10 -15s-9.16699 -8.5 -16.5 -14.5c-25.333 -22.667 -59.5 -46.5 -102.5 -71.5s-77.167 -37.5 -102.5 -37.5c-32 0 -48 11.667 -48 35c0 21.333 13.667 60 41 116l-33 -31c-8 -6 -17.667 -9 -29 -9c-8.66699 8 -13 21.333 -13 40
c0 4 21.5 26.833 64.5 68.5s67.167 68.834 72.5 81.501l41 97h-39c-25.333 0 -38 9.66699 -38 29c0 8 3.16699 15.667 9.5 23s14.166 11 23.499 11h73c0.666992 2 3 8.16699 7 18.5l10 26c2.66699 7 6.5 16.5 11.5 28.5s9.5 22.333 13.5 31l13.5 29.5
c5 11 9.83301 20.167 14.5 27.5l14 21.5c4.66699 7 9.16699 12.167 13.5 15.5s8.5 5 12.5 5c20.667 0 31 -10.667 31 -32z" />
    <glyph glyph-name="u" unicode="u" 
d="M452 157l0.000976562 -4.99805c0 -17.333 -6 -31.333 -18 -42c-20 -18 -53.833 -41.5 -101.5 -70.5s-81.167 -43.5 -100.5 -43.5c-33.333 0 -50 12 -50 36c0 12 19.333 54.333 58 127c-122.667 -108.667 -204 -163 -244 -163c-11.333 0 -20.833 3 -28.5 9
s-11.5 12.333 -11.5 19v2c2 14 14.333 43.667 37 89l-19 -13c-16.667 0 -25 11.667 -25 35c0 8 17.667 27.333 53 58s57 53.667 65 69c8.66699 17.333 19.667 36 33 56s22.333 30 27 30c7.33301 0 17.166 -2 29.499 -6s18.5 -7.33301 18.5 -10c0 -10 -2 -18 -6 -24
c-4 -5.33301 -21.833 -38.333 -53.5 -99s-52.834 -102.334 -63.501 -125.001c22.667 13.333 58.834 41.666 108.501 84.999s98.5 90.333 146.5 141c22.667 25.333 38 38 46 38c16 0 33.667 -1.66699 53 -5c-8 -24 -16 -43.667 -24 -59l-111 -216
c16.667 6.66699 43 23.5 79 50.5s59 45.5 69 55.5c1.33301 1.33301 4 2 8 2c16.667 0 25 -7 25 -21z" />
    <glyph glyph-name="v" unicode="v" horiz-adv-x="413" 
d="M415 150c0 -20.667 -15.334 -40.0039 -46.001 -58.0039c-28 -17.333 -53.667 -26 -77 -26c-31.333 0 -52.666 8.33301 -63.999 25c-59.333 -63.333 -117 -95 -173 -95c-50.667 0 -76 20.667 -76 62c0 16 4.66699 36 14 60l-21 -15c-6.66699 0 -12.167 3.5 -16.5 10.5
s-6.5 14.5 -6.5 22.5c0 13.333 5.66699 24 17 32c60 47.333 96.333 86 109 116c3.33301 6.66699 11.333 19.334 24 38.001s21 28 25 28c18 0 36.333 -2.66699 55 -8c-4.66699 -15.333 -23.5 -56.166 -56.5 -122.499s-54.167 -107.833 -63.5 -124.5
c-6.66699 -13.333 -10 -24.666 -10 -33.999c0 -2.66699 3.33301 -4 10 -4c26.667 0 57 15.833 91 47.5s52 52.834 54 63.501c4 33.333 18.5 71.833 43.5 115.5s47.167 65.5 66.5 65.5c9.33301 0 15.833 -2.33301 19.5 -7s5.5 -12.667 5.5 -24
c0 -22 -5.5 -45.167 -16.5 -69.5s-21.833 -45.5 -32.5 -63.5s-16 -29.667 -16 -35c0 -16 7.66699 -24 23 -24c21.333 0 45.333 13.333 72 40c8 8 16.667 12 26 12c5.33301 0 10 -3.16699 14 -9.5s6 -12.5 6 -18.5z" />
    <glyph glyph-name="w" unicode="w" horiz-adv-x="584" 
d="M580 150c0 -19.333 -14.833 -38.3369 -44.5 -57.0039s-55.834 -28 -78.501 -28c-31.333 0 -52.666 8.33301 -63.999 25c-58.667 -62.667 -116.334 -94 -173.001 -94c-33.333 0 -50 18 -50 54c0 15.333 4 34.333 12 57c-70.667 -74 -123.667 -111 -159 -111
c-15.333 0 -28.5 3.66699 -39.5 11s-16.5 18.333 -16.5 33c0 13.333 8 38 24 74c-11.333 -7.33301 -18.333 -11 -21 -11c-6 0 -11.5 4 -16.5 12s-7.5 15.667 -7.5 23c0 10 8.33301 22 25 36c52.667 44.667 82 73.334 88 86.001c9.33301 19.333 21 39.5 35 60.5
s23 31.5 27 31.5c18.667 0 37 -3.33301 55 -10c-4 -9.33301 -17.333 -36.666 -40 -81.999l-61 -124.5c-18 -37.667 -28.333 -61.5 -31 -71.5c20.667 10 54 41 100 93s82.333 97 109 135c12.667 18 27 27 43 27c10 0 17.5 -3.33301 22.5 -10s7.5 -14.667 7.5 -24
c0 -6.66699 -14.333 -43.167 -43 -109.5s-43 -105.5 -43 -117.5c0.666992 2 1.33398 3 2.00098 3c20 0 45.833 15.333 77.5 46s48.167 50.667 49.5 60c4 35.333 17.667 74.5 41 117.5s46.333 64.5 69 64.5c16.667 0 25 -10.667 25 -32
c0 -29.333 -10.833 -63.666 -32.5 -102.999s-32.5 -61 -32.5 -65c0 -15.333 7.66699 -23 23 -23c22 0 46 13 72 39c8 8 16.667 12 26 12c5.33301 0 10 -3.16699 14 -9.5s6 -12.166 6 -17.499z" />
    <glyph glyph-name="x" unicode="x" horiz-adv-x="420" 
d="M424 146c0 -4.66699 -0.167969 -8.49902 -0.500977 -11.499s-1.5 -6 -3.5 -9s-3.5 -5 -4.5 -6s-3.66699 -3.33301 -8 -7s-7.16602 -6.16699 -8.49902 -7.5c-20.667 -19.333 -53.334 -42.333 -98.001 -69s-77.667 -40 -99 -40c-19.333 0 -32.166 4.16699 -38.499 12.5
s-9.5 20.833 -9.5 37.5v10l2 53l-111 -107h-91l128 127c1.33301 1.33301 5.5 5 12.5 11l21 18.5l22 19.5c7.66699 6.66699 14 12.667 19 18s7.5 8.66602 7.5 9.99902l6 76c-10.667 -8.66699 -31 -28.167 -61 -58.5l-83 -82.5c-25.333 -24.667 -40.333 -37 -45 -37
c-6.66699 0 -12.167 3.33301 -16.5 10s-6.5 12.667 -6.5 18c0 12 6.33301 24.333 19 37l175 172c12.667 11.333 28 17 46 17c16.667 0 28 -4 34 -12s9 -20 9 -36v-5l-1 -35l79 78h94l-160 -156c-14 -10 -21.333 -17 -22 -21l-7 -92v-5c0 -7.33301 2.33301 -11 7 -11
c12.667 3.33301 36.667 17.5 72 42.5s61.666 45.5 78.999 61.5c6.66699 6.66699 13.334 10 20.001 10c5.33301 0 10.333 -4 15 -12s7 -14.333 7 -19z" />
    <glyph glyph-name="y" unicode="y" horiz-adv-x="425" 
d="M423 137c0 -8 -2.16797 -15.5039 -6.50098 -22.5039s-7.83301 -11.5 -10.5 -13.5c-136.667 -102 -214.667 -168 -234 -198c-1.33301 -2 -2.83301 -4.66699 -4.5 -8s-3.5 -6.33301 -5.5 -9l-55 -114c-10 -20.667 -19.167 -35.334 -27.5 -44.001s-19.833 -13 -34.5 -13
c-16 0 -26.333 3.5 -31 10.5s-7 18.167 -7 33.5c0 25.333 13.333 60 40 104s51.667 77.333 75 100c4.66699 4.66699 32 62 82 172c-105.333 -100.667 -179.666 -151 -222.999 -151c-20.667 0 -31 11 -31 33c0 14.667 12.333 46 37 94c-15.333 -11.333 -24 -17 -26 -17
c-6.66699 0 -12.5 4.16699 -17.5 12.5s-7.5 15.5 -7.5 21.5c0 4.66699 5.66699 13 17 25l48.5 49c21 20.667 38.833 39.334 53.5 56.001c6 6.66699 14.333 21.167 25 43.5s19.334 37.833 26.001 46.5h66c-2.66699 -16 -10.334 -37.333 -23.001 -64l-85 -175
c-0.666992 -1.33301 -3 -5.66602 -7 -12.999s-6.66699 -12.666 -8 -15.999c26.667 18.667 71.334 59.834 134.001 123.501s102 106.834 118 129.501c7.33301 10 16.666 15 27.999 15c24 0 39.333 -7.33301 46 -22l-131 -273l120 95c18.667 15.333 31.667 23 39 23
c4.66699 0 9.16699 -4 13.5 -12s6.5 -15.333 6.5 -22z" />
    <glyph glyph-name="z" unicode="z" horiz-adv-x="368" 
d="M79 -126c-58 -50.667 -87 -84 -87 -100v-1c11.333 0 25.333 10.333 42 31s31.667 44 45 70zM365 147c0 -6.66699 -0.664062 -12.6699 -1.99707 -18.0029s-3.83301 -10.333 -7.5 -15s-6.33398 -8.16699 -8.00098 -10.5s-5.33398 -5.83301 -11.001 -10.5
s-9.16699 -7.33398 -10.5 -8.00098c-4 -4 -15.333 -14.167 -34 -30.5l-48.5 -43.5c-13.667 -12.667 -27.5 -26.667 -41.5 -42s-22.667 -27 -26 -35c-6.66699 -18 -16.5 -38.5 -29.5 -61.5s-28.333 -47.167 -46 -72.5s-37.167 -46.666 -58.5 -63.999s-41.666 -26 -60.999 -26
c-36.667 0 -55 17.667 -55 53c0 22 16 50.833 48 86.5s64.833 68.167 98.5 97.5s51.167 45.333 52.5 48c12.667 34.667 19 60 19 76c0 0.666992 0.5 3.83398 1.5 9.50098s1.5 9.5 1.5 11.5c0 3.33301 -0.666992 5 -2 5c-5.33301 0 -13.5 -3 -24.5 -9s-20.833 -9 -29.5 -9
c-29.333 0 -44 13 -44 39c0 17.333 9.16699 29.333 27.5 36s38.166 10 59.499 10c16.667 0 38.167 13.167 64.5 39.5s39.5 48.833 39.5 67.5c0 14 -7 21 -21 21c-24.667 0 -54.5 -16.333 -89.5 -49s-66.667 -65.334 -95 -98.001s-46.5 -49 -54.5 -49
c-5.33301 0 -11.5 3.83301 -18.5 11.5s-10.5 15.834 -10.5 24.501c0 6.66699 9.66699 21.334 29 44.001c19.333 18 42.666 41.333 69.999 70s47.5 49.167 60.5 61.5s29.167 23.833 48.5 34.5s39 16 59 16c26.667 0 48.667 -7.66699 66 -23s26 -35.666 26 -60.999
c0 -44.667 -33.333 -91.334 -100 -140.001h-4h-4c-3.33301 0 -5 -0.666992 -5 -2c0 -0.666992 1.5 -3.16699 4.5 -7.5s6.16699 -11.166 9.5 -20.499s5 -20 5 -32v-7l99 89c16 12 26.333 18 31 18c6 0 11 -3 15 -9s6 -11.333 6 -16z" />
    <glyph glyph-name="braceleft" unicode="{" horiz-adv-x="333" 
d="M424 698l-20.999 -59.999h-44c-10 0 -26.333 -32.667 -49 -98l-55 -159c-11.333 -32.667 -25.333 -62.334 -42 -89.001s-29.5 -44.5 -38.5 -53.5s-15.5 -14.833 -19.5 -17.5v10c9.33301 -9.33301 14 -30.333 14 -63c0 -28 -7.33301 -62.333 -22 -103l-61 -174
c-8 -24 -12 -44.667 -12 -62c0 -1.33301 -0.666992 -3 -2 -5l-3 -4h1h54l-24 -60h-44c-14 0 -25.667 5.16699 -35 15.5s-14 26.166 -14 47.499c0 18.667 5.66699 44.334 17 77.001l55 158c18.667 53.333 28 91.333 28 114v3c0 12.667 -9.66699 19 -29 19l22 68
c14.667 0 28.667 8 42 24s23.666 32.667 30.999 50s16.333 41 27 71l55 160c14 40.667 31.333 72.667 52 96s41.667 35 63 35h54z" />
    <glyph glyph-name="bar" unicode="|" horiz-adv-x="222" 
d="M143 1h-64v718h64v-718z" />
    <glyph glyph-name="braceright" unicode="}" horiz-adv-x="333" 
d="M349 635c0 -17.333 -5.66797 -43.002 -17.001 -77.002l-55 -159c-18.667 -52 -28 -89.667 -28 -113v-3c0 -4 0.5 -7.16699 1.5 -9.5s3.66699 -4.5 8 -6.5s10.833 -3 19.5 -3l-22 -68c-14.667 0 -28.667 -8 -42 -24s-23.666 -32.667 -30.999 -50s-16.333 -41 -27 -71
l-55 -160c-14 -40.667 -31.333 -72.667 -52 -96s-41.667 -35 -63 -35h-54l21 60h44c10 0 26.333 32.667 49 98l55 159c11.333 32.667 25.333 62.334 42 89.001s29.5 44.5 38.5 53.5s15.5 14.833 19.5 17.5v-10c-9.33301 9.33301 -14 30.333 -14 63
c0 28 7.33301 62.333 22 103l61 174c8 24 12 44.667 12 62c0 1.33301 0.666992 3 2 5l3 4h-1h-54l24 60h44c14 0 25.667 -5.16699 35 -15.5s14 -26.166 14 -47.499z" />
    <glyph glyph-name="asciitilde" unicode="~" horiz-adv-x="600" 
d="M551 200c-24 -24.667 -46.5 -43.167 -67.5 -55.5s-46.833 -18.5 -77.5 -18.5s-67 8.33301 -109 25c-38 15.333 -74 23 -108 23c-17.333 0 -31.666 -4.66699 -42.999 -14s-23.333 -24.333 -36 -45l-59 42c36 49.333 83.667 74 143 74c24.667 0 63.667 -8 117 -24
c50.667 -16 82.667 -24 96 -24c11.333 0 22.166 3 32.499 9s18.333 11.833 24 17.5s15.5 16.167 29.5 31.5z" />
    <glyph glyph-name="sterling" unicode="&#xa3;" 
d="M478 474c0 -20 -7.33789 -48.002 -22.0049 -84.002c-10.667 -26 -18.667 -41.333 -24 -46c-9.33301 -7.33301 -34.666 -14.333 -75.999 -21c4.66699 14 12.167 32.667 22.5 56s17.833 42.5 22.5 57.5s7 29.5 7 43.5c0 14.667 -7 22 -21 22
c-10.667 0 -21.167 -2.66699 -31.5 -8s-19.666 -13.5 -27.999 -24.5s-16 -22 -23 -33s-13.833 -25 -20.5 -42l-16.5 -42.5c-4.33301 -11.333 -9.33301 -25.666 -15 -42.999l-11.5 -35h97l-15 -62h-107c-1.33301 -3.33301 -4.83301 -11 -10.5 -23s-9.5 -20.333 -11.5 -25
s-5.66699 -12.167 -11 -22.5s-9.83301 -18.333 -13.5 -24l-13.5 -20.5c-5.33301 -8 -10.666 -15 -15.999 -21s-11 -11.667 -17 -17c12.667 -0.666992 33.667 -1 63 -1c30 0 63.833 2.66699 101.5 8s60.834 8 69.501 8s15.334 -3 20.001 -9s7 -12.667 7 -20
s-2.66699 -14.333 -8 -21s-12 -10.667 -20 -12c-14.667 -3.33301 -43.5 -6.66602 -86.5 -9.99902s-74.5 -5 -94.5 -5c-49.333 0 -91 5.66699 -125 17c-30 -11.333 -55.667 -17 -77 -17c-14.667 0 -29.5 3.33301 -44.5 10s-22.5 17 -22.5 31s9.66699 24.833 29 32.5
s37 11.5 53 11.5l29 -1c2.66699 0 6 -0.5 10 -1.5s7 -1.5 9 -1.5h4c22.667 12 41.5 29 56.5 51s29.833 49.667 44.5 83h-76l12 62h90c31.333 88 57.666 150 78.999 186c42.667 71.333 91.334 107 146.001 107c57.333 0 86 -31 86 -93z" />
    <glyph glyph-name="currency" unicode="&#xa4;" 
d="M387 224c0 42 -16.1689 77.5 -48.502 106.5s-71.166 43.5 -116.499 43.5c-46 0 -85.167 -14.5 -117.5 -43.5s-48.5 -64.5 -48.5 -106.5c0 -40.667 16.333 -75.5 49 -104.5s71.667 -43.5 117 -43.5c44.667 0 83.334 14.5 116.001 43.5s49 63.833 49 104.5zM468.998 399
l-51 -48c29.333 -34.667 44 -77 44 -127c0 -46.667 -14.333 -88 -43 -124l49 -47l-55 -52l-49 49c-40 -28.667 -87.333 -43 -142 -43c-55.333 0 -103 14 -143 42l-48 -48l-56 52l50 48c-29.333 37.333 -44 78.333 -44 123c0 50.667 15 92.667 45 126l-52 49l56 50l53 -46
c38.667 26.667 84.667 40 138 40s100.333 -13.333 141 -40l52 46z" />
    <glyph glyph-name="section" unicode="&#xa7;" horiz-adv-x="556" 
d="M397 289c0 26.667 -20.833 60.833 -62.5 102.5s-77.5 62.5 -107.5 62.5c-22 0 -40.5 -6 -55.5 -18s-22.5 -28.667 -22.5 -50c0 -26.667 20.833 -60.667 62.5 -102s77.5 -62 107.5 -62c22 0 40.5 6 55.5 18s22.5 28.333 22.5 49zM551 583.999l-56.0049 -26.9971
c-32 70.667 -81 106 -147 106c-24.667 0 -45 -6.5 -61 -19.5s-24 -30.833 -24 -53.5c0 -20 6.83301 -40.167 20.5 -60.5s30.334 -39.333 50.001 -57l59 -53.5c19.667 -18 36.334 -38.167 50.001 -60.5s20.5 -45.5 20.5 -69.5c0 -21.333 -4.66699 -40.333 -14 -57
s-21.166 -29.334 -35.499 -38.001s-27.666 -15.167 -39.999 -19.5s-23.833 -6.83301 -34.5 -7.5c16 -32 24 -57.667 24 -77c0 -41.333 -16 -74.833 -48 -100.5s-69.667 -38.5 -113 -38.5c-41.333 0 -76.166 8.33301 -104.499 25s-61.833 45 -100.5 85l51 41
c44 -60.667 89 -91 135 -91c28.667 0 54.167 5.83301 76.5 17.5s33.5 30.167 33.5 55.5c0 21.333 -11 45 -33 71s-46 49.667 -72 71s-50 46.5 -72 75.5s-33 57.167 -33 84.5c0 38 11.5 68 34.5 90s54.167 33 93.5 33h9c-18 26 -27 51 -27 75
c0 41.333 14.667 74.666 44 99.999s66 38 110 38c46 0 87.5 -11.833 124.5 -35.5s63.5 -57.834 79.5 -102.501z" />
    <glyph glyph-name="copyright" unicode="&#xa9;" horiz-adv-x="800" 
d="M618 290c-13.333 -56.667 -38.498 -101.334 -75.498 -134.001s-80.5 -49 -130.5 -49c-72.667 0 -131.334 23 -176.001 69s-67 104 -67 174c0 70.667 21.667 128.667 65 174s101.666 68 174.999 68c54.667 0 100.834 -15.333 138.501 -46s60.5 -75 68.5 -133h-83
c-7.33301 30.667 -21.666 55.334 -42.999 74.001s-48 28 -80 28c-48.667 0 -86.334 -15.667 -113.001 -47s-40 -70.333 -40 -117c0 -45.333 14.167 -84.5 42.5 -117.5s65.833 -49.5 112.5 -49.5c31.333 0 57.666 9.66699 78.999 29s35 45 41 77h86zM706.002 350
c0 84.667 -29.167 155.667 -87.5 213s-131.166 86 -218.499 86s-160.333 -28.833 -219 -86.5s-88 -128.5 -88 -212.5c0 -84.667 29.333 -155.834 88 -213.501s131.667 -86.5 219 -86.5s160.166 28.833 218.499 86.5s87.5 128.834 87.5 213.501zM786.002 350
c0 -102.667 -37.667 -190.5 -113 -263.5s-166.333 -109.5 -273 -109.5s-197.834 36.5 -273.501 109.5s-113.5 160.833 -113.5 263.5c0 102 37.833 189.667 113.5 263s166.834 110 273.501 110c106 0 196.833 -36.667 272.5 -110s113.5 -161 113.5 -263z" />
    <glyph glyph-name="guillemotleft" unicode="&#xab;" horiz-adv-x="500" 
d="M314 330l-180.001 -155.999l112 -150h-55c-4 0 -7.66699 0.166992 -11 0.5s-6.5 1.16602 -9.5 2.49902s-5.33301 2.5 -7 3.5s-4 3 -7 6s-5 5.16699 -6 6.5l-7 9.5c-3.66699 5 -6.5 8.5 -8.5 10.5l-87 111v14l162 134c6.66699 5.33301 41.334 8 104.001 8z
M461.999 330.001l-180.001 -155.999l112 -150h-55c-4 0 -7.66699 0.166992 -11 0.5s-6.5 1.16602 -9.5 2.49902s-5.33301 2.5 -7 3.5s-4 3 -7 6s-5 5.16699 -6 6.5l-7 9.5c-3.66699 5 -6.5 8.5 -8.5 10.5l-87 111v14l162 134c6.66699 5.33301 41.334 8 104.001 8z" />
    <glyph glyph-name="logicalnot" unicode="&#xac;" horiz-adv-x="600" 
d="M492 76h-65v132h-319v55h384v-187z" />
    <glyph glyph-name="registered" unicode="&#xae;" horiz-adv-x="800" 
d="M507 458c0 38 -29.668 57 -89.001 57h-91v-120h62h15c16.667 0 29.834 0.5 39.501 1.5s20 3.33301 31 7s19.167 10 24.5 19s8 20.833 8 35.5zM609.999 135l-100 -0.000976562l-113 187h-70v-187h-80v453h183c104.667 0 157 -43.667 157 -131
c0 -67.333 -33.333 -110.666 -100 -129.999zM705.999 349.999c0 84.667 -29.167 155.667 -87.5 213s-131.166 86 -218.499 86s-160.333 -28.833 -219 -86.5s-88 -128.5 -88 -212.5c0 -84.667 29.333 -155.834 88 -213.501s131.667 -86.5 219 -86.5
s160.166 28.833 218.499 86.5s87.5 128.834 87.5 213.501zM785.999 349.999c0 -102.667 -37.667 -190.5 -113 -263.5s-166.333 -109.5 -273 -109.5s-197.834 36.5 -273.501 109.5s-113.5 160.833 -113.5 263.5c0 102 37.833 189.667 113.5 263s166.834 110 273.501 110
c106 0 196.833 -36.667 272.5 -110s113.5 -161 113.5 -263z" />
    <glyph glyph-name="degree" unicode="&#xb0;" horiz-adv-x="400" 
d="M333 424c0 24 -9 44.833 -27 62.5s-40 26.5 -66 26.5s-48 -8.83301 -66 -26.5s-27 -38.5 -27 -62.5s9 -44.833 27 -62.5s40 -26.5 66 -26.5s48 8.83301 66 26.5s27 38.5 27 62.5zM398 424c0 -40 -15.333 -73.833 -46 -101.5s-68 -41.5 -112 -41.5
s-81.333 13.833 -112 41.5s-46 61.5 -46 101.5c0 39.333 15.333 73 46 101s68 42 112 42s81.333 -14 112 -42s46 -61.667 46 -101z" />
    <glyph glyph-name="plusminus" unicode="&#xb1;" horiz-adv-x="600" 
d="M492 0h-384v60h384v-60zM492 206h-160v-118h-64v118h-160v60h160v118h64v-118h160v-60z" />
    <glyph glyph-name="mu" unicode="&#xb5;" 
d="M452 150l-0.000976562 -6.00098c0 -17.333 -6 -31.666 -18 -42.999c-20.667 -18.667 -54.667 -42.834 -102 -72.501s-80.666 -44.5 -99.999 -44.5c-33.333 0 -50 12 -50 36c0 10.667 19.333 54.667 58 132c-40.667 -37.333 -82.667 -72.833 -126 -106.5
s-76.333 -53.5 -99 -59.5l-39 -100c-3.33301 -8 -7.83301 -20.667 -13.5 -38l-15.5 -46c-4.66699 -13.333 -10.167 -27.166 -16.5 -41.499s-13.166 -25.5 -20.499 -33.5s-14.666 -12 -21.999 -12c-22 0 -33 12 -33 36v5c0 20 11 55 33 105l107 247l-21 -15
c-16.667 0 -25 12 -25 36c0 8.66699 17.667 28.834 53 60.501s57 55.5 65 71.5c9.33301 18 20.5 37.5 33.5 58.5s21.833 31.5 26.5 31.5c7.33301 0 17.166 -2.33301 29.499 -7s18.5 -8.33398 18.5 -11.001c0 -10 -2 -18 -6 -24c-15.333 -23.333 -54.333 -100.333 -117 -231
c24.667 15.333 61.834 45 111.501 89s97.5 91.667 143.5 143c24.667 27.333 40 41 46 41c16 0 33.667 -2 53 -6c-5.33301 -17.333 -28.833 -68 -70.5 -152s-63.834 -129 -66.501 -135c16 6 42.167 23.333 78.5 52s60.166 48.667 71.499 60c1.33301 1.33301 4 2 8 2
c16.667 0 25 -7.33301 25 -22z" />
    <glyph glyph-name="mu" unicode="&#x3bc;" 
d="M452 150l-0.000976562 -6.00098c0 -17.333 -6 -31.666 -18 -42.999c-20.667 -18.667 -54.667 -42.834 -102 -72.501s-80.666 -44.5 -99.999 -44.5c-33.333 0 -50 12 -50 36c0 10.667 19.333 54.667 58 132c-40.667 -37.333 -82.667 -72.833 -126 -106.5
s-76.333 -53.5 -99 -59.5l-39 -100c-3.33301 -8 -7.83301 -20.667 -13.5 -38l-15.5 -46c-4.66699 -13.333 -10.167 -27.166 -16.5 -41.499s-13.166 -25.5 -20.499 -33.5s-14.666 -12 -21.999 -12c-22 0 -33 12 -33 36v5c0 20 11 55 33 105l107 247l-21 -15
c-16.667 0 -25 12 -25 36c0 8.66699 17.667 28.834 53 60.501s57 55.5 65 71.5c9.33301 18 20.5 37.5 33.5 58.5s21.833 31.5 26.5 31.5c7.33301 0 17.166 -2.33301 29.499 -7s18.5 -8.33398 18.5 -11.001c0 -10 -2 -18 -6 -24c-15.333 -23.333 -54.333 -100.333 -117 -231
c24.667 15.333 61.834 45 111.501 89s97.5 91.667 143.5 143c24.667 27.333 40 41 46 41c16 0 33.667 -2 53 -6c-5.33301 -17.333 -28.833 -68 -70.5 -152s-63.834 -129 -66.501 -135c16 6 42.167 23.333 78.5 52s60.166 48.667 71.499 60c1.33301 1.33301 4 2 8 2
c16.667 0 25 -7.33301 25 -22z" />
    <glyph glyph-name="paragraph" unicode="&#xb6;" horiz-adv-x="600" 
d="M55 -192h82h-82zM634 699l-313.999 -891h-82l289 819h-101l-289 -819h-82l172 489c-46.667 4 -82.667 19.833 -108 47.5s-38 60.167 -38 97.5c0 64 29.167 122.833 87.5 176.5s134.166 80.5 227.499 80.5h238z" />
    <glyph glyph-name="guillemotright" unicode="&#xbb;" horiz-adv-x="500" 
d="M271 165l-162.997 -133c-6.66699 -5.33301 -41 -8 -103 -8l180 156l-112 150h55c4 0 7.5 -0.166992 10.5 -0.5s5.66699 -0.666016 8 -0.999023s4.66602 -1.33301 6.99902 -3s4.16602 -2.83398 5.49902 -3.50098s3.33301 -2.5 6 -5.5s4.5 -5.16699 5.5 -6.5l6.5 -8.5
c3.33301 -4.33301 5.66602 -7.5 6.99902 -9.5l87 -112v-15zM419.003 165l-162.997 -133c-6.66699 -5.33301 -41 -8 -103 -8l180 156l-112 150h55c4 0 7.5 -0.166992 10.5 -0.5s5.66699 -0.666016 8 -0.999023s4.66602 -1.33301 6.99902 -3
s4.16602 -2.83398 5.49902 -3.50098s3.33301 -2.5 6 -5.5s4.5 -5.16699 5.5 -6.5l6.5 -8.5c3.33301 -4.33301 5.66602 -7.5 6.99902 -9.5l87 -112v-15z" />
    <glyph glyph-name="divide" unicode="&#xf7;" horiz-adv-x="600" 
d="M354 43c0 -14 -5.33301 -26 -16 -36s-23.334 -15 -38.001 -15c-15.333 0 -28.333 5 -39 15s-16 22 -16 36c0 13.333 5.5 25 16.5 35s23.833 15 38.5 15s27.334 -5 38.001 -15s16 -21.667 16 -35zM492 148h-384v59h384v-59zM354 313c0 -13.333 -5.33301 -25 -16 -35
s-23.334 -15 -38.001 -15s-27.5 5 -38.5 15s-16.5 21.667 -16.5 35c0 14.667 5.33301 26.834 16 36.501s23.667 14.5 39 14.5c14.667 0 27.334 -4.83301 38.001 -14.5s16 -21.834 16 -36.501z" />
    <glyph glyph-name="florin" unicode="&#x192;" 
d="M481 621c0 -35.333 -9.33105 -74.332 -27.998 -116.999l-69 -5c2.66699 10.667 6.66699 25 12 43s9.16602 32.333 11.499 43s3.5 21 3.5 31c0 1.33301 0.166992 3.83301 0.5 7.5s0.5 6.83398 0.5 9.50098c0 15.333 -5 23.333 -15 24h-2c-34 0 -68.333 -80.333 -103 -241
h98l-7 -64h-105c-8.66699 -31.333 -24.834 -95 -48.501 -191s-43.167 -170 -58.5 -222c-43.333 -148.667 -98.333 -223 -165 -223c-52 0 -78 38 -78 114c0 21.333 5.33301 56.333 16 105l70 5l-7 -41l-6.5 -40c-1.66699 -10.667 -2.5 -20.334 -2.5 -29.001
c0 -2 -0.333008 -5.83301 -1 -11.5s-1 -10.167 -1 -13.5c0 -15.333 5.33301 -23 16 -23c36 0 74.667 85.333 116 256l76 314h-80l9 64h87c4.66699 19.333 8 32.5 10 39.5l12.5 44.5c6.33301 22.667 11.833 40.167 16.5 52.5s11.167 28.666 19.5 48.999s16.5 36.5 24.5 48.5
s17.167 24.333 27.5 37s21.5 21.834 33.5 27.501s24.667 8.5 38 8.5c28 0 48.167 -9.83301 60.5 -29.5s18.5 -43.834 18.5 -72.501z" />
    <glyph glyph-name="afii10023" unicode="&#x401;" horiz-adv-x="481" 
d="M486 615c0 -12 -4.49805 -26.166 -13.498 -42.499s-18 -30.333 -27 -42s-21.5 -26.834 -37.5 -45.501l-30 -35c-29.333 -35.333 -47.666 -53 -54.999 -53c-10 1.33301 -18.833 5.83301 -26.5 13.5s-11.5 16.167 -11.5 25.5c0 7.33301 21.833 35 65.5 83s65.5 80 65.5 96
c0 11.333 -12 17 -36 17c-51.333 0 -102.5 -23.833 -153.5 -71.5s-76.5 -96.167 -76.5 -145.5c0 -21.333 5 -44 15 -68c11.333 -28 17 -45.333 17 -52c0 -13.333 -5.16699 -25.5 -15.5 -36.5s-22.833 -20.833 -37.5 -29.5l-44.5 -27c-15 -9.33301 -27.667 -21 -38 -35
s-15.5 -29.667 -15.5 -47s5.33301 -31 16 -41s25 -15 43 -15c32 0 64 6.5 96 19.5s59 28.333 81 46s40.167 34.334 54.5 50.001s23.166 27.834 26.499 36.501c1.33301 3.33301 6.66602 6.83301 15.999 10.5s16.333 5.5 21 5.5l40 -7c-20.667 -58 -66.5 -110.5 -137.5 -157.5
s-135.833 -70.5 -194.5 -70.5c-38.667 0 -71.334 9.33301 -98.001 28s-40 46.667 -40 84c0 25.333 5.33301 48.333 16 69s23.834 37.167 39.501 49.5s31.167 23.333 46.5 33l39 25c10.667 7 16 13.5 16 19.5c0 2 -6 15 -18 39c-13.333 29.333 -20 51.666 -20 66.999
c0 68 33.667 133 101 195s135.666 93 204.999 93c28 0 52.667 -7.33301 74 -22s32 -35.334 32 -62.001zM338.002 765.001c0 -12 -4.66699 -22.501 -14 -31.501s-20 -13.5 -32 -13.5c-12.667 0 -23.5 4.33301 -32.5 13s-13.5 19.334 -13.5 32.001
c0 11.333 4.66699 21.666 14 30.999s20 14 32 14s22.667 -4.66699 32 -14s14 -19.666 14 -30.999zM518.002 765c0 -12 -4.66699 -22.501 -14 -31.501s-20 -13.5 -32 -13.5c-12.667 0 -23.5 4.33301 -32.5 13s-13.5 19.334 -13.5 32.001c0 11.333 4.66699 21.666 14 30.999
s20 14 32 14s22.667 -4.66699 32 -14s14 -19.666 14 -30.999z" />
    <glyph glyph-name="afii10052" unicode="&#x403;" horiz-adv-x="425" 
d="M590 687c6 -11.333 8.99707 -23.334 8.99707 -36.001c0 -18.667 -5.33301 -39.834 -16 -63.501s-21.167 -42.667 -31.5 -57s-16.833 -22.166 -19.5 -23.499c-4 -2 -9 -3 -15 -3c-20.667 0 -36 7.33301 -46 22c0.666992 2 11.334 18.167 32.001 48.5s31 52.166 31 65.499
c0 4 -1.33301 8.66699 -4 14c-2 2.66699 -7 4 -15 4c-29.333 0 -110.666 -21.333 -243.999 -64c-16.667 -21.333 -32 -47.666 -46 -78.999l-195 -439l-35 -68l1 1c-8 -8 -26 -12 -54 -12c-5.33301 0 -11.166 2.66699 -17.499 8s-9.5 11 -9.5 17
c36 63.333 81.833 157.833 137.5 283.5s89.834 201.5 102.501 227.5c2 4 5.16699 9.83301 9.5 17.5s6.83301 12.167 7.5 13.5l-60 -19c-29.333 24.667 -44 40.667 -44 48c0 2.66699 2.33301 5 7 7l94 30l88 29l98.5 32c21 6.66699 47 13.334 78 20.001s56.833 10 77.5 10
c39.333 0 65.666 -11.333 78.999 -34zM534.997 842.999l-163 -132h-73l131 132h105z" />
    <glyph glyph-name="afii10053" unicode="&#x404;" horiz-adv-x="537" 
d="M574 578c0 -33.333 -15.001 -64.1689 -45.001 -92.502s-61.167 -49.166 -93.5 -62.499s-57.833 -20 -76.5 -20c-14.667 0 -22 1.66699 -22 5c0 10.667 3.5 22.167 10.5 34.5s15.167 19.5 24.5 21.5c36 6.66699 67 20.334 93 41.001s39 44.667 39 72
c0 38.667 -20.333 58 -61 58c-52.667 0 -115.667 -32.667 -189 -98s-125.666 -137.666 -156.999 -216.999c10.667 -0.666992 27.667 -1 51 -1c61.333 0 117.333 4 168 12l61 9c0 -43.333 -11 -67.333 -33 -72c-48 -10.667 -109.333 -16 -184 -16
c-30.667 0 -58 1.33301 -82 4c-3.33301 -18.667 -5 -35.334 -5 -50.001v-3c0.666992 -40.667 11.334 -74 32.001 -100s51.334 -39 92.001 -39c89.333 0 159.666 49.333 210.999 148c20 0 39 -7.66699 57 -23c-20 -55.333 -54.667 -101.166 -104 -137.499
s-102 -54.5 -158 -54.5c-137.333 0 -206 72 -206 216c0 45.333 14.167 96.666 42.5 153.999s63.833 110.333 106.5 159s91.667 89.667 147 123s107.666 50 156.999 50c38.667 0 69 -10.833 91 -32.5s33 -51.167 33 -88.5z" />
    <glyph glyph-name="afii10054" unicode="&#x405;" horiz-adv-x="500" 
d="M543 613c0 -31.333 -18.832 -62.9971 -56.499 -94.9971s-81.167 -57.333 -130.5 -76s-92.666 -28 -129.999 -28h-5c0 25.333 3.66699 45.333 11 60c20.667 4 43.167 9.66699 67.5 17s50.333 16.666 78 27.999s50.5 25.333 68.5 42s27 34 27 52
c0 14.667 -11.333 22 -34 22c-46.667 0 -101.667 -20.333 -165 -61s-95 -82.334 -95 -125.001c0 -20.667 6.33301 -38.5 19 -53.5s28.334 -26.5 47.001 -34.5l61 -27.5c22 -10.333 42.333 -20.666 61 -30.999s34.334 -25.666 47.001 -45.999s19 -44.5 19 -72.5
c0 -36 -10 -67 -30 -93s-46.333 -45.333 -79 -58s-65.334 -21.834 -98.001 -27.501s-66.334 -8.5 -101.001 -8.5c-30 0 -59.333 2.66699 -88 8s-55 16.166 -79 32.499s-36 36.833 -36 61.5c0 37.333 20 66.833 60 88.5s90.333 32.5 151 32.5c38 0 94.667 -8.33301 170 -25
v-2c0 -10 -3.16699 -22 -9.5 -36s-11.5 -21 -15.5 -21c-2.66699 0 -23.5 3.5 -62.5 10.5s-69.5 10.5 -91.5 10.5c-12 0 -24.333 -0.666992 -37 -2s-26.834 -3.5 -42.501 -6.5s-28.334 -8.33301 -38.001 -16s-14.5 -16.834 -14.5 -27.501c0 -27.333 34.667 -41 104 -41h28
c159.333 0 239 38.333 239 115c0 20.667 -8.66699 39 -26 55s-38.5 29.5 -63.5 40.5s-50 22.833 -75 35.5s-46.167 29.5 -63.5 50.5s-26 45.833 -26 74.5c0 45.333 18.333 89 55 131s80.5 74.667 131.5 98s99.5 35 145.5 35c28 0 52 -7.5 72 -22.5s30 -36.167 30 -63.5z" />
    <glyph glyph-name="afii10055" unicode="&#x406;" horiz-adv-x="333" 
d="M385 622c0 -30.667 -7.33691 -71.6709 -22.0039 -123.004s-35 -105.666 -61 -162.999s-55 -111.5 -87 -162.5s-68 -93.167 -108 -126.5s-78.333 -50 -115 -50c-13.333 0 -28.666 2.5 -45.999 7.5s-27 12.5 -29 22.5c0 8.66699 4.83301 19.167 14.5 31.5
s19.167 18.5 28.5 18.5c13.333 -8.66699 25 -13 35 -13c23.333 0 48.5 12.5 75.5 37.5s52.667 57 77 96s44 72.5 59 100.5s28.167 54.667 39.5 80c6.66699 14.667 15.5 35.334 26.5 62.001s22.833 59.334 35.5 98.001s19 66.667 19 84c0 13.333 -3.66699 20 -11 20
c-22.667 0 -47.667 -18 -75 -54s-49.666 -75 -66.999 -117s-26 -74 -26 -96c0 -6.66699 -7.83301 -17.334 -23.5 -32.001s-26.5 -22 -32.5 -22c-7.33301 0 -13.166 4.33301 -17.499 13s-6.5 17 -6.5 25c0 30.667 12 73.334 36 128.001s56.333 105.334 97 152.001
s79.334 70 116.001 70c45.333 0 68 -29 68 -87z" />
    <glyph glyph-name="afii10056" unicode="&#x407;" horiz-adv-x="333" 
d="M385 622c0 -30.667 -7.33691 -71.6709 -22.0039 -123.004s-35 -105.666 -61 -162.999s-55 -111.5 -87 -162.5s-68 -93.167 -108 -126.5s-78.333 -50 -115 -50c-13.333 0 -28.666 2.5 -45.999 7.5s-27 12.5 -29 22.5c0 8.66699 4.83301 19.167 14.5 31.5
s19.167 18.5 28.5 18.5c13.333 -8.66699 25 -13 35 -13c23.333 0 48.5 12.5 75.5 37.5s52.667 57 77 96s44 72.5 59 100.5s28.167 54.667 39.5 80c6.66699 14.667 15.5 35.334 26.5 62.001s22.833 59.334 35.5 98.001s19 66.667 19 84c0 13.333 -3.66699 20 -11 20
c-22.667 0 -47.667 -18 -75 -54s-49.666 -75 -66.999 -117s-26 -74 -26 -96c0 -6.66699 -7.83301 -17.334 -23.5 -32.001s-26.5 -22 -32.5 -22c-7.33301 0 -13.166 4.33301 -17.499 13s-6.5 17 -6.5 25c0 30.667 12 73.334 36 128.001s56.333 105.334 97 152.001
s79.334 70 116.001 70c45.333 0 68 -29 68 -87zM315.996 807.996c0 -8.66699 -4.66699 -16 -14 -22s-20 -9 -32 -9c-12.667 0 -23.5 3 -32.5 9s-13.5 13.333 -13.5 22c0 8 4.5 15.167 13.5 21.5s19.833 9.5 32.5 9.5c12 0 22.667 -3.16699 32 -9.5s14 -13.5 14 -21.5z
M495.996 807.996c0 -8.66699 -4.66699 -16 -14 -22s-20 -9 -32 -9c-12.667 0 -23.5 3 -32.5 9s-13.5 13.333 -13.5 22c0 8 4.5 15.167 13.5 21.5s19.833 9.5 32.5 9.5c12 0 22.667 -3.16699 32 -9.5s14 -13.5 14 -21.5z" />
    <glyph glyph-name="afii10057" unicode="&#x408;" horiz-adv-x="333" 
d="M149 144c-48.667 -25.333 -98.8301 -73.333 -150.497 -144s-77.5 -132.667 -77.5 -186c0 -14 3.33301 -21 10 -21c4 0 8.16699 1.66699 12.5 5s8.16602 7 11.499 11s7.16602 9.5 11.499 16.5s7.66602 12.833 9.99902 17.5l8.5 17.5l6 12.5l145 282zM377.004 606
c0 -46 -20.335 -120.835 -61.002 -224.502s-79 -190.167 -115 -259.5l-156 -301c-32.667 -64 -72.334 -96 -119.001 -96c-50 0 -75 31 -75 93c0 40 9.5 81 28.5 123s44.167 80.833 75.5 116.5s64 67.834 98 96.501s69.333 54.334 106 77.001
c11.333 7.33301 18 12.166 20 14.499s6 10.166 12 23.499c22.667 50.667 46.667 112 72 184s38 124.333 38 157c0 1.33301 0.333008 3.66602 1 6.99902s1 6 1 8c0 4 -2 6 -6 6c-20 0 -44.167 -18.667 -72.5 -56s-53.833 -86.166 -76.5 -146.499s-35 -118.166 -37 -173.499
c-0.666992 -10 -6.66699 -18.667 -18 -26s-22.666 -11 -33.999 -11c-16 0 -24 10.667 -24 32c0 50.667 13.333 111.167 40 181.5s61.334 132.5 104.001 186.5s83.334 81 122.001 81c24.667 0 43.5 -9.16699 56.5 -27.5s19.5 -40.166 19.5 -65.499z" />
    <glyph glyph-name="afii10061" unicode="&#x40c;" 
d="M522 675c-4.66699 -28 -44.8311 -74.1719 -120.498 -138.505s-155.5 -120.166 -239.5 -167.499c-2.66699 -2 -7.16699 -8.83301 -13.5 -20.5s-9.5 -20.834 -9.5 -27.501c0 -5.33301 14.833 -29.166 44.5 -71.499s67.667 -87.666 114 -135.999
s86.166 -78.833 119.499 -91.5c0 -8.66699 -8.16699 -16.167 -24.5 -22.5s-28.166 -9.5 -35.499 -9.5c-9.33301 0 -19.333 2.33301 -30 7c-27.333 10.667 -62.5 41.834 -105.5 93.501s-82.5 104.167 -118.5 157.5l-107 -225c-5.33301 -10.667 -10.333 -17.167 -15 -19.5
s-14 -3.5 -28 -3.5c-7.33301 0 -14.833 2 -22.5 6s-11.5 7.33301 -11.5 10c0 0.666992 0.333008 2.66699 1 6v4l139 291c0.666992 0.666992 1 1.66699 1 3s-1.66699 5.33301 -5 12s-5 13.334 -5 20.001c0 10.667 7.16699 23.5 21.5 38.5s26.166 23.833 35.499 26.5
c0.666992 0 1.66699 1.5 3 4.5l6 14c2.66699 6.33301 5 11.5 7 15.5l111 233c2 4 6.5 7.33301 13.5 10s12.833 4 17.5 4l45 -4c-3.33301 -18.667 -12.333 -43.667 -27 -75l-66 -137c94 62 163.667 119.333 209 172c0 0.666992 3.16699 4.83398 9.5 12.501s11.833 14 16.5 19
s8 7.83301 10 8.5c6.66699 1.33301 15.667 2 27 2c9.33301 0 17.166 -2.5 23.499 -7.5s9.5 -9.5 9.5 -13.5zM570.003 867.995l-163 -132h-73l131 132h105z" />
    <glyph glyph-name="afii10062" unicode="&#x40e;" horiz-adv-x="556" 
d="M625 558l-240.997 -541.003c-36.667 -81.333 -73 -148 -109 -200c-24.667 -35.333 -43 -56.666 -55 -63.999c-7.33301 -4 -14.333 -6 -21 -6c-17.333 0 -26 7.33301 -26 22c0 8.66699 6.33301 22.667 19 42c26 35.333 72.333 125 139 269l69 151
c-161.333 -159.333 -269.333 -239 -324 -239c-13.333 0 -24.333 1.83301 -33 5.5s-14.667 9.33398 -18 17.001s-5.5 14.167 -6.5 19.5s-1.5 12.333 -1.5 21c0 16.667 40.333 109.167 121 277.5s120.667 262.833 120 283.5v3v7c0 2.66699 -1.33301 4 -4 4
c-29.333 0 -60.833 -32 -94.5 -96s-52.834 -114.333 -57.501 -151c0 -2 -0.333008 -4 -1 -6s-1.33398 -3.83301 -2.00098 -5.5s-1.16699 -3.16699 -1.5 -4.5s-1.16602 -2.66602 -2.49902 -3.99902s-2.16602 -2.33301 -2.49902 -3s-1.5 -1.66699 -3.5 -3
s-3.33301 -2.33301 -4 -3s-2.33398 -1.83398 -5.00098 -3.50098s-4.33398 -2.83398 -5.00098 -3.50098c-12.667 -8.66699 -30.334 -16 -53.001 -22c0 40.667 11.333 90 34 148s53.5 110 92.5 156s77.833 69 116.5 69c46 0 69 -26.667 69 -80v-6
c-0.666992 -20 -41 -114.667 -121 -284s-120 -257.666 -120 -264.999l-1 -2c0 -0.666992 0.333008 -1 1 -1c12.667 0 56.167 32.833 130.5 98.5s135.5 123.5 183.5 173.5c36 38 61.5 68.833 76.5 92.5s36.5 64.834 64.5 123.501zM716.003 827.997
c-18 -19.333 -44.5 -40.334 -79.5 -63.001s-68.167 -34 -99.5 -34c-22.667 0 -40.667 7 -54 21s-20 33.333 -20 58c0 12.667 7.33301 19 22 19c4.66699 0 12.5 -0.833008 23.5 -2.5s19.167 -2.5 24.5 -2.5c0 -10 1.16699 -16.667 3.5 -20s6.5 -5 12.5 -5c26 0 61 21 105 63
c2 2 5 3 9 3c9.33301 0 20.833 -4 34.5 -12s20.5 -15 20.5 -21c0 -1.33301 -0.666992 -2.66602 -2 -3.99902z" />
    <glyph glyph-name="afii10017" unicode="&#x410;" horiz-adv-x="512" 
d="M476 601c3.33301 13.333 5 21.0029 5 23.0029c0 5.33301 -2 8 -6 8c-24 0 -65.333 -34.667 -124 -104s-118.334 -151 -179.001 -245c66.667 -10.667 124 -42.334 172 -95.001c14 57.333 37.333 132.666 70 225.999s53.334 155.666 62.001 186.999zM556 623.003
c0 -14 -25.6699 -96.6631 -77.0029 -247.996s-77 -244.333 -77 -279c0 -6.66699 0.5 -17.667 1.5 -33s1.5 -25 1.5 -29c0 -9.33301 -4 -17.833 -12 -25.5s-18.333 -11.5 -31 -11.5c-28.667 0 -43 14 -43 42c0 4.66699 0.5 12.667 1.5 24s1.5 19.666 1.5 24.999
c0 14 -11.667 34.667 -35 62c-30.667 37.333 -81.667 61 -153 71c-50 -87.333 -82.333 -152 -97 -194c-5.33301 -17.333 -20.666 -26 -45.999 -26h-44c34.667 91.333 70.334 166.666 107.001 225.999h-8c-18 0 -41.667 -2.33301 -71 -7c-12.667 0 -20.667 1.83301 -24 5.5
s-5 9.5 -5 17.5c0 15.333 2.66699 26.166 8 32.499s14 10.5 26 12.5c18.667 3.33301 40.334 5 65.001 5c16 0 28 -0.333008 36 -1l15 -1c6.66699 11.333 15.834 26.166 27.501 44.499s34.167 50.833 67.5 97.5s65.5 88 96.5 124s65.5 68.667 103.5 98s71 44 99 44
c23.333 0 40.166 -6.16699 50.499 -18.5s15.5 -31.5 15.5 -57.5z" />
    <glyph glyph-name="afii10018" unicode="&#x411;" horiz-adv-x="500" 
d="M590 688c6 -9.33301 8.99707 -21.668 8.99707 -37.001c0 -18.667 -5.33301 -39.834 -16 -63.501s-21.167 -42.667 -31.5 -57s-16.833 -22.166 -19.5 -23.499c-4 -2 -9 -3 -15 -3c-20.667 0 -36 7.33301 -46 22c0.666992 1.33301 11.334 17.333 32.001 48s31 53 31 67
c0 6 -1.33301 10.667 -4 14c-2 2.66699 -6.66699 4 -14 4c-28 0 -109.667 -21.667 -245 -65c-16.667 -21.333 -32 -47.666 -46 -78.999c-132 -296.667 -198.333 -446.334 -199 -449.001c60 1.33301 103.667 2 131 2c133.333 0 200 29.667 200 89
c0 20 -4.5 38.833 -13.5 56.5s-19 32.5 -30 44.5s-26.167 24 -45.5 36s-34.666 20.833 -45.999 26.5s-26.333 12.5 -45 20.5c2.66699 38 12.667 57 30 57c3.33301 0 7.66602 -1 12.999 -3c12.667 -5.33301 24.334 -10.5 35.001 -15.5s28.167 -15.167 52.5 -30.5
s44.666 -31.166 60.999 -47.499s31.166 -37.5 44.499 -63.5s20 -53 20 -81c0 -27.333 -7 -51 -21 -71s-32.5 -35.333 -55.5 -46s-46.5 -18.5 -70.5 -23.5s-49 -8.16699 -75 -9.5c-37.333 -1.33301 -91 -2 -161 -2h-63l-19 -3c-4.66699 0 -12.167 -2.16699 -22.5 -6.5
s-18.166 -6.5 -23.499 -6.5l-2 1h-3c-21.333 4 -32 14.667 -32 32c0 4 0.333008 7 1 9c2 9.33301 8 17.333 18 24s19.667 11 29 13c4 0.666992 7.5 2.83398 10.5 6.50098s6.33301 10 10 19s5.83398 13.833 6.50098 14.5c24 47.333 57.333 119.5 100 216.5
s74.334 166.5 95.001 208.5c2 4 5.16699 9.83301 9.5 17.5s6.83301 12.167 7.5 13.5l-60 -18c-29.333 23.333 -44 38.666 -44 45.999c0 3.33301 2.33301 6 7 8l94 31l76 26l98 33c20.667 6.66699 47.834 13.667 81.501 21s61.5 11 83.5 11
c41.333 0 68.666 -11.333 81.999 -34z" />
    <glyph glyph-name="afii10019" unicode="&#x412;" horiz-adv-x="500" 
d="M473 523c0 -39.333 -6.33301 -73.498 -19 -102.498s-28 -50.5 -46 -64.5s-36 -25.5 -54 -34.5s-33.333 -16.167 -46 -21.5s-19 -10.666 -19 -15.999c0 -6 7.5 -10.5 22.5 -13.5l49.5 -9.5c18 -3.33301 34.5 -13.833 49.5 -31.5s22.5 -42.167 22.5 -73.5
c0 -26.667 -7 -50 -21 -70s-32.5 -35.333 -55.5 -46s-46.5 -18.5 -70.5 -23.5s-49 -8.16699 -75 -9.5c-37.333 -1.33301 -64.333 -2 -81 -2h-87c0 26.667 5.66699 47 17 61c50.667 1.33301 83 2 97 2c133.333 0 200 29.333 200 88c0 16 -5 28 -15 36s-22 13.333 -36 16
s-28 5.66699 -42 9s-26 10.666 -36 21.999s-15 27.333 -15 48c0 18 4.5 32.667 13.5 44s20.333 19.166 34 23.499s28.5 10.166 44.5 17.499s30.833 15.666 44.5 24.999s25 24.833 34 46.5s13.5 48.834 13.5 81.501c0 71.333 -19.333 107 -58 107
c-39.333 0 -77.333 -40.333 -114 -121l-195 -436c-1.33301 -3.33301 -3.66602 -8.66602 -6.99902 -15.999s-5.83301 -13.333 -7.5 -18s-4.33398 -9.83398 -8.00098 -15.501s-7.5 -10.834 -11.5 -15.501c-8 -8.66699 -26 -13 -54 -13c-5.33301 0 -11.166 2.66699 -17.499 8
s-9.5 11 -9.5 17c36 62.667 81.167 155 135.5 277s89.166 198.667 104.499 230c55.333 113.333 118.333 170 189 170c30 0 55.167 -9.66699 75.5 -29s34.333 -41.666 42 -66.999s11.5 -52 11.5 -80z" />
    <glyph glyph-name="afii10020" unicode="&#x413;" horiz-adv-x="425" 
d="M590 687c6 -11.333 8.99707 -23.334 8.99707 -36.001c0 -18.667 -5.33301 -39.834 -16 -63.501s-21.167 -42.667 -31.5 -57s-16.833 -22.166 -19.5 -23.499c-4 -2 -9 -3 -15 -3c-20.667 0 -36 7.33301 -46 22c0.666992 2 11.334 18.167 32.001 48.5s31 52.166 31 65.499
c0 4 -1.33301 8.66699 -4 14c-2 2.66699 -7 4 -15 4c-29.333 0 -110.666 -21.333 -243.999 -64c-16.667 -21.333 -32 -47.666 -46 -78.999l-195 -439l-35 -68l1 1c-8 -8 -26 -12 -54 -12c-5.33301 0 -11.166 2.66699 -17.499 8s-9.5 11 -9.5 17
c36 63.333 81.833 157.833 137.5 283.5s89.834 201.5 102.501 227.5c2 4 5.16699 9.83301 9.5 17.5s6.83301 12.167 7.5 13.5l-60 -19c-29.333 24.667 -44 40.667 -44 48c0 2.66699 2.33301 5 7 7l94 30l88 29l98.5 32c21 6.66699 47 13.334 78 20.001s56.833 10 77.5 10
c39.333 0 65.666 -11.333 78.999 -34z" />
    <glyph glyph-name="afii10021" unicode="&#x414;" horiz-adv-x="722" 
d="M582 212c0 25.333 -6.16699 51.833 -18.5 79.5s-24.333 49.667 -36 66s-29.167 38.833 -52.5 67.5l-84 -193c-30 -70 -66 -126 -108 -168c29.333 -2.66699 51.333 -4 66 -4c155.333 0 233 50.667 233 152zM658 208c0 -39.333 -8.33887 -73.1689 -25.0059 -101.502
s-39.334 -50.166 -68.001 -65.499s-59.5 -26.5 -92.5 -33.5s-68.5 -10.5 -106.5 -10.5c-21.333 0 -54.166 1.83301 -98.499 5.5s-69.166 5.5 -74.499 5.5c-1.33301 0 -9.33301 -1 -24 -3s-31.667 -3.83301 -51 -5.5s-34.666 -2.5 -45.999 -2.5c-22 0 -45.833 3.5 -71.5 10.5
s-38.5 18.5 -38.5 34.5c0 14.667 10 25.5 30 32.5s39 10.5 57 10.5c19.333 0 42 -2.33301 68 -7c26.667 -4 43.334 -6 50.001 -6c50.667 0 104 63 160 189l97 219c-37.333 38.667 -80 74.167 -128 106.5s-90.667 48.5 -128 48.5c-4.66699 0 -9 -2.16699 -13 -6.5
s-6 -9.16602 -6 -14.499c0 -30 20.667 -61.833 62 -95.5s83 -59.834 125 -78.501c0 -11.333 -3 -22.833 -9 -34.5s-12.333 -17.5 -19 -17.5c-5.33301 0 -20.166 6.83301 -44.499 20.5s-42.833 24.834 -55.5 33.501c-30 18.667 -58.333 44.334 -85 77.001s-40 63.667 -40 93
c0 28 8.33301 49.5 25 64.5s39.334 22.5 68.001 22.5c36.667 0 82.334 -16.667 137.001 -50s103.334 -69 146.001 -107c19.333 27.333 32.666 42.666 39.999 45.999c2.66699 0 11 -5 25 -15s21 -18 21 -24c0 -0.666992 -6 -9.5 -18 -26.5s-18 -28.167 -18 -33.5
c0 -1.33301 3.33301 -5.5 10 -12.5l28.5 -31.5c12.333 -14 23.5 -28 33.5 -42c51.333 -70 77 -135 77 -195z" />
    <glyph glyph-name="afii10022" unicode="&#x415;" horiz-adv-x="481" 
d="M486 615c0 -12 -4.49805 -26.166 -13.498 -42.499s-18 -30.333 -27 -42s-21.5 -26.834 -37.5 -45.501l-30 -35c-29.333 -35.333 -47.666 -53 -54.999 -53c-10 1.33301 -18.833 5.83301 -26.5 13.5s-11.5 16.167 -11.5 25.5c0 7.33301 21.833 35 65.5 83s65.5 80 65.5 96
c0 11.333 -12 17 -36 17c-51.333 0 -102.5 -23.833 -153.5 -71.5s-76.5 -96.167 -76.5 -145.5c0 -21.333 5 -44 15 -68c11.333 -28 17 -45.333 17 -52c0 -13.333 -5.16699 -25.5 -15.5 -36.5s-22.833 -20.833 -37.5 -29.5l-44.5 -27c-15 -9.33301 -27.667 -21 -38 -35
s-15.5 -29.667 -15.5 -47s5.33301 -31 16 -41s25 -15 43 -15c32 0 64 6.5 96 19.5s59 28.333 81 46s40.167 34.334 54.5 50.001s23.166 27.834 26.499 36.501c1.33301 3.33301 6.66602 6.83301 15.999 10.5s16.333 5.5 21 5.5l40 -7c-20.667 -58 -66.5 -110.5 -137.5 -157.5
s-135.833 -70.5 -194.5 -70.5c-38.667 0 -71.334 9.33301 -98.001 28s-40 46.667 -40 84c0 25.333 5.33301 48.333 16 69s23.834 37.167 39.501 49.5s31.167 23.333 46.5 33l39 25c10.667 7 16 13.5 16 19.5c0 2 -6 15 -18 39c-13.333 29.333 -20 51.666 -20 66.999
c0 68 33.667 133 101 195s135.666 93 204.999 93c28 0 52.667 -7.33301 74 -22s32 -35.334 32 -62.001z" />
    <glyph glyph-name="afii10024" unicode="&#x416;" horiz-adv-x="863" 
d="M319 371l-97 -65c-8.66699 -6 -23.167 -15.5 -43.5 -28.5s-35.333 -22.833 -45 -29.5s-22.167 -16.5 -37.5 -29.5s-26.666 -25 -33.999 -36s-14 -24.333 -20 -40s-9 -32.167 -9 -49.5c0 -18 10.333 -27 31 -27c32 0 73.667 31.333 125 94s94.666 133 129.999 211z
M1003 673c0 -8 -2.5 -15.333 -7.5 -22s-11.167 -10 -18.5 -10c-18.667 0 -43.334 -6.33301 -74.001 -19s-57.334 -26.667 -80.001 -42c-64.667 -44 -120.334 -106.833 -167.001 -188.5s-70 -159.5 -70 -233.5c0 -28.667 7.66699 -51.167 23 -67.5s37.333 -24.5 66 -24.5
c30 0 61 8.66699 93 26c0.666992 0.666992 2.33398 1 5.00098 1c13.333 0 25 -4 35 -12l25 -28c-54 -36 -107.667 -54 -161 -54c-52 0 -91 14.167 -117 42.5s-39 66.833 -39 115.5c0 7.33301 0.666992 17.666 2 30.999l-117 -146v-11c0 -16.667 -11 -26.667 -33 -30l-47 -7
c1.33301 74.667 26.333 170 75 286l81 190l-53 -32c-20 -64.667 -49.833 -130.167 -89.5 -196.5s-84.167 -122.666 -133.5 -168.999s-94 -69.5 -134 -69.5c-32 0 -57.333 7.66699 -76 23s-28 38.333 -28 69c0 45.333 15.667 87.833 47 127.5s77.666 80.167 138.999 121.5
l210 136c7.33301 29.333 11 55.333 11 78c0 24 -7.16699 42.833 -21.5 56.5s-34.166 20.5 -59.499 20.5c-13.333 0 -26.166 -1.33301 -38.499 -4s-24.166 -6.83398 -35.499 -12.501s-20.833 -10.667 -28.5 -15s-16.5 -10 -26.5 -17s-16.333 -11.167 -19 -12.5
c-7.33301 -4.66699 -15.333 -7 -24 -7c-4.66699 0 -9.66699 1 -15 3c-6 8 -9 18 -9 30c0 12.667 3.66699 21.667 11 27c58 47.333 119 71 183 71c44.667 0 82.334 -12.667 113.001 -38s46 -59.333 46 -102c0 -10.667 -0.333008 -18.667 -1 -24l104 62c4 2 8.66699 3 14 3
c10.667 0 21.167 -3.66699 31.5 -11s15.5 -13.333 15.5 -18v-2c-78.667 -146.667 -135 -268 -169 -364l114 138c49.333 121.333 122.666 216 219.999 284c26 18.667 57 35.334 93 50.001s68 22 96 22c8 0 16 -2.33301 24 -7s13 -10.667 15 -18z" />
    <glyph glyph-name="afii10025" unicode="&#x417;" horiz-adv-x="407" 
d="M444 576c0 -28 -8.00098 -56.167 -24.001 -84.5s-38.333 -55.666 -67 -81.999s-54.5 -48.166 -77.5 -65.499s-49.833 -36 -80.5 -56c42 -2 73.333 -13 94 -33s31 -52.333 31 -97c0 -48.667 -17.333 -104.334 -52 -167.001s-79.334 -117 -134.001 -163
s-106.667 -69 -156 -69c-32 0 -57.333 7.83301 -76 23.5s-28 39.167 -28 70.5c0 45.333 14.333 88.5 43 129.5s64.334 75.833 107.001 104.5c32 22 54.333 33 67 33c20 0 30 -11.333 30 -34c-14 -10 -27.667 -20.333 -41 -31s-32 -27.5 -56 -50.5s-43.333 -48 -58 -75
s-22 -53.167 -22 -78.5c0 -18.667 10.333 -28 31 -28c32 0 69.333 17.833 112 53.5s79.5 79.5 110.5 131.5s46.5 99.333 46.5 142c0 22 -4.5 38.833 -13.5 50.5s-19.833 19 -32.5 22s-25.5 5.5 -38.5 7.5s-24 7.16699 -33 15.5s-13.5 20.833 -13.5 37.5
c0 12.667 8.83301 27 26.5 43s38.834 32.5 63.501 49.5s49.5 35.333 74.5 55s46.333 42.667 64 69s26.5 53.166 26.5 80.499c0 34 -18 51 -54 51c-34 0 -70.167 -13.333 -108.5 -40s-73.166 -57 -104.499 -91c-10 -8.66699 -24.667 -13 -44 -13c0 29.333 5 54 15 74
c7.33301 14.667 27.666 35 60.999 61c64.667 51.333 126.334 77 185.001 77c41.333 0 72.666 -10.5 93.999 -31.5s32 -51.5 32 -91.5z" />
    <glyph glyph-name="afii10026" unicode="&#x418;" horiz-adv-x="611" 
d="M695 569c0 -8.66699 -8.33301 -26.6689 -25 -54.002c-25.333 -44.667 -44.833 -80.167 -58.5 -106.5l-58.5 -118.5c-25.333 -52.667 -44.5 -100.834 -57.5 -144.501s-19.5 -81.834 -19.5 -114.501c0 -16.667 -11 -26.667 -33 -30l-47 -7
c1.33301 88 26.333 183.333 75 286l16 34c-204 -210 -331 -315 -381 -315c-32 0 -48 13 -48 39c0 28 20.333 82.667 61 164l122 245c40.667 82 61 138 61 168c0 10.667 -4.33301 16 -13 16c-23.333 0 -49.666 -16.5 -78.999 -49.5s-54.333 -70.167 -75 -111.5
s-33.334 -75.666 -38.001 -102.999c-2.66699 -14.667 -10.5 -26.334 -23.5 -35.001s-25.167 -13 -36.5 -13c-6.66699 0 -12 3 -16 9s-6 13 -6 21c0 20.667 8.66699 50.334 26 89.001s39 77.334 65 116.001s56.333 72.334 91 101.001s66.667 43 96 43
c26 0 46.667 -6.83301 62 -20.5s23 -33.167 23 -58.5c0 -39.333 -34.833 -126.5 -104.5 -261.5s-111.167 -223.833 -124.5 -266.5c18.667 12.667 38 27.334 58 44.001s41.333 35.5 64 56.5l55.5 52.5l58.5 59l48 49l114 115c33.333 33.333 58.333 67 75 101
c9.33301 18 24.333 27 45 27c10.667 0 18 -1.83301 22 -5.5s6 -10.5 6 -20.5z" />
    <glyph glyph-name="afii10027" unicode="&#x419;" horiz-adv-x="611" 
d="M695 569c0 -8.66699 -8.33301 -26.6689 -25 -54.002c-25.333 -44.667 -44.833 -80.167 -58.5 -106.5l-58.5 -118.5c-25.333 -52.667 -44.5 -100.834 -57.5 -144.501s-19.5 -81.834 -19.5 -114.501c0 -16.667 -11 -26.667 -33 -30l-47 -7
c1.33301 88 26.333 183.333 75 286l16 34c-204 -210 -331 -315 -381 -315c-32 0 -48 13 -48 39c0 28 20.333 82.667 61 164l122 245c40.667 82 61 138 61 168c0 10.667 -4.33301 16 -13 16c-23.333 0 -49.666 -16.5 -78.999 -49.5s-54.333 -70.167 -75 -111.5
s-33.334 -75.666 -38.001 -102.999c-2.66699 -14.667 -10.5 -26.334 -23.5 -35.001s-25.167 -13 -36.5 -13c-6.66699 0 -12 3 -16 9s-6 13 -6 21c0 20.667 8.66699 50.334 26 89.001s39 77.334 65 116.001s56.333 72.334 91 101.001s66.667 43 96 43
c26 0 46.667 -6.83301 62 -20.5s23 -33.167 23 -58.5c0 -39.333 -34.833 -126.5 -104.5 -261.5s-111.167 -223.833 -124.5 -266.5c18.667 12.667 38 27.334 58 44.001s41.333 35.5 64 56.5l55.5 52.5l58.5 59l48 49l114 115c33.333 33.333 58.333 67 75 101
c9.33301 18 24.333 27 45 27c10.667 0 18 -1.83301 22 -5.5s6 -10.5 6 -20.5zM716 827.998c-18 -19.333 -44.5 -40.334 -79.5 -63.001s-68.167 -34 -99.5 -34c-22.667 0 -40.667 7 -54 21s-20 33.333 -20 58c0 12.667 7.33301 19 22 19c4.66699 0 12.5 -0.833008 23.5 -2.5
s19.167 -2.5 24.5 -2.5c0 -10 1.16699 -16.667 3.5 -20s6.5 -5 12.5 -5c26 0 61 21 105 63c2 2 5 3 9 3c9.33301 0 20.833 -4 34.5 -12s20.5 -15 20.5 -21c0 -1.33301 -0.666992 -2.66602 -2 -3.99902z" />
    <glyph glyph-name="afii10028" unicode="&#x41a;" 
d="M522 675c-4.66699 -28 -44.8311 -74.1719 -120.498 -138.505s-155.5 -120.166 -239.5 -167.499c-2.66699 -2 -7.16699 -8.83301 -13.5 -20.5s-9.5 -20.834 -9.5 -27.501c0 -5.33301 14.833 -29.166 44.5 -71.499s67.667 -87.666 114 -135.999
s86.166 -78.833 119.499 -91.5c0 -8.66699 -8.16699 -16.167 -24.5 -22.5s-28.166 -9.5 -35.499 -9.5c-9.33301 0 -19.333 2.33301 -30 7c-27.333 10.667 -62.5 41.834 -105.5 93.501s-82.5 104.167 -118.5 157.5l-107 -225c-5.33301 -10.667 -10.333 -17.167 -15 -19.5
s-14 -3.5 -28 -3.5c-7.33301 0 -14.833 2 -22.5 6s-11.5 7.33301 -11.5 10c0 0.666992 0.333008 2.66699 1 6v4l139 291c0.666992 0.666992 1 1.66699 1 3s-1.66699 5.33301 -5 12s-5 13.334 -5 20.001c0 10.667 7.16699 23.5 21.5 38.5s26.166 23.833 35.499 26.5
c0.666992 0 1.66699 1.5 3 4.5l6 14c2.66699 6.33301 5 11.5 7 15.5l111 233c2 4 6.5 7.33301 13.5 10s12.833 4 17.5 4l45 -4c-3.33301 -18.667 -12.333 -43.667 -27 -75l-66 -137c94 62 163.667 119.333 209 172c0 0.666992 3.16699 4.83398 9.5 12.501s11.833 14 16.5 19
s8 7.83301 10 8.5c6.66699 1.33301 15.667 2 27 2c9.33301 0 17.166 -2.5 23.499 -7.5s9.5 -9.5 9.5 -13.5z" />
    <glyph glyph-name="afii10029" unicode="&#x41b;" horiz-adv-x="582" 
d="M604 629h-28l-48 -139zM652 641c-1.33301 -14 -28.9961 -99.6621 -82.9961 -256.995l-125 -353c-10 -20 -24.333 -30 -43 -30s-28 7 -28 21c0 2.66699 0.666992 6.66699 2 12c1.33301 8.66699 36.333 113.667 105 315l48 141c-100 -180.667 -168 -290.334 -204 -329.001
c-24 -25.333 -44.667 -45.833 -62 -61.5s-39.833 -32.334 -67.5 -50.001s-58.334 -30.834 -92.001 -39.501s-71.167 -13 -112.5 -13c-28.667 0 -53.834 7.5 -75.501 22.5s-32.5 36.5 -32.5 64.5v9c3.33301 34 28.666 62.167 75.999 84.5s106.333 39.166 177 50.499
c14.667 -20 22 -35 22 -45c0 -10.667 -7.33301 -17 -22 -19c-37.333 -4 -76 -12.167 -116 -24.5s-62.333 -28.5 -67 -48.5v-3l-1 -2c0 -14.667 14.333 -22 43 -22c61.333 0 110.666 10.667 147.999 32s79 56.666 125 105.999c31.333 33.333 71.5 92 120.5 176l130.5 221
c38 63.333 64.667 95 80 95c20.667 0 35 -3.16699 43 -9.5s12 -15.833 12 -28.5c0 -6.66699 -0.333008 -11.667 -1 -15z" />
    <glyph glyph-name="afii10030" unicode="&#x41c;" horiz-adv-x="704" 
d="M783 661c0 -14.667 -5.33301 -31.668 -16 -51.001c-1.33301 -2.66699 -12.333 -22.167 -33 -58.5l-38 -67.5l-34.5 -64c-18.333 -34 -30.666 -58 -36.999 -72l-31 -66c-14.333 -30 -24.333 -53.667 -30 -71l-20 -62.5c-7.66699 -24.333 -13 -46.166 -16 -65.499
s-4.5 -37.666 -4.5 -54.999c0 -8.66699 -3.66699 -15.667 -11 -21s-16 -8 -26 -8c-16.667 0 -27.334 1.66699 -32.001 5s-7 10.333 -7 21c0 62 19.167 137.333 57.5 226s90.166 192.334 155.499 311.001l-78 -87l-67.5 -78.5l-78 -95l-67 -83l-78.5 -98.5
c-42 -52.667 -65.667 -82.667 -71 -90c-13.333 -18 -26.333 -27 -39 -27c-11.333 0 -19 2.5 -23 7.5s-6 13.167 -6 24.5c0 5.33301 5 30.333 15 75l34.5 148.5l21.5 89.5l36 152c-102.667 -226 -187.667 -379.667 -255 -461c-28 -34.667 -47 -52.334 -57 -53.001l-99 -5
c52.667 48 102.5 105.833 149.5 173.5s85.5 131.667 115.5 192l82 171c24.667 53.667 46.167 96.5 64.5 128.5s33.833 48 46.5 48c24 0 39.5 -3.83301 46.5 -11.5s10.5 -20.834 10.5 -39.501c0 -21.333 -18.333 -107 -55 -257l-45 -190
c164.667 202 290.334 349.667 377.001 443l26.5 27.5c5.66699 5.66699 15 12.5 28 20.5s25.167 12 36.5 12c12 0 23.667 -3.66699 35 -11s17 -16.333 17 -27z" />
    <glyph glyph-name="afii10031" unicode="&#x41d;" horiz-adv-x="722" 
d="M259 177c-14.667 -1.33301 -35.3301 -3.66797 -61.9971 -7.00098s-43 -5.33301 -49 -6c-14.667 -2 -29.834 -4.5 -45.501 -7.5s-33.834 -7.16699 -54.501 -12.5s-37.834 -12.666 -51.501 -21.999s-21.167 -19.333 -22.5 -30v-3c0 -16.667 16 -25 48 -25
c54.667 0 99.5 9.33301 134.5 28s69.167 47 102.5 85zM767.004 668.998c-68 -126 -124.997 -258.002 -170.997 -396.002l73 21c10 -31.333 15 -51.666 15 -60.999c-4 -2.66699 -20 -7.5 -48 -14.5s-50.333 -11.833 -67 -14.5l-58 -182c-4 -11.333 -8 -18.666 -12 -21.999
s-9.66699 -5 -17 -5c-19.333 0 -34.333 5 -45 15c5.33301 28.667 23.333 89 54 181l-135 -8c-30.667 -38.667 -58.834 -69.834 -84.501 -93.501s-60.5 -45 -104.5 -64s-92.667 -28.5 -146 -28.5c-30 0 -57 8.16699 -81 24.5s-36 39.5 -36 69.5c0 19.333 7.83301 37 23.5 53
s37.167 29.167 64.5 39.5s55 19.333 83 27s59.667 13.834 95 18.501s62.666 8 81.999 10s39.666 3.66699 60.999 5c35.333 58 66.5 118.667 93.5 182s44.167 120 51.5 170c0.666992 5.33301 1.5 10 2.5 14s2.66699 7.5 5 10.5s4 5.33301 5 7s3.16699 3.16699 6.5 4.5
s5.33301 2.16602 6 2.49902s3 0.833008 7 1.5l7 2c13.333 0 23.5 -1.83301 30.5 -5.5s10.5 -11.167 10.5 -22.5c0 -20 -14.5 -71.833 -43.5 -155.5s-59.833 -152.167 -92.5 -205.5l111 8l35 93.5l39 104.5c8.66699 22.667 21.167 51.834 37.5 87.501s32.833 67.5 49.5 95.5
c6 10.667 17.5 23.5 34.5 38.5s29.833 22.5 38.5 22.5c6 0 11.167 -2.5 15.5 -7.5s6.5 -10.167 6.5 -15.5c0 -2 -0.666992 -4.33301 -2 -7z" />
    <glyph glyph-name="afii10032" unicode="&#x41e;" horiz-adv-x="537" 
d="M557 509c0 -37.333 -7.32812 -79 -21.9951 -125s-35.5 -91.5 -62.5 -136.5s-57.5 -86.333 -91.5 -124s-72.5 -68.167 -115.5 -91.5s-85.833 -35 -128.5 -35c-52 0 -91 14.333 -117 43s-39 67.334 -39 116.001c0 85.333 24.833 172.333 74.5 261
s111.167 158.667 184.5 210c26.667 18.667 58 35.334 94 50.001s67.667 22 95 22c8 0 16 -2.33301 24 -7s13 -10.667 15 -18c0 -8.66699 -2.5 -16.334 -7.5 -23.001s-11.167 -10 -18.5 -10c-18.667 0 -43.5 -6.33301 -74.5 -19s-57.5 -26.667 -79.5 -42
c-64.667 -43.333 -120.334 -106.166 -167.001 -188.499s-70 -160.5 -70 -234.5c0 -28.667 7.66699 -51.334 23 -68.001s37.333 -25 66 -25c43.333 0 87 16.167 131 48.5s81.333 71.666 112 117.999s55.667 95 75 146s29 95.833 29 134.5c0 34.667 -16 52 -48 52
c-20.667 0 -41 -9 -61 -27s-37 -38.333 -51 -61c-5.33301 -8.66699 -10.833 -19.167 -16.5 -31.5s-10.334 -23 -14.001 -32s-5.83398 -14.167 -6.50098 -15.5c-14.667 -13.333 -38.334 -21 -71.001 -23c1.33301 60.667 26.666 118 75.999 172s102 81 158 81
c34.667 0 60.667 -11 78 -33s26 -50 26 -84z" />
    <glyph glyph-name="afii10033" unicode="&#x41f;" horiz-adv-x="611" 
d="M667 545c0 -16.667 -5.82812 -39.3311 -17.4951 -67.998s-28.834 -64.834 -51.501 -108.501l-40 -77.5c-20 -40.667 -35 -72.5 -45 -95.5s-20.833 -54.5 -32.5 -94.5s-17.5 -76 -17.5 -108l-43 9c-14.667 2.66699 -24 6 -28 10s-6 10.333 -6 19
c0 25.333 11.667 68 35 128s46.666 111.667 69.999 155c69.333 124.667 104 201.334 104 230.001c0 9.33301 -6.33301 14 -19 14c-32.667 0 -96.334 -50 -191.001 -150s-157.334 -178.667 -188.001 -236c-0.666992 -0.666992 -5.33398 -10.834 -14.001 -30.501l-26.5 -58
c-9 -19 -19 -36.667 -30 -53s-19.833 -24.5 -26.5 -24.5c-11.333 0 -18.833 2.5 -22.5 7.5s-5.5 13.833 -5.5 26.5c0 28.667 20.5 87 61.5 175l122.5 255.5c40.667 82.333 60.667 131.166 60 146.499c0 9.33301 -4.33301 14 -13 14c-23.333 0 -49.666 -16.667 -78.999 -50
s-54.333 -70.333 -75 -111s-33.334 -75 -38.001 -103c-2 -14.667 -9.66699 -26.334 -23 -35.001s-25.666 -13 -36.999 -13c-14.667 0 -22 10.333 -22 31s8.66699 50.167 26 88.5s39 76.833 65 115.5s56.333 72.334 91 101.001s66.667 43 96 43c25.333 0 45.833 -7 61.5 -21
s23.5 -33.667 23.5 -59v-4c-0.666992 -21.333 -22.334 -77.333 -65.001 -168c110 119.333 196 179 258 179c34 0 56.167 -7 66.5 -21s15.5 -33.667 15.5 -59z" />
    <glyph glyph-name="afii10034" unicode="&#x420;" horiz-adv-x="490" 
d="M488 581c0 26 -16.333 43.333 -49 52l-112 -250l56.5 41.5c14.333 11 30.833 25.5 49.5 43.5s32.5 36.333 41.5 55s13.5 38 13.5 58zM564 577c0 -80.667 -76.334 -171.337 -229.001 -272.004c-18.667 13.333 -29.334 21.333 -32.001 24c-18 -38 -37 -74 -57 -108
s-43.667 -69.167 -71 -105.5s-56.833 -65.166 -88.5 -86.499s-63.167 -32 -94.5 -32c-13.333 0 -28.666 2.5 -45.999 7.5s-27 12.5 -29 22.5c0 8.66699 4.83301 19.167 14.5 31.5s19.167 18.5 28.5 18.5c13.333 -8.66699 25 -13 35 -13c23.333 0 48.666 12.5 75.999 37.5
s53 56.833 77 95.5s43.5 72.334 58.5 101.001s28.167 55.334 39.5 80.001c10.667 22 48 105 112 249c-49.333 -15.333 -97.5 -47.833 -144.5 -97.5s-79.833 -97.834 -98.5 -144.501c-5.33301 -14 -13.666 -23.333 -24.999 -28c-11.333 2.66699 -20.833 8.33398 -28.5 17.001
s-11.5 17.667 -11.5 27c0 8.66699 7 25.334 21 50.001s25.333 42.667 34 54c40 53.333 86.333 99 139 137s107.334 57 164.001 57h7c42.667 0 78.167 -11.167 106.5 -33.5s42.5 -51.833 42.5 -88.5z" />
    <glyph glyph-name="afii10035" unicode="&#x421;" horiz-adv-x="537" 
d="M574 578c0 -51.333 -20.3359 -101.336 -61.0029 -150.003s-87.667 -87.334 -141 -116.001c-8 -4 -24.5 -9.33301 -49.5 -16s-44.5 -10 -58.5 -10c-12 0 -18 2.66699 -18 8c0 10.667 3.5 21.834 10.5 33.501s15.167 19.167 24.5 22.5c43.333 16.667 71.666 29 84.999 37
c36 20.667 68 48.834 96 84.501s42 70.834 42 105.501c0 38.667 -20.333 58 -61 58c-31.333 0 -68.666 -13.5 -111.999 -40.5s-84.166 -60.667 -122.499 -101s-70.666 -87.166 -96.999 -140.499s-39.166 -103.333 -38.499 -150c0.666992 -40.667 11.334 -74 32.001 -100
s51.334 -39 92.001 -39c89.333 0 159.666 49.333 210.999 148c20 0 39 -7.66699 57 -23c-20 -55.333 -54.667 -101.166 -104 -137.499s-102 -54.5 -158 -54.5c-137.333 0 -206 72 -206 216c0 45.333 14.167 96.666 42.5 153.999s63.833 110.333 106.5 159
s91.667 89.667 147 123s107.666 50 156.999 50c38.667 0 69 -10.833 91 -32.5s33 -51.167 33 -88.5z" />
    <glyph glyph-name="afii10036" unicode="&#x422;" horiz-adv-x="831" 
d="M893 511c0 -20 -5.33105 -42.501 -15.998 -67.501s-25.167 -53.333 -43.5 -85s-30.833 -54.5 -37.5 -68.5c-63.333 -136.667 -95 -235.667 -95 -297l-40 9c-14 3.33301 -23.5 6.83301 -28.5 10.5s-7.5 9.83398 -7.5 18.501c0 26 14 73.833 42 143.5s54 126.5 78 170.5
c7.33301 14 19.166 34.167 35.499 60.5s28 47.5 35 63.5s10.5 30.667 10.5 44c0 4.66699 -5 7 -15 7c-31.333 0 -79 -33.833 -143 -101.5s-110.333 -126.167 -139 -175.5c-4 -7.33301 -19.833 -38.333 -47.5 -93s-45.167 -90.334 -52.5 -107.001
c-17.333 -30 -35 -45 -53 -45c-2.66699 0 -9.33398 0.666992 -20.001 2s-23.667 2 -39 2l177 335c55.333 104 83 181 83 231c0 5.33301 -4 8 -12 8h-6c-24.667 0 -66 -32.333 -124 -97s-110.167 -129.167 -156.5 -193.5s-76.5 -109.5 -90.5 -135.5
c-6 -11.333 -14.667 -26.5 -26 -45.5s-25.833 -40.667 -43.5 -65s-30.167 -36.5 -37.5 -36.5c-11.333 0 -18.833 2.5 -22.5 7.5s-5.5 13.5 -5.5 25.5s5.33301 29.5 16 52.5s26.5 53.833 47.5 92.5s36.833 69.334 47.5 92.001c96.667 204.667 144.667 319.334 144 344.001
c0 9.33301 -4.33301 14 -13 14c-23.333 0 -49.666 -16.667 -78.999 -50s-54.333 -70.333 -75 -111s-33.334 -75 -38.001 -103c-2 -14.667 -9.66699 -26.334 -23 -35.001s-25.666 -13 -36.999 -13c-14.667 0 -22 10.333 -22 31s8.66699 50.167 26 88.5s39 76.833 65 115.5
s56.333 72.334 91 101.001s66.667 43 96 43c25.333 0 45.833 -7 61.5 -21s23.5 -33.667 23.5 -59v-4c-1.33301 -24.667 -18 -74.667 -50 -150c93.333 119.333 174.666 179 243.999 179c24 0 41.667 -9.33301 53 -28s17 -36.334 17 -53.001c0 -27.333 -5.33301 -56 -16 -86
c74.667 73.333 136 110 184 110c26.667 0 46.167 -7 58.5 -21s18.5 -32 18.5 -54z" />
    <glyph glyph-name="afii10037" unicode="&#x423;" horiz-adv-x="556" 
d="M625 558l-240.997 -541.003c-36.667 -81.333 -73 -148 -109 -200c-24.667 -35.333 -43 -56.666 -55 -63.999c-7.33301 -4 -14.333 -6 -21 -6c-17.333 0 -26 7.33301 -26 22c0 8.66699 6.33301 22.667 19 42c26 35.333 72.333 125 139 269l69 151
c-161.333 -159.333 -269.333 -239 -324 -239c-13.333 0 -24.333 1.83301 -33 5.5s-14.667 9.33398 -18 17.001s-5.5 14.167 -6.5 19.5s-1.5 12.333 -1.5 21c0 16.667 40.333 109.167 121 277.5s120.667 262.833 120 283.5v3v7c0 2.66699 -1.33301 4 -4 4
c-29.333 0 -60.833 -32 -94.5 -96s-52.834 -114.333 -57.501 -151c0 -2 -0.333008 -4 -1 -6s-1.33398 -3.83301 -2.00098 -5.5s-1.16699 -3.16699 -1.5 -4.5s-1.16602 -2.66602 -2.49902 -3.99902s-2.16602 -2.33301 -2.49902 -3s-1.5 -1.66699 -3.5 -3
s-3.33301 -2.33301 -4 -3s-2.33398 -1.83398 -5.00098 -3.50098s-4.33398 -2.83398 -5.00098 -3.50098c-12.667 -8.66699 -30.334 -16 -53.001 -22c0 40.667 11.333 90 34 148s53.5 110 92.5 156s77.833 69 116.5 69c46 0 69 -26.667 69 -80v-6
c-0.666992 -20 -41 -114.667 -121 -284s-120 -257.666 -120 -264.999l-1 -2c0 -0.666992 0.333008 -1 1 -1c12.667 0 56.167 32.833 130.5 98.5s135.5 123.5 183.5 173.5c36 38 61.5 68.833 76.5 92.5s36.5 64.834 64.5 123.501z" />
    <glyph glyph-name="afii10038" unicode="&#x424;" horiz-adv-x="718" 
d="M389 487c-6.66699 16.667 -26.334 25 -59.001 25c-64.667 0 -121.5 -24.167 -170.5 -72.5s-73.5 -99.833 -73.5 -154.5c0 -44 23 -66 69 -66c24.667 0 56.334 9.66699 95.001 29c9.33301 -6 17.333 -13.667 24 -23c36.667 74.667 75 162 115 262zM647 410
c0 44 -23 65.999 -69 65.999c-13.333 0 -32.333 -4.66699 -57 -14s-38 -14 -40 -14c-15.333 0 -25 4.33301 -29 13l-107 -257c8 -14.667 27.333 -22 58 -22c65.333 0 122.333 24.333 171 73s73 100.334 73 155.001zM719 411.999
c0 -72.667 -32.3291 -139.338 -96.9961 -200.005s-135 -91 -211 -91c-40.667 0 -72 8 -94 24c-30 -61.333 -51.667 -102.666 -65 -123.999c-6 -9.33301 -10.667 -16.333 -14 -21s-8.5 -9.66699 -15.5 -15s-14.167 -8 -21.5 -8c-2.66699 0 -11.334 0.5 -26.001 1.5
s-30.334 1.5 -47.001 1.5c44.667 62.667 87.334 132.334 128.001 209.001c-42.667 -24 -78 -36 -106 -36c-42.667 0 -76 11.5 -100 34.5s-36 54.833 -36 95.5c0 72.667 32.333 139.334 97 200.001s135 91 211 91c38.667 0 69 -7.33301 91 -22l3 6c10 24 24 47 42 69
c-6 0 -14.167 0.166992 -24.5 0.5s-17.833 0.5 -22.5 0.5c-50.667 0 -78.667 -7.66699 -84 -23c-2.66699 -7.33301 -8.83398 -14 -18.501 -20s-19.167 -9 -28.5 -9c-4 0 -7.66699 1 -11 3c-7.33301 3.33301 -11 12.333 -11 27c0 16.667 5.66699 30.667 17 42
s27.666 19.5 48.999 24.5s40.833 8.5 58.5 10.5s39.667 3.5 66 4.5s43.5 1.83301 51.5 2.5c5.33301 0.666992 16.333 2.5 33 5.5s27.667 4.83301 33 5.5c3.33301 0.666992 8 1 14 1c22 0 34.333 -10.667 37 -32v-6c0 -24.667 -10.667 -38.667 -32 -42
c-35.333 -6 -57.333 -13.333 -66 -22c-14 -15.333 -29 -43.333 -45 -84c0 -0.666992 -0.5 -2.16699 -1.5 -4.5s-1.83301 -4.16602 -2.5 -5.49902c1.33301 1.33301 3.66602 2.83301 6.99902 4.5l7 3.5c8.66699 4.66699 23.667 10.334 45 17.001s39.333 10 54 10
c42.667 0 76 -11.5 100 -34.5s36 -54.5 36 -94.5z" />
    <glyph glyph-name="afii10039" unicode="&#x425;" horiz-adv-x="481" 
d="M592 662c2 -12 3.00293 -22.6611 3.00293 -31.9941c0 -24.667 -10.333 -43.334 -31 -56.001c-29.333 -18 -74.5 -59.833 -135.5 -125.5s-91.5 -102.167 -91.5 -109.5c0 -112 12.333 -202.667 37 -272c2 -6.66699 4.66699 -13.667 8 -21s5.83301 -13 7.5 -17
s2.5 -6.66699 2.5 -8c0 -14 -14.667 -21 -44 -21c-14.667 0 -24.834 2.5 -30.501 7.5s-11.5 18.167 -17.5 39.5c-20 66 -32 136.667 -36 212l-48.5 -55l-55 -61.5c-11.667 -13 -27.834 -29.833 -48.501 -50.5s-40 -39 -58 -55l-16 -15.5c-7.33301 -7 -12.833 -12 -16.5 -15
s-9.33398 -6 -17.001 -9s-15.834 -4.5 -24.501 -4.5h-7l-83 6c42 28.667 82.5 60.167 121.5 94.5s69.667 63.166 92 86.499l85.5 93c0.666992 1.33301 7.83398 8.66602 21.501 21.999l38.5 39c12 12.667 18 20 18 22l-2 262c0 0.666992 1 2.66699 3 6s3 5.66602 3 6.99902
c0 0.666992 -0.333008 1 -1 1c-16 0 -52 -39 -108 -117c-8.66699 -12.667 -16.667 -19 -24 -19c-6 0 -12 6.66699 -18 20s-9 23 -9 29c0 7.33301 9.16699 23.166 27.5 47.499s41.5 48.166 69.5 71.499s52 35 72 35c18.667 0 33.5 -5.5 44.5 -16.5s16.5 -25.5 16.5 -43.5v-1
l-3 -191c44 57.333 99.333 114 166 170c38 30 67.333 45 88 45z" />
    <glyph glyph-name="afii10040" unicode="&#x426;" horiz-adv-x="610" 
d="M623 595c0 -48.667 -25.3359 -120.999 -76.0029 -216.999c-66.667 -124.667 -105.334 -224.334 -116.001 -299.001c25.333 16.667 41.666 29 48.999 37c4.66699 5.33301 10.667 16 18 32s15.5 29.167 24.5 39.5s20.167 15.5 33.5 15.5
c8.66699 0 16.834 -3.33301 24.501 -10s11.5 -14.334 11.5 -23.001c0 -20 -7.66699 -38.667 -23 -56c-5.33301 -7.33301 -11.666 -14.666 -18.999 -21.999c-48.667 -104 -73 -189.333 -73 -256c0 -18.667 -11 -28.667 -33 -30l-47 -7c2 67.333 15.667 136 41 206
c-16 -8 -30.333 -12 -43 -12s-23.167 4.66699 -31.5 14s-12.5 21 -12.5 35c0 19.333 4.33301 44.333 13 75c-79.333 -82.667 -155 -124 -227 -124c-68 0 -102 30.667 -102 92c0 30.667 19.667 85.167 59 163.5l118 229.5c39.333 74.667 59 123 59 145c0 5.33301 -2 8 -6 8
c-22 0 -45.833 -19.167 -71.5 -57.5s-46 -75.666 -61 -111.999s-25.833 -65.833 -32.5 -88.5c-3.33301 -9.33301 -11.5 -19.5 -24.5 -30.5s-23.833 -16.5 -32.5 -16.5c-6.66699 0 -12 3.16699 -16 9.5s-6 13.5 -6 21.5c0 13.333 7.16699 38 21.5 74s32.5 74.167 54.5 114.5
s49.333 76 82 107s64.667 46.5 96 46.5c22.667 0 39.334 -7.5 50.001 -22.5s16 -33.833 16 -56.5c0 -26 -19.667 -77.167 -59 -153.5l-118 -228.5c-39.333 -76 -59 -127 -59 -153c0 -7.33301 3.16699 -13.333 9.5 -18s13.833 -7 22.5 -7c43.333 0 89 20.167 137 60.5
s90.333 89 127 146s68.334 113.667 95.001 170s43.667 102.5 51 138.5c2 12 10.333 23.833 25 35.5s25.334 17.5 32.001 17.5c4.66699 0 9 -2.83301 13 -8.5s6 -13.834 6 -24.501z" />
    <glyph glyph-name="afii10041" unicode="&#x427;" horiz-adv-x="611" 
d="M645 569c0 -8.66699 -8.33301 -26.6709 -25 -54.0039l-49 -91c1.33301 0.666992 8.5 3 21.5 7s25.167 8.33301 36.5 13c4 -12 6 -23.333 6 -34c0 -20 -7.66699 -33.333 -23 -40c-20.667 -9.33301 -48.334 -20 -83.001 -32c-68.667 -136 -103 -238.333 -103 -307
c0 -16.667 -11 -26.667 -33 -30l-47 -7c1.33301 84 26.333 179.667 75 287c4.66699 6.66699 10 15.667 16 27c-103.333 -30.667 -172.666 -46 -207.999 -46c-32 0 -48 13.333 -48 40c0 16.667 10.167 44.334 30.5 83.001s40.5 79.667 60.5 123s30 79 30 107
c0 10.667 -4.33301 16 -13 16c-23.333 0 -49.666 -16.5 -78.999 -49.5s-54.333 -70.167 -75 -111.5s-33.334 -75.666 -38.001 -102.999c-2.66699 -14.667 -10.5 -26.334 -23.5 -35.001s-25.167 -13 -36.5 -13c-6.66699 0 -12 3 -16 9s-6 13 -6 21
c0 20.667 8.66699 50.334 26 89.001s39 77.334 65 116.001s56.333 72.334 91 101.001s66.667 43 96 43c26 0 46.667 -6.83301 62 -20.5s23 -33.167 23 -58.5c0 -19.333 -6.33301 -45.833 -19 -79.5s-29.167 -72.167 -49.5 -115.5s-33.5 -72.333 -39.5 -87
c46 6 116 24 210 54c7.33301 15.333 38 74.333 92 177c9.33301 18 24.333 27 45 27c10.667 0 18 -1.83301 22 -5.5s6 -10.5 6 -20.5z" />
    <glyph glyph-name="afii10042" unicode="&#x428;" horiz-adv-x="895" 
d="M945 523c0 -5.33301 -8.33398 -23.3359 -25.001 -54.0029c-109.333 -204 -164 -350 -164 -438c0 -16.667 -11 -26.667 -33 -30l-47 -7c0.666992 34 5 69 13 105s15.167 62.5 21.5 79.5s17.166 44.5 32.499 82.5l14 35c-183.333 -198 -297 -297 -341 -297
c-32 0 -48 13 -48 39c0 56.667 24.333 137.334 73 242.001l13 28c-182 -206 -298 -309 -348 -309c-32 0 -48 13 -48 39c0 28 20.333 82.667 61 164l122 245c40.667 82 61 138 61 168c0 10.667 -4.33301 16 -13 16c-23.333 0 -49.666 -16.5 -78.999 -49.5
s-54.333 -70.167 -75 -111.5s-33.334 -75.666 -38.001 -102.999c-2.66699 -14.667 -10.5 -26.334 -23.5 -35.001s-25.167 -13 -36.5 -13c-6.66699 0 -12 3 -16 9s-6 13 -6 21c0 20.667 8.66699 50.334 26 89.001s39 77.334 65 116.001s56.333 72.334 91 101.001
s66.667 43 96 43c26 0 46.667 -6.83301 62 -20.5s23 -33.167 23 -58.5c0 -39.333 -34.833 -126.333 -104.5 -261s-111.167 -223.334 -124.5 -266.001c28 20 56.667 45.167 86 75.5s60.333 64.333 93 102s57.667 65.167 75 82.5l114 115c33.333 33.333 58.333 67 75 101
c9.33301 18 24.333 27 45 27c10.667 0 18 -1.83301 22 -5.5s6 -10.5 6 -20.5c0 -5.33301 -8.33301 -23.333 -25 -54c-113.333 -201.333 -176 -344.333 -188 -429c28.667 20.667 57.834 45.834 87.501 75.501s62.834 65.5 99.501 107.5l74 84
c94 87.333 147 143.666 159 168.999c9.33301 18 24.333 27 45 27c10.667 0 18 -1.83301 22 -5.5s6 -10.5 6 -20.5z" />
    <glyph glyph-name="afii10043" unicode="&#x429;" horiz-adv-x="937" 
d="M945 522c0 -3.33301 -8.33594 -21.665 -25.0029 -54.998c-88.667 -167.333 -142 -296 -160 -386c22.667 13.333 38.334 25 47.001 35c4.66699 5.33301 10.667 16 18 32s15.5 29.167 24.5 39.5s20.167 15.5 33.5 15.5c8.66699 0 16.834 -3.33301 24.501 -10
s11.5 -14.334 11.5 -23.001c0 -20 -7.66699 -38.667 -23 -56c-5.33301 -7.33301 -11.666 -14.666 -18.999 -21.999c-48.667 -104 -73 -189.333 -73 -256c0 -18.667 -11 -28.667 -33 -30l-47 -7c1.33301 67.333 14.666 136 39.999 206c-14.667 -8 -28.667 -12 -42 -12
c-12.667 0 -23.167 4.66699 -31.5 14s-12.5 21 -12.5 35c0 39.333 21.667 111 65 215l15 36c-185.333 -200 -299.333 -300 -342 -300c-32 0 -48 13 -48 39c0 55.333 24.333 136.666 73 243.999l13 29c-184 -208 -300 -312 -348 -312c-32 0 -48 13 -48 39
c0 28.667 20.333 84 61 166l122 247.5c40.667 83 61 139.5 61 169.5c0 10.667 -4.33301 16 -13 16c-23.333 0 -49.666 -16.667 -78.999 -50s-54.333 -70.833 -75 -112.5s-33.334 -76.5 -38.001 -104.5c-2.66699 -14.667 -10.5 -26.334 -23.5 -35.001s-25.167 -13 -36.5 -13
c-14.667 0 -22 10.333 -22 31c0 28.667 14 70.667 42 126s64.667 106.833 110 154.5s87.333 71.5 126 71.5c26 0 46.667 -7 62 -21s23 -33.667 23 -59c0 -30.667 -15.333 -78.5 -46 -143.5l-105 -212c-39.333 -76.333 -65.333 -135.5 -78 -177.5
c37.333 28 87.333 77.333 150 148s97.334 109.334 104.001 116.001l114 115c33.333 33.333 58.333 67.666 75 102.999c9.33301 18 24.333 27 45 27c10.667 0 18 -1.83301 22 -5.5s6 -10.5 6 -20.5c0 -6 -8.33301 -24.333 -25 -55c-113.333 -203.333 -176 -348 -188 -434
c28.667 20.667 57.834 46.167 87.501 76.5s62.667 66.833 99 109.5s61.166 71 74.499 85c94 88 147 144.667 159 170c8.66699 18 23.667 27 45 27c10.667 0 18 -1.83301 22 -5.5s6 -10.5 6 -20.5z" />
    <glyph glyph-name="afii10044" unicode="&#x42a;" horiz-adv-x="586" 
d="M437 248c0 28.667 -6.83203 51.334 -20.499 68.001s-31.834 25 -54.501 25c-17.333 0 -34 -2.66699 -50 -8c-7.33301 -2.66699 -14 -4 -20 -4c-7.33301 0 -13.333 2.33301 -18 7c-58.667 -75.333 -88 -132.333 -88 -171c0 -36.667 10.167 -62.834 30.5 -78.501
s41.833 -23.5 64.5 -23.5c40 0 76 20 108 60s48 81.667 48 125zM535.001 659c0 -12.667 -12.333 -25.334 -37 -38.001c-57.333 -67.333 -90.333 -107 -99 -119c-7.33301 -9.33301 -18.666 -25 -33.999 -47s-27.333 -38.667 -36 -50c10.667 2 21.667 3 33 3
c38.667 0 73 -13.167 103 -39.5s45 -65.166 45 -116.499c0 -64 -22 -122.167 -66 -174.5s-101 -78.5 -171 -78.5c-42.667 0 -79.667 13.167 -111 39.5s-47 68.833 -47 127.5c0 26.667 8.5 58 25.5 94s41.167 75.167 72.5 117.5s60 79.166 86 110.499l92 108l22 25h-143
c-2.66699 0 -9.66699 0.166992 -21 0.5s-21.333 0.5 -30 0.5c-57.333 0 -86 -11.333 -86 -34c0 -10.667 7.16699 -21.167 21.5 -31.5s32.5 -20.5 54.5 -30.5s35.667 -16.667 41 -20c0 -11.333 -5.16699 -21.833 -15.5 -31.5s-19.833 -14.5 -28.5 -14.5
c-5.33301 0 -18.666 4.33301 -39.999 13s-43.833 23.5 -67.5 44.5s-35.5 44.167 -35.5 69.5c0 26.667 9.66699 47.667 29 63s42.666 25.333 69.999 30s61.666 7 102.999 7h194c3.33301 0.666992 8.5 2.33398 15.5 5.00098s14.167 4 21.5 4c12 0 21.5 -3.33301 28.5 -10
s10.5 -15.667 10.5 -27z" />
    <glyph glyph-name="afii10045" unicode="&#x42b;" horiz-adv-x="611" 
d="M717 621c-6.66699 -14 -19.1641 -37.1641 -37.4971 -69.4971l-40.5 -72.5c-2 -3.33301 -12.667 -23 -32 -59l-40.5 -76.5c-7.66699 -15 -19.834 -40.167 -36.501 -75.5s-28.834 -64 -36.501 -86s-14.834 -47.333 -21.501 -76s-10 -54.334 -10 -77.001
c0 -16.667 -11 -26.667 -33 -30l-47 -7c2 94.667 27 190.334 75 287.001c20 46.667 45.667 98.334 77 155.001c-65.333 -35.333 -127 -60 -185 -74c24 -26.667 36 -62.334 36 -107.001c0 -62.667 -23 -120.334 -69 -173.001s-102 -79 -168 -79
c-43.333 0 -80.5 13.167 -111.5 39.5s-46.5 68.833 -46.5 127.5c0 55.333 19.667 127.166 59 215.499s81.333 169.166 126 242.499l41 61c9.33301 6.66699 19 10 29 10l42 -4v-4c0 -14 -6.66699 -32 -20 -54c-38 -61.333 -64 -105.333 -78 -132
c-85.333 -156.667 -128 -269 -128 -337c0 -36 10.333 -61.833 31 -77.5s42 -23.5 64 -23.5c40 0 76 19.833 108 59.5s48 81.167 48 124.5c0 28.667 -6.83301 51.334 -20.5 68.001s-31.834 25 -54.501 25c-17.333 0 -34 -2.66699 -50 -8c-6 -2 -11.333 -3 -16 -3
c-10 0 -18 3.33301 -24 10s-9 13.667 -9 21c0 31.333 22.667 47 68 47h9c5.33301 0 12 -0.333008 20 -1s14 -1 18 -1h5c58.667 2.66699 125.334 23.5 200.001 62.5s122 69.5 142 91.5l50 104c6.66699 14 12.5 22.5 17.5 25.5s14.167 4.5 27.5 4.5h3c18 0 27 -12 27 -36
c0 -14.667 -2.66699 -27.334 -8 -38.001z" />
    <glyph glyph-name="afii10046" unicode="&#x42c;" horiz-adv-x="466" 
d="M415 252c0 -64 -22 -122.167 -66 -174.5s-101 -78.5 -171 -78.5c-43.333 0 -80.5 13.333 -111.5 40s-46.5 69.334 -46.5 128.001c0 55.333 19.667 127.333 59 216s81.333 169.667 126 243l51 75c8.66699 7.33301 18.334 11 29.001 11l42 -4v-4
c0 -14.667 -6.66699 -33 -20 -55c-44 -70 -73.333 -118.667 -88 -146l-61 -118.5c-16 -32.333 -31.167 -69.833 -45.5 -112.5s-21.5 -78.334 -21.5 -107.001c0 -36.667 10.167 -62.834 30.5 -78.501s41.833 -23.5 64.5 -23.5c40 0 76 20 108 60s48 81.667 48 125
c0 28.667 -6.83301 51.334 -20.5 68.001s-31.834 25 -54.501 25c-19.333 0 -36 -2.33301 -50 -7c-7.33301 -2.66699 -14.333 -4 -21 -4c-14 0 -22.333 7 -25 21c-1.33301 3.33301 -2 7.66602 -2 12.999c0 15.333 16 28 48 38c11.333 4 28 6 50 6
c38.667 0 73 -13.167 103 -39.5s45 -65.166 45 -116.499z" />
    <glyph glyph-name="afii10047" unicode="&#x42d;" horiz-adv-x="502" 
d="M567 558c0 -54 -23.6689 -114.671 -71.002 -182.004s-103.333 -127.666 -168 -180.999s-130.667 -98.333 -198 -135s-120.666 -55 -159.999 -55h-77c0 26 5.33301 46.333 16 61c12 1.33301 28 2 48 2c12.667 0 26.667 2.33301 42 7s30.833 10.834 46.5 18.501
s29.167 14.667 40.5 21s23.166 13.333 35.499 21s18.833 11.834 19.5 12.501c76 44 146.333 98 211 162c-150.667 -30 -226 -54.333 -226 -73c-9.33301 -8.66699 -20.333 -13 -33 -13c-6 0 -12 1 -18 3s-10.667 4 -14 6l-5 3c0 16 14.167 32.667 42.5 50
s63.166 32.833 104.499 46.5s80.833 25.5 118.5 35.5s70.5 17.333 98.5 22c47.333 61.333 71 117.333 71 168c0 24 -7.16699 42.833 -21.5 56.5s-34.166 20.5 -59.499 20.5c-56.667 0 -114.667 -27.667 -174 -83s-99.666 -111 -120.999 -167c-6 -14.667 -14.333 -24 -25 -28
c-11.333 2.66699 -20.833 8.33398 -28.5 17.001s-11.5 17.334 -11.5 26.001c0 8 6.83301 24.167 20.5 48.5s25.167 43.166 34.5 56.499c39.333 53.333 85.5 98.833 138.5 136.5s107.833 56.5 164.5 56.5c44.667 0 82.334 -12.5 113.001 -37.5s46 -59.167 46 -102.5z" />
    <glyph glyph-name="afii10048" unicode="&#x42e;" horiz-adv-x="1017" 
d="M254 177c-14.667 -1.33301 -35.3301 -3.66797 -61.9971 -7.00098s-43 -5.33301 -49 -6c-14.667 -2 -29.834 -4.5 -45.501 -7.5s-33.834 -7.16699 -54.501 -12.5s-37.834 -12.666 -51.501 -21.999s-21.167 -19.333 -22.5 -30v-3c0 -16.667 16 -25 48 -25
c54.667 0 99.5 9.33301 134.5 28s69.167 47 102.5 85zM1042 508.998c0 -37.333 -7.33008 -78.9971 -21.9971 -124.997s-35.5 -91.5 -62.5 -136.5s-57.5 -86.333 -91.5 -124s-72.5 -68.167 -115.5 -91.5s-85.833 -35 -128.5 -35c-52 0 -91 14.333 -117 43
s-39 67.334 -39 116.001c0 16.667 0.333008 28.667 1 36c-50 -2 -88.667 -4.66699 -116 -8c-22 -28 -42.667 -51.833 -62 -71.5s-42.5 -39 -69.5 -58s-57.5 -33.333 -91.5 -43s-71.333 -14.5 -112 -14.5c-30 0 -57 8.16699 -81 24.5s-36 39.5 -36 69.5
c0 80 136.333 131 409 153c35.333 58 66.5 118.667 93.5 182s44.167 120 51.5 170c0.666992 5.33301 1.5 10 2.5 14s2.66699 7.5 5 10.5s4 5.33301 5 7s3.16699 3.16699 6.5 4.5s5.33301 2.16602 6 2.49902s3.33398 0.833008 8.00098 1.5l6 2
c13.333 0 23.5 -1.83301 30.5 -5.5s10.5 -11.167 10.5 -22.5c0 -20 -14.5 -71.833 -43.5 -155.5s-59.833 -152.167 -92.5 -205.5c4 0 11.167 0.333008 21.5 1l30 2c9.66699 0.666992 18.834 1 27.501 1c16.667 72.667 47.5 142.667 92.5 210s97.167 122 156.5 164
c26.667 18.667 58 35.334 94 50.001s67.667 22 95 22c8 0 16 -2.33301 24 -7s13 -10.667 15 -18c0 -8.66699 -2.5 -16.334 -7.5 -23.001s-11.167 -10 -18.5 -10c-18.667 0 -43.5 -6.33301 -74.5 -19s-57.5 -26.667 -79.5 -42c-50.667 -34.667 -96.667 -82.334 -138 -143.001
s-70 -123 -86 -187c25.333 -2.66699 49.666 -6.5 72.999 -11.5s37.333 -9.16699 42 -12.5c0 -14 -5.33301 -34.667 -16 -62c-40 16.667 -76.667 26 -110 28c-1.33301 -16 -2 -27.667 -2 -35c0 -28.667 7.66699 -51.334 23 -68.001s37.333 -25 66 -25
c43.333 0 87 16.167 131 48.5s81.333 71.666 112 117.999s55.667 95 75 146s29 95.833 29 134.5c0 34.667 -16 52 -48 52c-20.667 0 -41 -9 -61 -27s-37 -38.333 -51 -61c-5.33301 -8.66699 -10.833 -19.167 -16.5 -31.5s-10.334 -23 -14.001 -32
s-5.83398 -14.167 -6.50098 -15.5c-14.667 -13.333 -38.334 -21 -71.001 -23c1.33301 60.667 26.666 118 75.999 172s102 81 158 81c34.667 0 60.667 -11 78 -33s26 -50 26 -84z" />
    <glyph glyph-name="afii10049" unicode="&#x42f;" horiz-adv-x="543" 
d="M459 583c1.33301 8 2 13.333 2 16c0 22.667 -10.333 34 -31 34c-42 0 -86.833 -26.5 -134.5 -79.5s-71.5 -109.167 -71.5 -168.5c0 -16 4.5 -28.667 13.5 -38s21.5 -14 37.5 -14c29.333 0 64 13.333 104 40c44 92.667 70.667 162.667 80 210zM599 530
c0 -6.66699 -8.3291 -24.998 -24.9961 -54.998c-32 -58.667 -66 -135 -102 -229s-54 -163.333 -54 -208c0 -18 -11 -28.333 -33 -31l-47 -6c1.33301 76 24.666 171 69.999 285c-29.333 -58.667 -52.666 -98 -69.999 -118c-22 -26 -40.667 -46.5 -56 -61.5
s-36 -31.5 -62 -49.5s-55.5 -31.333 -88.5 -40s-69.833 -13 -110.5 -13c-30 0 -57 8 -81 24s-36 39 -36 69c0 64 80 109.667 240 137c16 -20 24 -35.667 24 -47c0 -9.33301 -6.66699 -15 -20 -17c-14.667 -2 -29.834 -4.5 -45.501 -7.5s-33.834 -7.16699 -54.501 -12.5
s-37.834 -12.666 -51.501 -21.999s-21.167 -19.333 -22.5 -30v-3c0 -16 16 -24 48 -24c61.333 0 109.5 10.5 144.5 31.5s72.5 55.833 112.5 104.5c16 19.333 31.333 41.333 46 66c-20 -4.66699 -38.333 -7 -55 -7c-38.667 0 -68 10.833 -88 32.5s-30 51.167 -30 88.5
c0 48.667 14.167 97.167 42.5 145.5s65.166 87.666 110.499 117.999s91 45.5 137 45.5c28.667 0 51 -7.83301 67 -23.5s24 -36.834 24 -63.501c0 -10.667 -0.666992 -19 -2 -25c-2.66699 -15.333 -13 -47 -31 -95c10 11.333 18.667 24.666 26 39.999
c8.66699 17.333 23.667 26 45 26c10.667 0 18 -1.83301 22 -5.5s6 -10.167 6 -19.5z" />
    <glyph glyph-name="afii10065" unicode="&#x430;" horiz-adv-x="412" 
d="M415 142c0 -15.333 -31.6689 -43.502 -95.002 -84.502s-105.666 -61.5 -126.999 -61.5c-31.333 0 -47 12.333 -47 37c0 3.33301 0.333008 6 1 8c-32.667 -30 -63 -45 -91 -45c-38 0 -63.833 10.833 -77.5 32.5s-20.5 59.167 -20.5 112.5c0 37.333 18.833 73.333 56.5 108
s80.167 61.5 127.5 80.5s89 28.5 125 28.5c18 0 38.5 -3.5 61.5 -10.5s35.833 -15.833 38.5 -26.5v-2c0 -6 -3.83301 -14.167 -11.5 -24.5s-13.834 -15.5 -18.501 -15.5c-1.33301 0 -4.16602 1.83301 -8.49902 5.5s-12 7.33398 -23 11.001s-24.5 5.5 -40.5 5.5
c-45.333 0 -96.166 -18.5 -152.499 -55.5s-84.5 -75.5 -84.5 -115.5c0 -2.66699 -0.166992 -7 -0.5 -13s-0.5 -10.667 -0.5 -14c0 -28 9.33301 -42 28 -42c22.667 0 56.167 24.833 100.5 74.5s74.833 88.5 91.5 116.5c6 11.333 12 19 18 23s15.333 6 28 6
c3.33301 0 10.5 -2.16699 21.5 -6.5s16.5 -8.16602 16.5 -11.499c0 -2.66699 -31 -65 -93 -187c10 4 20 8.66699 30 14s20.833 12.333 32.5 21l25.5 19c5.33301 4 15.5 12.333 30.5 25s23.833 20 26.5 22h3c8.66699 0 15.667 -4.16699 21 -12.5s8 -15.833 8 -22.5z" />
    <glyph glyph-name="afii10066" unicode="&#x431;" horiz-adv-x="333" 
d="M424 665c0 -8 -2.83008 -17.8301 -8.49707 -29.4971s-12.834 -17.5 -21.501 -17.5c-2 0 -5.83301 2.66699 -11.5 8s-14 10.833 -25 16.5s-23.833 8.5 -38.5 8.5c-40 0 -72.167 -10.167 -96.5 -30.5s-36.5 -49.5 -36.5 -87.5c0 -30.667 3.5 -57.334 10.5 -80.001
s14.667 -40.334 23 -53.001s16 -34 23 -64s10.5 -67 10.5 -111c0 -25.333 -5 -47 -15 -65v-1c-0.666992 -0.666992 -1 -1.33398 -1 -2.00098c0 -6 4 -9 12 -9c6 0 12 1.16699 18 3.5s10.667 4.83301 14 7.5l18 14.5l20 16.5c13.333 -9.33301 20 -21.666 20 -36.999
c0 -18 -11 -34.333 -33 -49c-18.667 -12.667 -39.334 -19 -62.001 -19c-14.667 0 -27.334 3.66699 -38.001 11c-43.333 -66 -97.333 -99 -162 -99c-16.667 0 -31 3 -43 9s-21.167 13.333 -27.5 22s-11.333 20.167 -15 34.5s-6 27.666 -7 39.999s-1.5 27.166 -1.5 44.499
c0 51.333 19.167 97.833 57.5 139.5s78.833 62.5 121.5 62.5c12.667 0 21.5 -2.5 26.5 -7.5s7.5 -13.167 7.5 -24.5c0 -9.33301 -4 -16.666 -12 -21.999s-25 -12.666 -51 -21.999c-22 -8 -40.833 -25.5 -56.5 -52.5s-23.5 -53.5 -23.5 -79.5v-6
c0 -16.667 0.5 -29.5 1.5 -38.5s4.5 -17.333 10.5 -25s14.667 -11.5 26 -11.5c28.667 0 57.5 20.667 86.5 62s43.5 75 43.5 101c0 46 -6 86 -18 120s-24 65.333 -36 94s-18 60 -18 94c0 61.333 19.333 107 58 137s87.667 45 147 45c18 0 39.667 -5.83301 65 -17.5
s38 -21.834 38 -30.501z" />
    <glyph glyph-name="afii10067" unicode="&#x432;" horiz-adv-x="370" 
d="M203 326c-28.667 -31.333 -57.667 -59.999 -87 -85.999c-14 -36 -25 -61 -33 -75c-5.33301 -10.667 -11.333 -26.5 -18 -47.5s-10 -35.5 -10 -43.5c0 -11.333 6 -17 18 -17c21.333 0 49 15.333 83 46l3 3c2 1.33301 3.66699 2.66602 5 3.99902
c-8.66699 24 -13 46.667 -13 68c0 17.333 4.83301 41 14.5 71s22.167 55.667 37.5 77zM258 297.001c-6.66699 0 -14.334 -13.667 -23.001 -41s-13 -50.333 -13 -69v-7c4.66699 5.33301 11.834 21.833 21.501 49.5s14.5 50.167 14.5 67.5zM278 630.001
c-20 -33.333 -55.667 -116.334 -107 -249.001c24.667 28.667 49.5 66.834 74.5 114.501s37.5 85.167 37.5 112.5c0 8 -1.66699 15.333 -5 22zM378 149c0 -15.333 -15.8311 -33.501 -47.498 -54.501s-62.5 -31.5 -92.5 -31.5c-7.33301 0 -16.333 2 -27 6
c-54 -48 -101 -72 -141 -72c-30 0 -51.667 5.16699 -65 15.5s-20 29.166 -20 56.499c0 19.333 2.66699 37 8 53c-11.333 -8.66699 -18 -13 -20 -13c-16 0 -24 9.66699 -24 29c0 12.667 15.667 33.334 47 62.001s49.666 49.667 54.999 63l50 119l108 263
c4.66699 18.667 15.667 35.334 33 50.001c15.333 13.333 28.666 20 39.999 20c12 0 24.333 -7 37 -21c16.667 -17.333 25 -44 25 -80c0 -34.667 -7.16699 -71.834 -21.5 -111.501s-32.5 -72.834 -54.5 -99.501l-40 -49c14 12 28.333 18 43 18c35.333 0 53 -22.667 53 -68
c0 -55.333 -22.667 -114.666 -68 -177.999c14.667 0.666992 29.5 6 44.5 16s27.5 19.667 37.5 29s16 14 18 14c6 0 11.167 -4.66699 15.5 -14s6.5 -16.666 6.5 -21.999z" />
    <glyph glyph-name="afii10068" unicode="&#x433;" horiz-adv-x="335" 
d="M343 150c0 -3.33301 -0.166016 -6.50293 -0.499023 -9.50293s-0.833008 -5.5 -1.5 -7.5s-1.66699 -4.16699 -3 -6.5s-2.5 -4.16602 -3.5 -5.49902s-2.66699 -3 -5 -5s-4.16602 -3.5 -5.49902 -4.5l-7 -5.5c-3.33301 -2.66699 -5.66602 -4.66699 -6.99902 -6
c-88.667 -69.333 -154.667 -104 -198 -104c-28.667 0 -50.834 7.66699 -66.501 23s-23.5 36 -23.5 62c0 22 8 40.833 24 56.5s34 26.167 54 31.5c24.667 6.66699 50.834 22.334 78.501 47.001s41.5 47.667 41.5 69v6c0 4.66699 -3 7 -9 7
c-15.333 0 -35.833 -10.167 -61.5 -30.5s-49.5 -42.5 -71.5 -66.5s-43.333 -46.167 -64 -66.5s-34.334 -30.5 -41.001 -30.5c-5.33301 0 -11.5 3.5 -18.5 10.5s-10.5 14.833 -10.5 23.5c0 7.33301 10 21 30 41l58 55.5l55 52c11.333 10.333 25.5 22.333 42.5 36
s31.833 23 44.5 28s25 7.5 37 7.5c25.333 0 44.833 -6.66699 58.5 -20s20.5 -31.333 20.5 -54c0 -10.667 -2.33301 -22.5 -7 -35.5s-12.834 -28 -24.501 -45s-30.5 -34.167 -56.5 -51.5s-57.667 -32.333 -95 -45c-10 -4 -15 -13 -15 -27c0 -15.333 7.66699 -23 23 -23
c16 0 39.333 9.33301 70 28s57.167 36.667 79.5 54s34.166 27.333 35.499 30c6.66699 5.33301 13.667 8 21 8s12.833 -3.16699 16.5 -9.5s5.5 -12.166 5.5 -17.499z" />
    <glyph glyph-name="afii10069" unicode="&#x434;" horiz-adv-x="370" 
d="M94 -126c-58 -50.667 -87 -84 -87 -100v-1c11.333 0 25.333 10.333 42 31s31.667 44 45 70zM380 147c0 -4.66699 -0.330078 -9.00195 -0.99707 -13.002s-2 -8 -4 -12s-3.5 -7.16699 -4.5 -9.5s-3.16699 -5.16602 -6.5 -8.49902s-5.66602 -5.5 -6.99902 -6.5
s-4 -3.33301 -8 -7s-6.33301 -5.83398 -7 -6.50098c-1.33301 -1.33301 -16.5 -14.666 -45.5 -39.999s-52.833 -47.333 -71.5 -66s-30 -33.334 -34 -44.001c-6.66699 -18 -16.5 -38.5 -29.5 -61.5s-28.333 -47.167 -46 -72.5s-37.167 -46.666 -58.5 -63.999
s-41.666 -26 -60.999 -26c-36.667 0 -55 17.667 -55 53c0 22 15.167 50 45.5 84s61.666 64.833 93.999 92.5s49.166 42.834 50.499 45.501s3.16602 6.83398 5.49902 12.501l9 21l9.5 21.5c-40 -37.333 -74.333 -56 -103 -56c-40 0 -66.667 13 -80 39s-20 62.333 -20 109
c0 36 18.833 72.167 56.5 108.5s80.834 65 129.501 86s91 31.5 127 31.5c18 0 39.667 -5.66699 65 -17s38 -21.333 38 -30c0 -8 -2.83301 -17.833 -8.5 -29.5s-12.834 -17.5 -21.501 -17.5c-2 0 -5.83301 3 -11.5 9s-14 11.833 -25 17.5s-23.833 8.5 -38.5 8.5
c-46.667 0 -98.5 -19.833 -155.5 -59.5s-85.5 -80.834 -85.5 -123.501v-17c0 -32 11.333 -48 34 -48c16.667 0 37.167 11 61.5 33s46.666 46.167 66.999 72.5s40.833 50.5 61.5 72.5s36 33 46 33c5.33301 0 11.166 -3 17.499 -9s9.5 -11 9.5 -15v-1l-65 -150l74 67
c16 12 26.333 18 31 18c6 0 11 -3 15 -9s6 -11.333 6 -16z" />
    <glyph glyph-name="afii10070" unicode="&#x435;" horiz-adv-x="315" 
d="M210 292c0 6 -6.33203 9 -18.999 9c-22 0 -50.833 -14.167 -86.5 -42.5s-58.834 -54.833 -69.501 -79.5h10c42 0 80 11.5 114 34.5s51 49.167 51 78.5zM323.001 147c0 -15.333 -7.33496 -28 -22.002 -38c-2 -2 -9.5 -7.83301 -22.5 -17.5s-22.833 -16.667 -29.5 -21
l-30.5 -20.5c-13.667 -9.33301 -26 -16.5 -37 -21.5s-23.667 -10.333 -38 -16s-28.666 -9.83398 -42.999 -12.501s-28.833 -4 -43.5 -4c-40.667 0 -68.334 11.833 -83.001 35.5s-22 59.834 -22 108.501c0 30 14.5 62.333 43.5 97s63 63.5 102 86.5s72.833 34.5 101.5 34.5
c25.333 0 45.166 -5.5 59.499 -16.5s21.5 -26.167 21.5 -45.5c0 -47.333 -23 -88.166 -69 -122.499s-102 -51.5 -168 -51.5h-22v-7c0 -38.667 16 -58 48 -58c30.667 0 64.334 10 101.001 30s67.334 40 92.001 60s37.334 30 38.001 30c5.33301 0 10.5 -3.83301 15.5 -11.5
s7.5 -13.834 7.5 -18.501z" />
    <glyph glyph-name="afii10072" unicode="&#x436;" horiz-adv-x="779" 
d="M782 144c0 -12.667 -5.66113 -23.3389 -16.9941 -32.0059l-40 -34.5c-22 -19 -39.333 -32.667 -52 -41s-31.667 -17.166 -57 -26.499s-52 -14 -80 -14c-32 0 -56.5 11.833 -73.5 35.5s-25.5 50.834 -25.5 81.501v8l-77 -74c-36 -34 -59.667 -51 -71 -51
c-7.33301 0 -14.833 2.83301 -22.5 8.5s-11.5 12.167 -11.5 19.5v2c1.33301 8.66699 12 33.834 32 75.501s31.667 67.167 35 76.5l2 6c-0.666992 -0.666992 -5.5 -6.5 -14.5 -17.5l-27.5 -32.5c-9.33301 -10.667 -20.833 -23 -34.5 -37s-25.834 -25.333 -36.501 -34
c-52 -44.667 -103.667 -67 -155 -67c-17.333 0 -37.833 3.83301 -61.5 11.5s-35.5 18.167 -35.5 31.5c0 14 9 23.333 27 28c4 0 13.667 -1 29 -3s28.333 -3 39 -3c41.333 0 81.333 20 120 60s58 89.667 58 149c0 18.667 -7 28 -21 28c-15.333 0 -35.833 -10.167 -61.5 -30.5
s-49.5 -42.5 -71.5 -66.5s-43.333 -46.167 -64 -66.5s-34.334 -30.5 -41.001 -30.5c-5.33301 0 -11.5 3.5 -18.5 10.5s-10.5 14.833 -10.5 23.5c0 6 10.333 19.333 31 40l44 41l42 39l36 32.5c14 12.333 25.5 21.833 34.5 28.5l29 20.5c10.333 7 19.5 11.833 27.5 14.5
s15.667 4 23 4c34.667 0 59.5 -7.16699 74.5 -21.5s22.5 -37.166 22.5 -68.499c0 -18 -1.66699 -35.333 -5 -52c43.333 37.333 68.333 62 75 74l6.5 13c3 6 5.33301 10.5 7 13.5s4.16699 7 7.5 12s6.66602 8.66699 9.99902 11s7.66602 4.5 12.999 6.5s11.333 3 18 3
c21.333 -4 32 -11.667 32 -23c0 -3.33301 -4 -13 -12 -29l-61 -124c65.333 65.333 115 109.333 149 132c52.667 35.333 93 53 121 53c20 0 40.167 -5.33301 60.5 -16s30.5 -20.667 30.5 -30c0 -7.33301 -2.83301 -16.666 -8.5 -27.999s-12.834 -17 -21.501 -17
c-2 0 -5 2.5 -9 7.5s-10.667 10.167 -20 15.5s-21.333 8 -36 8c-23.333 0 -55 -19.5 -95 -58.5s-60 -79.833 -60 -122.5c0 -20 3.5 -35 10.5 -45s20.5 -15 40.5 -15c25.333 0 53.666 9.83301 84.999 29.5s57.5 39.334 78.5 59.001s31.833 29.5 32.5 29.5
c7.33301 0 13.333 -3.83301 18 -11.5s7 -14.167 7 -19.5z" />
    <glyph glyph-name="afii10073" unicode="&#x437;" horiz-adv-x="368" 
d="M79 -126c-58 -50.667 -87 -84 -87 -100v-1c11.333 0 25.333 10.333 42 31s31.667 44 45 70zM365 147c0 -6.66699 -0.664062 -12.6699 -1.99707 -18.0029s-3.83301 -10.333 -7.5 -15s-6.33398 -8.16699 -8.00098 -10.5s-5.33398 -5.83301 -11.001 -10.5
s-9.16699 -7.33398 -10.5 -8.00098c-4 -4 -15.333 -14.167 -34 -30.5l-48.5 -43.5c-13.667 -12.667 -27.5 -26.667 -41.5 -42s-22.667 -27 -26 -35c-6.66699 -18 -16.5 -38.5 -29.5 -61.5s-28.333 -47.167 -46 -72.5s-37.167 -46.666 -58.5 -63.999s-41.666 -26 -60.999 -26
c-36.667 0 -55 17.667 -55 53c0 22 16 50.833 48 86.5s64.833 68.167 98.5 97.5s51.167 45.333 52.5 48c12.667 34.667 19 60 19 76c0 0.666992 0.5 3.83398 1.5 9.50098s1.5 9.5 1.5 11.5c0 3.33301 -0.666992 5 -2 5c-5.33301 0 -13.5 -3 -24.5 -9s-20.833 -9 -29.5 -9
c-29.333 0 -44 13 -44 39c0 17.333 9.16699 29.333 27.5 36s38.166 10 59.499 10c16.667 0 38.167 13.167 64.5 39.5s39.5 48.833 39.5 67.5c0 14 -7 21 -21 21c-24.667 0 -54.5 -16.333 -89.5 -49s-66.667 -65.334 -95 -98.001s-46.5 -49 -54.5 -49
c-5.33301 0 -11.5 3.83301 -18.5 11.5s-10.5 15.834 -10.5 24.501c0 6.66699 9.66699 21.334 29 44.001c19.333 18 42.666 41.333 69.999 70s47.5 49.167 60.5 61.5s29.167 23.833 48.5 34.5s39 16 59 16c26.667 0 48.667 -7.66699 66 -23s26 -35.666 26 -60.999
c0 -44.667 -33.333 -91.334 -100 -140.001h-4h-4c-3.33301 0 -5 -0.666992 -5 -2c0 -0.666992 1.5 -3.16699 4.5 -7.5s6.16699 -11.166 9.5 -20.499s5 -20 5 -32v-7l99 89c16 12 26.333 18 31 18c6 0 11 -3 15 -9s6 -11.333 6 -16z" />
    <glyph glyph-name="afii10074" unicode="&#x438;" 
d="M452 157l0.000976562 -4.99805c0 -17.333 -6 -31.333 -18 -42c-20 -18 -53.833 -41.5 -101.5 -70.5s-81.167 -43.5 -100.5 -43.5c-33.333 0 -50 12 -50 36c0 12 19.333 54.333 58 127c-122.667 -108.667 -204 -163 -244 -163c-11.333 0 -20.833 3 -28.5 9
s-11.5 12.333 -11.5 19v2c2 14 14.333 43.667 37 89l-19 -13c-16.667 0 -25 11.667 -25 35c0 8 17.667 27.333 53 58s57 53.667 65 69c8.66699 17.333 19.667 36 33 56s22.333 30 27 30c7.33301 0 17.166 -2 29.499 -6s18.5 -7.33301 18.5 -10c0 -10 -2 -18 -6 -24
c-4 -5.33301 -21.833 -38.333 -53.5 -99s-52.834 -102.334 -63.501 -125.001c22.667 13.333 58.834 41.666 108.501 84.999s98.5 90.333 146.5 141c22.667 25.333 38 38 46 38c16 0 33.667 -1.66699 53 -5c-8 -24 -16 -43.667 -24 -59l-111 -216
c16.667 6.66699 43 23.5 79 50.5s59 45.5 69 55.5c1.33301 1.33301 4 2 8 2c16.667 0 25 -7 25 -21z" />
    <glyph glyph-name="afii10075" unicode="&#x439;" 
d="M452 157l0.000976562 -4.99805c0 -17.333 -6 -31.333 -18 -42c-20 -18 -53.833 -41.5 -101.5 -70.5s-81.167 -43.5 -100.5 -43.5c-33.333 0 -50 12 -50 36c0 12 19.333 54.333 58 127c-122.667 -108.667 -204 -163 -244 -163c-11.333 0 -20.833 3 -28.5 9
s-11.5 12.333 -11.5 19v2c2 14 14.333 43.667 37 89l-19 -13c-16.667 0 -25 11.667 -25 35c0 8 17.667 27.333 53 58s57 53.667 65 69c8.66699 17.333 19.667 36 33 56s22.333 30 27 30c7.33301 0 17.166 -2 29.499 -6s18.5 -7.33301 18.5 -10c0 -10 -2 -18 -6 -24
c-4 -5.33301 -21.833 -38.333 -53.5 -99s-52.834 -102.334 -63.501 -125.001c22.667 13.333 58.834 41.666 108.501 84.999s98.5 90.333 146.5 141c22.667 25.333 38 38 46 38c16 0 33.667 -1.66699 53 -5c-8 -24 -16 -43.667 -24 -59l-111 -216
c16.667 6.66699 43 23.5 79 50.5s59 45.5 69 55.5c1.33301 1.33301 4 2 8 2c16.667 0 25 -7 25 -21zM451.001 513.002c-18 -19.333 -44.332 -40.167 -78.999 -62.5s-67.667 -33.5 -99 -33.5c-22.667 0 -40.834 7 -54.501 21s-20.5 32.667 -20.5 56
c0 11.333 6.66699 17 20 17c4.66699 0 12.5 -0.833008 23.5 -2.5s18.5 -2.5 22.5 -2.5c0 -16.667 7 -25 21 -25c30 0 66.333 20.667 109 62c1.33301 1.33301 4.33301 2 9 2c9.33301 0 19.833 -3.5 31.5 -10.5s17.5 -13.167 17.5 -18.5c0 -1.33301 -0.333008 -2.33301 -1 -3z
" />
    <glyph glyph-name="afii10076" unicode="&#x43a;" horiz-adv-x="380" 
d="M393 320c0 -6 -6.66699 -21.999 -20 -47.999s-21 -42.333 -23 -49c-16 -7.33301 -30.333 -11 -43 -11c-16.667 0 -25 6.33301 -25 19c0 6 2 13.333 6 22c-6.66699 -4.66699 -17.334 -13 -32.001 -25l-65 -56l-7 -93c0 -0.666992 -0.166992 -2.33398 -0.5 -5.00098
s-0.5 -4.33398 -0.5 -5.00098c0 -4 1.66699 -6 5 -6c8 0 31.5 13.5 70.5 40.5s66.833 48.167 83.5 63.5c7.33301 6.66699 14 10 20 10c5.33301 0 10.333 -4 15 -12s7 -14.333 7 -19s-0.166992 -8.5 -0.5 -11.5s-1.5 -6 -3.5 -9s-3.5 -5 -4.5 -6s-3.66699 -3.33301 -8 -7
s-7.16602 -6.16699 -8.49902 -7.5c-20.667 -19.333 -53.334 -42.333 -98.001 -69s-77.667 -40 -99 -40c-19.333 0 -32.166 4.33301 -38.499 13s-9.5 22 -9.5 40v7l1 48l-59 -57c-36 -34 -59.667 -51 -71 -51c-7.33301 0 -14.833 2.83301 -22.5 8.5s-11.5 12.167 -11.5 19.5
v2c1.33301 10 12.333 38 33 84c-8 -5.33301 -13 -8 -15 -8c-16.667 0 -25 11.667 -25 35c0 6 17.5 24.333 52.5 55s56.167 54 63.5 70l40 87h78l-85 -180c44 44.667 92.167 86.834 144.5 126.501s90.833 59.5 115.5 59.5c26.667 0 40 -11.667 40 -35z" />
    <glyph glyph-name="afii10077" unicode="&#x43b;" horiz-adv-x="404" 
d="M412 157v-5.00195c0 -17.333 -6 -31.333 -18 -42c-20 -18 -53.833 -41.5 -101.5 -70.5s-81.167 -43.5 -100.5 -43.5c-33.333 0 -50 12 -50 36c0 8.66699 15 42.334 45 101.001c-82 -89.333 -144.667 -134 -188 -134c-25.333 0 -43.833 9 -55.5 27s-17.5 38.667 -17.5 62
c0 5.33301 0.666992 12 2 20c2.66699 17.333 8.66699 33.666 18 48.999s21.666 23 36.999 23h6c23.333 -2.66699 35 -15.334 35 -38.001c0 -1.33301 -0.166992 -2.66602 -0.5 -3.99902s-0.5 -2.66602 -0.5 -3.99902c-2 -8 -7.16699 -16.333 -15.5 -25s-12.833 -15 -13.5 -19
c0 -0.666992 -0.166992 -2.16699 -0.5 -4.5s-0.5 -4.16602 -0.5 -5.49902c0 -11.333 5.66699 -17 17 -17c8 0 18 4.16699 30 12.5s26.667 21.333 44 39l50.5 53.5l63.5 70l69 74c22.667 25.333 38 38 46 38c16 0 33.667 -1.66699 53 -5
c-5.33301 -16 -28.166 -63.5 -68.499 -142.5s-62.833 -123.5 -67.5 -133.5c16 6 42.333 22.833 79 50.5s60 46.5 70 56.5c1.33301 1.33301 4 2 8 2c16.667 0 25 -7 25 -21z" />
    <glyph glyph-name="afii10078" unicode="&#x43c;" horiz-adv-x="611" 
d="M616 157l-0.00195312 -5.00098c0 -17.333 -6 -31.333 -18 -42c-20 -18 -53.833 -41.5 -101.5 -70.5s-81.167 -43.5 -100.5 -43.5c-33.333 0 -50 12 -50 36c0 10 18.333 50.333 55 121c-110 -104.667 -183.333 -157 -220 -157c-10 0 -19 4 -27 12s-12 15.333 -12 22v2
c0 10.667 14.667 44 44 100c-81.333 -88.667 -143.666 -133 -186.999 -133c-25.333 0 -43.833 9 -55.5 27s-17.5 38.667 -17.5 62c0 5.33301 0.666992 12 2 20c2.66699 17.333 8.66699 33.666 18 48.999s21.666 23 36.999 23h6c23.333 -2.66699 35 -15.334 35 -38.001
c0 -1.33301 -0.166992 -2.66602 -0.5 -3.99902s-0.5 -2.66602 -0.5 -3.99902c-2 -8 -7.16699 -16.333 -15.5 -25s-12.833 -15 -13.5 -19c0 -0.666992 -0.166992 -2.16699 -0.5 -4.5s-0.5 -4.16602 -0.5 -5.49902c0 -11.333 5.66699 -17 17 -17
c7.33301 0 16.833 4.16699 28.5 12.5s26.334 21.5 44.001 39.5l51 53l64.5 70l69 74c22.667 25.333 38 38 46 38c16 0 33.667 -1.66699 53 -5c-4 -12 -14.5 -35.167 -31.5 -69.5l-58.5 -114.5l-38 -73c42.667 30 120.334 104.667 233.001 224c22.667 25.333 38 38 46 38
c16 0 33.667 -1.66699 53 -5c-8 -24 -16 -43.667 -24 -59l-108 -211l-3 -5c16.667 6.66699 43 23.5 79 50.5s59 45.5 69 55.5c1.33301 1.33301 4 2 8 2c16.667 0 25 -7 25 -21z" />
    <glyph glyph-name="afii10079" unicode="&#x43d;" 
d="M452 157v-5.00098c0 -17.333 -6 -31.333 -18 -42c-20 -18 -53.833 -41.5 -101.5 -70.5s-81.167 -43.5 -100.5 -43.5c-33.333 0 -50 12 -50 36c0 12.667 17.333 52.334 52 119.001h-149l-27 -53c-34.667 -68 -58.334 -102 -71.001 -102
c-7.33301 0 -14.833 2.83301 -22.5 8.5s-11.5 12.167 -11.5 19.5v2c1.33301 10 14.333 40.667 39 92l-21 -16c-16.667 0 -25 11.667 -25 35c0 6 17.5 24.667 52.5 56s56.167 54.333 63.5 69c19.333 40 33 64 41 72c10 10 21.667 15 35 15c21.333 -5.33301 32 -13 32 -23
c0 -4 -4 -14 -12 -30l-42 -84h150c0.666992 2 1.83398 4.5 3.50098 7.5s2.5 4.83301 2.5 5.5l55 111c3.33301 9.33301 12 14 26 14c16 0 33.667 -1.66699 53 -5c-8 -24 -16 -43.667 -24 -59l-108 -211l-3 -5c16.667 6.66699 43 23.5 79 50.5s59 45.5 69 55.5
c1.33301 1.33301 4 2 8 2c16.667 0 25 -7 25 -21z" />
    <glyph glyph-name="afii10080" unicode="&#x43e;" horiz-adv-x="348" 
d="M213 254c-6.66699 0 -12.5 -7.83203 -17.5 -23.499s-7.5 -30.5 -7.5 -44.5c0 -4.66699 0.333008 -8.33398 1 -11.001c16 34.667 24 61 24 79zM339 147.001c0 -17.333 -10.668 -32.9941 -32.001 -46.9941c-28 -20 -57.667 -30 -89 -30c-8.66699 0 -17 1 -25 3
c-20 -20.667 -43.667 -38.667 -71 -54s-53.333 -23 -78 -23c-20.667 0 -37.667 4 -51 12s-22.833 19.667 -28.5 35s-9.5 30.333 -11.5 45s-3 32.667 -3 54c0 29.333 8.83301 58.666 26.5 87.999s38.667 53.833 63 73.5s49 35.667 74 48s45.167 18.5 60.5 18.5
c12.667 0 21.5 -2.33301 26.5 -7s7.5 -12.334 7.5 -23.001c0 -9.33301 -3.83301 -16.5 -11.5 -21.5s-24.834 -12.167 -51.501 -21.5c-31.333 -10.667 -60 -31.834 -86 -63.501s-39 -64.5 -39 -98.5v-6c0 -16 0.5 -28.167 1.5 -36.5s4.5 -16.166 10.5 -23.499
s14.667 -11 26 -11c26.667 0 54.334 17.333 83.001 52c-12.667 17.333 -19 38 -19 62c0 33.333 10.333 66.666 31 99.999s45 50 73 50c16.667 0 29 -6.16699 37 -18.5s12 -26.833 12 -43.5c0 -44.667 -12.667 -87.334 -38 -128.001
c8.66699 1.33301 17.334 4.66602 26.001 9.99902s18.5 12.333 29.5 21s20.167 15 27.5 19c12.667 -8.66699 19 -20.334 19 -35.001z" />
    <glyph glyph-name="afii10081" unicode="&#x43f;" horiz-adv-x="450" 
d="M450 155v-5.99902c0 -16 -6 -29.667 -18 -41c-19.333 -17.333 -53 -40.333 -101 -69s-81.667 -43 -101 -43c-30 0 -45 13.667 -45 41c0 6 7 23 21 51l50.5 97.5l37.5 71.5c-48 -35.333 -95.333 -75.333 -142 -120l-94 -90c-36 -34 -59.667 -51 -71 -51
c-7.33301 0 -14.833 2.83301 -22.5 8.5s-11.5 12.167 -11.5 19.5v2c1.33301 10 14.333 40.667 39 92l-21 -16c-16.667 0 -25 11.667 -25 35c0 6 17.5 24.667 52.5 56s56.167 54.333 63.5 69c19.333 40 33 64 41 72c10 10 21.667 15 35 15c21.333 -5.33301 32 -13 32 -23
c0 -2 -4 -12 -12 -30l-64 -129c51.333 46.667 102.833 89.667 154.5 129s87.167 59 106.5 59c26.667 0 40 -11.667 40 -35c0 -2.66699 -7.5 -19.5 -22.5 -50.5l-54.5 -112l-42 -85.5c18.667 9.33301 44.667 26.666 78 51.999s54.333 42.333 63 51c0.666992 0.666992 3 1 7 1
c17.333 0 26 -7 26 -21z" />
    <glyph glyph-name="afii10082" unicode="&#x440;" horiz-adv-x="478" 
d="M309 267c0 18.667 -6.99902 27.999 -20.999 27.999c-26.667 0 -61 -24.333 -103 -73s-72.333 -94 -91 -136c-5.33301 -10 -10.333 -22 -15 -36c15.333 8 31.666 12 48.999 12c3.33301 0 8.16602 -0.5 14.499 -1.5s10.833 -1.5 13.5 -1.5h6c12.667 0 21.334 3 26.001 9
l18 18.5c10.667 11 17 17.667 19 20l17 19c9.33301 10.333 15.5 17.666 18.5 21.999l15 21c7 9.66699 11.833 17.667 14.5 24l9.5 22.5c3.66699 8.66699 6.16699 17.334 7.5 26.001s2 17.334 2 26.001zM474.001 139.999c0 -15.333 -16.0029 -36.334 -48.0029 -63.001
c-29.333 -22.667 -63.166 -40.667 -101.499 -54s-76.166 -20 -113.499 -20c-2.66699 0 -8.66699 -2 -18 -6c-14.667 -8.66699 -30.667 -13 -48 -13c-16.667 0 -32.334 3.33301 -47.001 10s-24 15.667 -28 27c-26 -82.667 -44.333 -161.667 -55 -237
c-1.33301 -12 -7.33301 -26.667 -18 -44s-22 -26 -34 -26c-10 0 -17.167 5.33301 -21.5 16s-6.5 21 -6.5 31c0 33.333 11.667 91 35 173s47 154.333 71 217c-39.333 -36.667 -61.333 -55 -66 -55c-18 0 -27 10 -27 30c0 15.333 8.66699 30 26 44
c80.667 65.333 128 116 142 152c4.66699 12 9.33398 19.5 14.001 22.5s13.334 4.5 26.001 4.5c13.333 0 26 -3.66699 38 -11l-10 -31c40 34 74.667 51 104 51c34.667 0 59.5 -7.5 74.5 -22.5s22.5 -38.5 22.5 -70.5c0 -60 -29.667 -122.667 -89 -188
c22 6 44.833 16.833 68.5 32.5s42.5 29.667 56.5 42s21.333 18.5 22 18.5c6 0 12.667 -3.66699 20 -11s11 -13.666 11 -18.999z" />
    <glyph glyph-name="afii10083" unicode="&#x441;" horiz-adv-x="315" 
d="M322 144c0 -12.667 -5.66895 -23.3359 -17.002 -32.0029c-0.666992 -0.666992 -10 -8.16699 -28 -22.5s-29.833 -23.5 -35.5 -27.5s-17.667 -11.667 -36 -23s-33.666 -19.166 -45.999 -23.499s-28 -8.66602 -47 -12.999s-37.833 -6.5 -56.5 -6.5
c-34 0 -57.833 11.667 -71.5 35s-20.5 58.666 -20.5 105.999c0 31.333 15 64.833 45 100.5s64.333 64.667 103 87s71 33.5 97 33.5c24 0 44.5 -4.66699 61.5 -14s25.5 -24.666 25.5 -45.999c0 -7.33301 -7.66699 -26.5 -23 -57.5s-28.666 -46.5 -39.999 -46.5
c-25.333 0 -38 7.66699 -38 23v4c0.666992 6 6 17.667 16 35s15 29.333 15 36c0 6 -7 9 -21 9c-24 0 -59.167 -20 -105.5 -60s-69.5 -81.333 -69.5 -124c0 -20 3.5 -35 10.5 -45s20.5 -15 40.5 -15c25.333 0 55.333 9.83301 90 29.5s64.167 39.334 88.5 59.001
s36.833 29.5 37.5 29.5c7.33301 0 13.333 -3.83301 18 -11.5s7 -14.167 7 -19.5z" />
    <glyph glyph-name="afii10084" unicode="&#x442;" horiz-adv-x="620" 
d="M616 153c0 -17.333 -6.33301 -32.3311 -19 -44.998c-14.667 -14.667 -47 -37 -97 -67s-84.667 -45 -104 -45c-16 0 -27.5 2.83301 -34.5 8.5s-10.5 15.834 -10.5 30.501c0 12 18.333 51.667 55 119l44 86c-26 -22 -68.333 -63.167 -127 -123.5l-98 -100.5
c-16.667 -13.333 -29.667 -20 -39 -20c-12.667 0 -21.5 2.33301 -26.5 7s-7.5 12.667 -7.5 24c0 15.333 18.333 58.333 55 129l42 81c-21.333 -18.667 -53 -49.334 -95 -92.001l-108 -106.5c-30 -28.333 -49 -42.5 -57 -42.5c-7.33301 0 -14.833 2.83301 -22.5 8.5
s-11.5 12.167 -11.5 19.5v2c1.33301 10 14.333 40.667 39 92l-21 -16c-17.333 0 -26 11.667 -26 35c0 6 17.667 24.667 53 56s56.666 54.333 63.999 69c1.33301 3.33301 3.83301 8.66602 7.5 15.999s6.16699 12.5 7.5 15.5s3.5 7.33301 6.5 13s5.33301 9.83398 7 12.501
s4 6 7 10s5.83301 6.83301 8.5 8.5s5.66699 3.66699 9 6s6.83301 3.83301 10.5 4.5s7.5 1 11.5 1c22 0 33 -7.66699 33 -23c0 -2 -4 -12 -12 -30l-55 -109c115.333 112 188.333 168 219 168c14.667 0 24.834 -1.83301 30.501 -5.5s9.16699 -11.834 10.5 -24.501v-1
c0 -10 -22.667 -57.333 -68 -142c117.333 115.333 192 173 224 173c26.667 0 40 -12 40 -36c0 -6.66699 -19 -48 -57 -124l-61 -125c18 9.33301 44.167 27.166 78.5 53.499s54.833 42.833 61.5 49.5c0.666992 0.666992 3 1 7 1c17.333 0 26 -7 26 -21z" />
    <glyph glyph-name="afii10085" unicode="&#x443;" horiz-adv-x="425" 
d="M423 137c0 -8 -2.16797 -15.5039 -6.50098 -22.5039s-7.83301 -11.5 -10.5 -13.5c-136.667 -102 -214.667 -168 -234 -198c-1.33301 -2 -2.83301 -4.66699 -4.5 -8s-3.5 -6.33301 -5.5 -9l-55 -114c-10 -20.667 -19.167 -35.334 -27.5 -44.001s-19.833 -13 -34.5 -13
c-16 0 -26.333 3.5 -31 10.5s-7 18.167 -7 33.5c0 25.333 13.333 60 40 104s51.667 77.333 75 100c4.66699 4.66699 32 62 82 172c-105.333 -100.667 -179.666 -151 -222.999 -151c-20.667 0 -31 11 -31 33c0 14.667 12.333 46 37 94c-15.333 -11.333 -24 -17 -26 -17
c-6.66699 0 -12.5 4.16699 -17.5 12.5s-7.5 15.5 -7.5 21.5c0 4.66699 5.66699 13 17 25l48.5 49c21 20.667 38.833 39.334 53.5 56.001c6 6.66699 14.333 21.167 25 43.5s19.334 37.833 26.001 46.5h66c-2.66699 -16 -10.334 -37.333 -23.001 -64l-85 -175
c-0.666992 -1.33301 -3 -5.66602 -7 -12.999s-6.66699 -12.666 -8 -15.999c26.667 18.667 71.334 59.834 134.001 123.501s102 106.834 118 129.501c7.33301 10 16.666 15 27.999 15c24 0 39.333 -7.33301 46 -22l-131 -273l120 95c18.667 15.333 31.667 23 39 23
c4.66699 0 9.16699 -4 13.5 -12s6.5 -15.333 6.5 -22z" />
    <glyph glyph-name="afii10086" unicode="&#x444;" horiz-adv-x="543" 
d="M199 246c-1.33301 22 -3.16699 37.001 -5.5 45.001s-7.83301 12 -16.5 12c-13.333 0 -32 -9.33301 -56 -28s-46.833 -46.334 -68.5 -83.001s-32.5 -75 -32.5 -115c0 -18.667 14.333 -28 43 -28c18 0 43 8.66699 75 26c12.667 33.333 33 90.333 61 171zM420.999 270.001
c0 19.333 -6.99902 29.002 -20.999 29.002c-23.333 0 -47.5 -8 -72.5 -24s-46.167 -36.667 -63.5 -62l-54 -153c13.333 3.33301 23.333 5 30 5c3.33301 0 8.16602 -0.5 14.499 -1.5s10.833 -1.5 13.5 -1.5h6c12.667 0 21.334 2.66699 26.001 8
c1.33301 2 7.16602 8.16699 17.499 18.5s16.833 17.166 19.5 20.499s8.5 9.83301 17.5 19.5s15 17 18 22s8 12.167 15 21.5s11.833 17.166 14.5 23.499l9.5 23c3.66699 9 6.16699 17.667 7.5 26s2 16.833 2 25.5zM570 159.003c0 -16 -16 -37.334 -48 -64.001
c-77.333 -60 -143.666 -90 -198.999 -90c-2.66699 0 -8.66699 -2 -18 -6c-14.667 -8.66699 -30.667 -13 -48 -13c-28.667 0 -50.334 7.33301 -65.001 22l-43 -123l-14.5 -44.5c-6.33301 -19.667 -11.666 -35.667 -15.999 -48s-9.5 -25.333 -15.5 -39s-12.333 -24 -19 -31
s-13.667 -10.5 -21 -10.5c-22 0 -33 12 -33 36v5c0 5.33301 2.66699 16.833 8 34.5s10.666 33.834 15.999 48.501l9 22l48 138c-24.667 -6.66699 -49 -10 -73 -10c-26 0 -46.5 8.16699 -61.5 24.5s-22.5 45.166 -22.5 86.499c0 34.667 8.16699 69 24.5 103
s36.333 62.5 60 85.5s48.334 41.667 74.001 56s48.5 21.5 68.5 21.5c22.667 0 40 -6.66699 52 -20l30 84c11.333 30.667 28.333 46 51 46c11.333 0 17 -10.333 17 -31s-5 -46.667 -15 -78l-8 -25c29.333 16 60 24 92 24c34.667 0 59.5 -7.66699 74.5 -23s22.5 -39 22.5 -71
c0 -52 -22.667 -106.667 -68 -164c17.333 10.667 35.5 22.834 54.5 36.501s33.667 24.667 44 33s16.166 12.5 17.499 12.5c6 0 11.667 -3.33301 17 -10s8 -12.667 8 -18z" />
    <glyph glyph-name="afii10087" unicode="&#x445;" horiz-adv-x="420" 
d="M424 146c0 -4.66699 -0.167969 -8.49902 -0.500977 -11.499s-1.5 -6 -3.5 -9s-3.5 -5 -4.5 -6s-3.66699 -3.33301 -8 -7s-7.16602 -6.16699 -8.49902 -7.5c-20.667 -19.333 -53.334 -42.333 -98.001 -69s-77.667 -40 -99 -40c-19.333 0 -32.166 4.16699 -38.499 12.5
s-9.5 20.833 -9.5 37.5v10l2 53l-111 -107h-91l128 127c1.33301 1.33301 5.5 5 12.5 11l21 18.5l22 19.5c7.66699 6.66699 14 12.667 19 18s7.5 8.66602 7.5 9.99902l6 76c-10.667 -8.66699 -31 -28.167 -61 -58.5l-83 -82.5c-25.333 -24.667 -40.333 -37 -45 -37
c-6.66699 0 -12.167 3.33301 -16.5 10s-6.5 12.667 -6.5 18c0 12 6.33301 24.333 19 37l175 172c12.667 11.333 28 17 46 17c16.667 0 28 -4 34 -12s9 -20 9 -36v-5l-1 -35l79 78h94l-160 -156c-14 -10 -21.333 -17 -22 -21l-7 -92v-5c0 -7.33301 2.33301 -11 7 -11
c12.667 3.33301 36.667 17.5 72 42.5s61.666 45.5 78.999 61.5c6.66699 6.66699 13.334 10 20.001 10c5.33301 0 10.333 -4 15 -12s7 -14.333 7 -19z" />
    <glyph glyph-name="afii10088" unicode="&#x446;" 
d="M447 152l0.000976562 -5.00098c0 -17.333 -6 -31.666 -18 -42.999c-8 -7.33301 -19.333 -16.333 -34 -27s-24 -18.334 -28 -23.001c-6 -7.33301 -10 -22 -12 -44c-4.66699 -37.333 -18.5 -78 -41.5 -122s-45.833 -66 -68.5 -66c-16.667 0 -25 11 -25 33
c0 10.667 1.16699 21.5 3.5 32.5s6 22.333 11 34s9.16699 21 12.5 28s8.33301 16.5 15 28.5s10.667 19.333 12 22c-20 -8.66699 -35.667 -13 -47 -13c-33.333 0 -50 12 -50 36c0 12.667 19.333 56.334 58 131.001c-123.333 -111.333 -204.666 -167 -243.999 -167
c-11.333 0 -20.833 3 -28.5 9s-11.5 12.333 -11.5 19v2c2 13.333 14.333 44 37 92l-19 -14c-16.667 0 -25 12 -25 36c0 8 17.667 27.833 53 59.5s57 55.167 65 70.5c8.66699 18 19.667 37.333 33 58s22.333 31 27 31c7.33301 0 17.166 -2.16699 29.499 -6.5
s18.5 -7.83301 18.5 -10.5c0 -10 -2 -18 -6 -24s-21.667 -39.667 -53 -101s-52.666 -104 -63.999 -128c23.333 14 59.833 43 109.5 87s98.167 92 145.5 144c23.333 26 38.666 39 45.999 39c16 0 33.667 -1.66699 53 -5c-7.33301 -24 -15.333 -44.333 -24 -61l-108 -217
l-3 -5c16.667 6.66699 43.167 24.167 79.5 52.5s59.166 47.5 68.499 57.5c0.666992 0.666992 3 1 7 1c17.333 0 26 -7 26 -21z" />
    <glyph glyph-name="afii10089" unicode="&#x447;" horiz-adv-x="333" 
d="M341 148c0 -12.667 -4.33594 -23.335 -13.0029 -32.002c-13.333 -13.333 -44.666 -36.666 -93.999 -69.999s-85 -50 -107 -50c-18 0 -30.833 2.16699 -38.5 6.5s-11.5 14.833 -11.5 31.5c0 9.33301 17.833 51.166 53.5 125.499s53.5 115.5 53.5 123.5
c0 4.66699 -4.33301 7 -13 7h-5c-7.33301 0 -17 -0.666992 -29 -2c-30.667 -54.667 -74.667 -109 -132 -163c-17.333 -14.667 -28.333 -22 -33 -22c-5.33301 0 -10.666 5.33301 -15.999 16s-8 18.334 -8 23.001c0 4 2 9.33301 6 16s8.33301 11.667 13 15
c12 8 31.333 27.667 58 59s45 57.333 55 78c-8.66699 10.667 -13 24 -13 40c0 14 4.33301 25.667 13 35s20.334 14 35.001 14c16.667 0 27.667 -4 33 -12s9 -20 11 -36c5.33301 0.666992 13 1 23 1c28.667 0 48.834 -4.5 60.501 -13.5s17.5 -25.833 17.5 -50.5
c0 -10 -6.5 -29.5 -19.5 -58.5s-27.833 -59.833 -44.5 -92.5s-27 -54.667 -31 -66c10.667 5.33301 26.5 15.833 47.5 31.5l59 45.5c18.333 14.667 28.166 22.334 29.499 23.001c6 6 12.667 9 20 9c4.66699 0 9.16699 -3.66699 13.5 -11s6.5 -14.333 6.5 -21z" />
    <glyph glyph-name="afii10090" unicode="&#x448;" horiz-adv-x="611" 
d="M618 157l-0.000976562 -4.99902c0 -17.333 -6 -31.333 -18 -42c-20 -18 -53.833 -41.5 -101.5 -70.5s-81.167 -43.5 -100.5 -43.5c-33.333 0 -50 12 -50 36c0 11.333 18 51 54 119c-106.667 -103.333 -177.667 -155 -213 -155c-11.333 0 -20.833 3 -28.5 9
s-11.5 12.333 -11.5 19c0 18 17.667 59.667 53 125c-103.333 -102 -173.666 -153 -210.999 -153c-11.333 0 -20.833 3 -28.5 9s-11.5 12.333 -11.5 19v2c2 14 14.333 43.667 37 89l-19 -13c-16.667 0 -25 11.667 -25 35c0 8 17.667 27.333 53 58s57 53.667 65 69
c8.66699 17.333 19.667 36 33 56s22.333 30 27 30c7.33301 0 17.166 -2 29.499 -6s18.5 -7.33301 18.5 -10c0 -10 -2 -18 -6 -24c-12.667 -17.333 -51.667 -91.333 -117 -222c34.667 25.333 110.667 100 228 224c22.667 25.333 38 38 46 38c16 0 33.667 -1.66699 53 -5
c-6.66699 -20.667 -15 -40.334 -25 -59.001l-103 -198c32.667 23.333 108.334 98 227.001 224c22.667 25.333 38 38 46 38c16 0 33.667 -1.66699 53 -5c-8 -24 -16 -43.667 -24 -59l-108 -211l-3 -5c16.667 6.66699 43 23.5 79 50.5s59 45.5 69 55.5
c1.33301 1.33301 4 2 8 2c16.667 0 25 -7 25 -21z" />
    <glyph glyph-name="afii10091" unicode="&#x449;" horiz-adv-x="611" 
d="M618 152l0.000976562 -5.00098c0 -17.333 -6 -31.666 -18 -42.999c-8 -7.33301 -19.333 -16.333 -34 -27s-24 -18.334 -28 -23.001c-6 -7.33301 -10 -22 -12 -44c-4.66699 -37.333 -18.5 -78 -41.5 -122s-45.833 -66 -68.5 -66c-16.667 0 -25 11 -25 33
c0 10.667 1.16699 21.5 3.5 32.5s6 22.333 11 34s9.16699 21 12.5 28s8.33301 16.5 15 28.5s10.667 19.333 12 22c-20 -8.66699 -35.667 -13 -47 -13c-33.333 0 -50 12 -50 36c0 11.333 18 52.333 54 123c-106 -106 -177 -159 -213 -159c-11.333 0 -20.833 3 -28.5 9
s-11.5 12.333 -11.5 19c0 18 17.667 61 53 129c-104.667 -104.667 -175 -157 -211 -157c-11.333 0 -20.833 3 -28.5 9s-11.5 12.333 -11.5 19v2c2 13.333 14.333 44 37 92l-19 -14c-16.667 0 -25 12 -25 36c0 8 17.667 27.833 53 59.5s57 55.167 65 70.5
c8.66699 18 19.667 37.333 33 58s22.333 31 27 31c7.33301 0 17.166 -2.16699 29.499 -6.5s18.5 -7.83301 18.5 -10.5c0 -10 -2 -18 -6 -24s-21.5 -39.333 -52.5 -100s-52.167 -103.334 -63.5 -128.001c36.667 28.667 112.334 105.334 227.001 230.001
c23.333 26 38.666 39 45.999 39c16 0 33.667 -1.66699 53 -5c-6.66699 -20 -15 -40.333 -25 -61c-53.333 -103.333 -87.666 -171 -102.999 -203c36.667 28.667 112.334 105.334 227.001 230.001c23.333 26 38.666 39 45.999 39c16 0 33.667 -1.66699 53 -5
c-7.33301 -24 -15.333 -44.333 -24 -61l-108 -217l-3 -5c16.667 6.66699 43.167 24.167 79.5 52.5s59.166 47.5 68.499 57.5c0.666992 0.666992 3 1 7 1c17.333 0 26 -7 26 -21z" />
    <glyph glyph-name="afii10092" unicode="&#x44a;" horiz-adv-x="458" 
d="M296 145c1.33301 1.33301 2 4 2 8c0 10 -2.33301 15 -7 15h-1c-2.66699 -0.666992 -4 -2.66699 -4 -6s1.33301 -7 4 -11s4.66699 -6 6 -6zM464 145c-22.667 -41.333 -66.6709 -62.6699 -132.004 -64.0029c-16 -25.333 -38.167 -45.833 -66.5 -61.5
s-56.833 -23.5 -85.5 -23.5c-35.333 0 -61.5 7.83301 -78.5 23.5s-25.5 35.167 -25.5 58.5c0 7.33301 1 15 3 23c2.66699 10.667 5.66699 20.334 9 29.001s7.16602 17 11.499 25s7.16602 14 8.49902 18l73 110l1 2c0 3.33301 -5.33301 5 -16 5
c-7.33301 0 -17 -0.666992 -29 -2c-30.667 -54.667 -74.667 -109 -132 -163c-17.333 -14.667 -28.333 -22 -33 -22c-5.33301 0 -10.666 5.33301 -15.999 16s-8 18.334 -8 23.001c0 4 2 9.33301 6 16s8.33301 11.667 13 15c12 8 31.333 27.667 58 59s45 57.333 55 78
c-8.66699 10.667 -13 24 -13 40c0 14 4.33301 25.667 13 35s20.334 14 35.001 14c16.667 0 27.667 -4 33 -12s9 -20 11 -36c5.33301 0.666992 13 1 23 1c20.667 0 36.834 -6 48.501 -18s17.5 -26 17.5 -42c0 -8 -2.33301 -17.333 -7 -28
c-10.667 -21.333 -26.5 -49.166 -47.5 -83.499s-33.833 -56.166 -38.5 -65.499c-4.66699 -10.667 -7 -19 -7 -25c0 -21.333 15.333 -32 46 -32c25.333 0 49 12.333 71 37c-21.333 12.667 -34 34 -38 64v7c0 32 13.333 53 40 63c2.66699 1.33301 7.33398 2 14.001 2
c14.667 0 29.334 -5.33301 44.001 -16s24.334 -24 29.001 -40c2 -4.66699 3 -11 3 -19c0 -6 -0.333008 -10.333 -1 -13c26.667 1.33301 48 9.66602 64 24.999c10 8 18.667 12 26 12c5.33301 0 10 -3 14 -9s6 -12.333 6 -19c0 -2 -0.666992 -4.33301 -2 -7z" />
    <glyph glyph-name="afii10093" unicode="&#x44b;" horiz-adv-x="545" 
d="M557 157l-0.00195312 -4.99805c0 -17.333 -6 -31.333 -18 -42c-20 -18 -53.833 -41.5 -101.5 -70.5s-81.167 -43.5 -100.5 -43.5c-33.333 0 -50 12 -50 36c0 10.667 11 37.334 33 80.001c-27.333 -18.667 -53.333 -29.334 -78 -32.001
c-16 -24.667 -38.333 -44.834 -67 -60.501s-57 -23.5 -85 -23.5c-30.667 0 -54.167 10.167 -70.5 30.5s-24.5 43.5 -24.5 69.5c0 8.66699 1 17 3 25v1l-26 -19c-6.66699 0 -12.167 3.5 -16.5 10.5s-6.5 14.5 -6.5 22.5c0 13.333 5.66699 24 17 32
c60 47.333 96.333 86 109 116c3.33301 6.66699 11.333 19.5 24 38.5s21 28.5 25 28.5c18 0 36.333 -3 55 -9c-6.66699 -20.667 -42.334 -92 -107.001 -214c-4 -8 -6 -16.667 -6 -26c0 -12 3.33301 -22.5 10 -31.5s16 -13.5 28 -13.5c24.667 0 48 12.333 70 37
c-20.667 13.333 -33 34.666 -37 63.999v6c0 32 13.333 53 40 63c2.66699 1.33301 7.33398 2 14.001 2c14.667 0 29.334 -5.16699 44.001 -15.5s24.334 -23.5 29.001 -39.5c1.33301 -3.33301 2 -9.33301 2 -18v-7c26 12.667 67.667 50 125 112c6 6.66699 14.667 21.5 26 44.5
s20.333 38.5 27 46.5h66c-2.66699 -14 -11 -36 -25 -66l-85 -169l-25 -48c16.667 6.66699 43.167 23.667 79.5 51s59.5 46 69.5 56c1.33301 1.33301 4 2 8 2c16.667 0 25 -7 25 -21z" />
    <glyph glyph-name="afii10094" unicode="&#x44c;" horiz-adv-x="365" 
d="M374 144c-22.667 -41.333 -66.6689 -62.666 -132.002 -63.999c-16 -24.667 -38.333 -44.834 -67 -60.501s-57 -23.5 -85 -23.5c-30.667 0 -54.167 10.167 -70.5 30.5s-24.5 43.5 -24.5 69.5c0 8.66699 1 17 3 25v1l-26 -19c-6.66699 0 -12.167 3.5 -16.5 10.5
s-6.5 14.5 -6.5 22.5c0 13.333 5.66699 24 17 32c60 47.333 96.333 86 109 116c3.33301 6.66699 11.333 19.334 24 38.001s21 28 25 28c18 0 36.333 -2.66699 55 -8c-6.66699 -20.667 -42.334 -92 -107.001 -214c-4 -8 -6 -16.667 -6 -26c0 -12 3.33301 -22.5 10 -31.5
s16 -13.5 28 -13.5c24.667 0 48 12.333 70 37c-20.667 13.333 -33 34.666 -37 63.999v6c0 32 13.333 53 40 63c2.66699 1.33301 7.33398 2 14.001 2c14.667 0 29.334 -5.33301 44.001 -16s24.334 -24 29.001 -40c2 -4.66699 3 -10.667 3 -18c0 -6 -0.333008 -10.333 -1 -13
c26 1.33301 47.333 9.33301 64 24c8 8 16.667 12 26 12c5.33301 0 10 -3 14 -9s6 -12 6 -18c0 -2 -0.666992 -4.33301 -2 -7z" />
    <glyph glyph-name="afii10095" unicode="&#x44d;" horiz-adv-x="357" 
d="M355 135c0 -6 -13.665 -18.6699 -40.998 -38.0029s-58.833 -37.666 -94.5 -54.999s-62.834 -26 -81.501 -26c-1.33301 0 -5.33301 -1.66699 -12 -5s-16.167 -6.66602 -28.5 -9.99902s-26.166 -5 -41.499 -5c-17.333 0 -37.833 3.83301 -61.5 11.5
s-35.5 18.167 -35.5 31.5c0 14 9 23.333 27 28c4 0 13.667 -1 29 -3s28.333 -3 39 -3c18 0 39.667 7.16699 65 21.5s44 29.833 56 46.5h-68c-25.333 0 -38 9.33301 -38 28c0 8 3.16699 15.5 9.5 22.5s14.166 10.5 23.499 10.5h113c11.333 26 17 52.667 17 80
c0 18.667 -7 28 -21 28c-15.333 0 -35.833 -10.167 -61.5 -30.5s-49.5 -42.5 -71.5 -66.5s-43.333 -46.167 -64 -66.5s-34.334 -30.5 -41.001 -30.5c-5.33301 0 -11.5 3.5 -18.5 10.5s-10.5 14.833 -10.5 23.5c0 7.33301 10 21 30 41l58 55.5l55 52
c11.333 10.333 25.5 22.333 42.5 36s31.833 23 44.5 28s25 7.5 37 7.5c34.667 0 59.5 -7.16699 74.5 -21.5s22.5 -37.166 22.5 -68.499c0 -47.333 -14.667 -94.333 -44 -141c12 7.33301 23.833 15.333 35.5 24l26.5 20l9 7c4.66699 0 9.16699 -3.5 13.5 -10.5
s6.5 -17.833 6.5 -32.5z" />
    <glyph glyph-name="afii10096" unicode="&#x44e;" horiz-adv-x="534" 
d="M419 254c-6.66699 0 -12.5 -7.99902 -17.5 -23.999s-7.5 -30.667 -7.5 -44c0 -4.66699 0.333008 -8.33398 1 -11.001c16 34.667 24 61 24 79zM545 147.001c0 -17.333 -10.667 -32.9951 -32 -46.9951c-28 -20 -57.667 -30 -89 -30c-8.66699 0 -17 1 -25 3
c-20 -20.667 -43.667 -38.667 -71 -54s-53.333 -23 -78 -23c-20.667 0 -37.667 4 -51 12s-22.833 19.667 -28.5 35s-9.5 30.333 -11.5 45s-3 32.667 -3 54v11v1c-0.666992 -2.66699 -2 -9 -4 -19l-93 -88c-36 -34 -59.667 -51 -71 -51c-7.33301 0 -15 2.83301 -23 8.5
s-12 12.167 -12 19.5v2c1.33301 10 14.333 40.667 39 92l-21 -16c-16.667 0 -25 11.667 -25 35c0 6 17.5 24.833 52.5 56.5s56.167 54.834 63.5 69.501c19.333 40 33 64 41 72c10 10 21.667 15 35 15c21.333 -5.33301 32 -13 32 -23c0 -2 -4 -12 -12 -30l-62 -124
c70.667 69.333 121 113.666 151 132.999c51.333 42.667 95.666 64 132.999 64c12.667 0 21.5 -2.33301 26.5 -7s7.5 -12.334 7.5 -23.001c0 -9.33301 -3.83301 -16.5 -11.5 -21.5s-24.834 -12.167 -51.501 -21.5c-31.333 -10.667 -60 -31.834 -86 -63.501
s-39 -64.5 -39 -98.5v-6c0 -16 0.5 -28.167 1.5 -36.5s4.5 -16.166 10.5 -23.499s14.667 -11 26 -11c26.667 0 54.334 17.333 83.001 52c-12.667 17.333 -19 38 -19 62c0 33.333 10.333 66.666 31 99.999s45 50 73 50c16.667 0 29 -6.16699 37 -18.5s12 -26.833 12 -43.5
c0 -44.667 -12.667 -87.334 -38 -128.001c8.66699 1.33301 17.334 4.66602 26.001 9.99902s18.5 12.333 29.5 21s20.167 15 27.5 19c12.667 -8.66699 19 -20.334 19 -35.001z" />
    <glyph glyph-name="afii10097" unicode="&#x44f;" horiz-adv-x="386" 
d="M235 285c0.666992 2 0.999023 4.33203 0.999023 6.99902c0 8 -4.66699 12 -14 12c-2 0 -7 -1 -15 -3c-16 -4.66699 -31.5 -15.667 -46.5 -33s-22.5 -33.666 -22.5 -48.999v-5c0 -17.333 5.33301 -26 16 -26c18 0 34.333 10.167 49 30.5s25.334 42.5 32.001 66.5z
M391.999 156.999l0.000976562 -5.99902c0 -16 -6 -29.667 -18 -41l-12 -10c-7.33301 -7.33301 -12.666 -12.333 -15.999 -15l-18.5 -15.5c-9 -7.66699 -16.5 -13.667 -22.5 -18l-23.5 -16.5c-9.66699 -6.66699 -18.667 -11.834 -27 -15.501l-26.5 -11.5
c-9.33301 -4 -18.833 -7 -28.5 -9s-18.834 -3 -27.501 -3c-33.333 0 -50 12 -50 36c0 7.33301 4.66699 21 14 41c-50.667 -49.333 -96.334 -74 -137.001 -74c-25.333 0 -43.833 9.16699 -55.5 27.5s-17.5 39.166 -17.5 62.499c0 4.66699 0.666992 11 2 19
c2.66699 17.333 8.66699 33.833 18 49.5s22 23.5 38 23.5h5c23.333 -2.66699 35 -15.667 35 -39c0 -0.666992 -0.166992 -1.83398 -0.5 -3.50098s-0.5 -3.16699 -0.5 -4.5c-2 -8 -7.16699 -16.333 -15.5 -25s-12.833 -15 -13.5 -19
c0 -0.666992 -0.166992 -2.16699 -0.5 -4.5s-0.5 -4.16602 -0.5 -5.49902c0 -11.333 5.66699 -17 17 -17c8.66699 0 25.667 9 51 27s43.333 32.667 54 44l-1 2c-15.333 0 -27.333 9.33301 -36 28s-13 40.667 -13 66c0 36 18.5 68.333 55.5 97s69.5 43 97.5 43
c30 0 50.667 -8 62 -24c5.33301 4 9.66602 6 12.999 6c16 0 33.667 -2 53 -6c-5.33301 -16 -28.166 -63.667 -68.499 -143s-62.833 -124 -67.5 -134c16 6 42.167 22.833 78.5 50.5s59.833 46.834 70.5 57.501c1.33301 1.33301 4 2 8 2c16.667 0 25 -7.33301 25 -22z" />
    <glyph glyph-name="afii10071" unicode="&#x451;" horiz-adv-x="315" 
d="M165 464c0 -12 -4.66699 -22.333 -14 -31s-20 -13 -32 -13c-12.667 0 -23.5 4.33301 -32.5 13s-13.5 19 -13.5 31s4.5 22.5 13.5 31.5s19.833 13.5 32.5 13.5c12 0 22.667 -4.5 32 -13.5s14 -19.5 14 -31.5zM345 464c0 -12 -4.66699 -22.333 -14 -31s-20 -13 -32 -13
c-12.667 0 -23.5 4.33301 -32.5 13s-13.5 19 -13.5 31s4.5 22.5 13.5 31.5s19.833 13.5 32.5 13.5c12 0 22.667 -4.5 32 -13.5s14 -19.5 14 -31.5zM210 284c0 5.33301 -6.33203 8 -18.999 8c-22 0 -50.833 -13.667 -86.5 -41s-58.834 -53 -69.501 -77h10
c42 0 80 11.167 114 33.5s51 47.833 51 76.5zM323.001 143c0 -14.667 -7.33398 -26.999 -22.001 -36.999l-23 -17c-12.667 -9.33301 -22.334 -16.166 -29.001 -20.499l-30.5 -20c-13.667 -9 -26 -15.833 -37 -20.5l-38 -15.5
c-14.333 -5.66699 -28.666 -9.83398 -42.999 -12.501s-28.833 -4 -43.5 -4c-40.667 0 -68.334 11.5 -83.001 34.5s-22 58.167 -22 105.5c0 28.667 14.5 60 43.5 94s63 62.167 102 84.5s72.833 33.5 101.5 33.5c25.333 0 45.166 -5.33301 59.499 -16
s21.5 -25.334 21.5 -44.001c0 -46 -23 -85.667 -69 -119s-102 -50 -168 -50h-22v-7c0 -38 16 -57 48 -57c30.667 0 64.334 9.66699 101.001 29s67.334 38.833 92.001 58.5s37.334 29.5 38.001 29.5c5.33301 0 10.5 -3.66699 15.5 -11s7.5 -13.333 7.5 -18z" />
    <glyph glyph-name="afii10100" unicode="&#x453;" horiz-adv-x="335" 
d="M343 150c0 -3.33301 -0.166016 -6.50293 -0.499023 -9.50293s-0.833008 -5.5 -1.5 -7.5s-1.66699 -4.16699 -3 -6.5s-2.5 -4.16602 -3.5 -5.49902s-2.66699 -3 -5 -5s-4.16602 -3.5 -5.49902 -4.5l-7 -5.5c-3.33301 -2.66699 -5.66602 -4.66699 -6.99902 -6
c-88.667 -69.333 -154.667 -104 -198 -104c-28.667 0 -50.834 7.66699 -66.501 23s-23.5 36 -23.5 62c0 22 8 40.833 24 56.5s34 26.167 54 31.5c24.667 6.66699 50.834 22.334 78.501 47.001s41.5 47.667 41.5 69v6c0 4.66699 -3 7 -9 7
c-15.333 0 -35.833 -10.167 -61.5 -30.5s-49.5 -42.5 -71.5 -66.5s-43.333 -46.167 -64 -66.5s-34.334 -30.5 -41.001 -30.5c-5.33301 0 -11.5 3.5 -18.5 10.5s-10.5 14.833 -10.5 23.5c0 7.33301 10 21 30 41l58 55.5l55 52c11.333 10.333 25.5 22.333 42.5 36
s31.833 23 44.5 28s25 7.5 37 7.5c25.333 0 44.833 -6.66699 58.5 -20s20.5 -31.333 20.5 -54c0 -10.667 -2.33301 -22.5 -7 -35.5s-12.834 -28 -24.501 -45s-30.5 -34.167 -56.5 -51.5s-57.667 -32.333 -95 -45c-10 -4 -15 -13 -15 -27c0 -15.333 7.66699 -23 23 -23
c16 0 39.333 9.33301 70 28s57.167 36.667 79.5 54s34.166 27.333 35.499 30c6.66699 5.33301 13.667 8 21 8s12.833 -3.16699 16.5 -9.5s5.5 -12.166 5.5 -17.499zM385.001 552.997l-163 -132h-73l131 132h105z" />
    <glyph glyph-name="afii10101" unicode="&#x454;" horiz-adv-x="315" 
d="M322 144c0 -12.667 -5.6709 -23.335 -17.0039 -32.002c-0.666992 -0.666992 -10 -8.16699 -28 -22.5s-29.833 -23.5 -35.5 -27.5s-17.667 -11.667 -36 -23s-33.666 -19.166 -45.999 -23.499s-28 -8.66602 -47 -12.999s-37.833 -6.5 -56.5 -6.5
c-34 0 -57.833 11.667 -71.5 35s-20.5 58.666 -20.5 105.999c0 31.333 15 64.833 45 100.5s64.333 64.667 103 87s71 33.5 97 33.5c24 0 44.5 -4.66699 61.5 -14s25.5 -24.666 25.5 -45.999c0 -7.33301 -7.66699 -26.5 -23 -57.5s-28.666 -46.5 -39.999 -46.5
c-25.333 0 -38 7.66699 -38 23v4c0.666992 6 6 17.667 16 35s15 29.333 15 36c0 6 -7 9 -21 9c-15.333 0 -39.666 -11.333 -72.999 -34s-59.333 -48.667 -78 -78h83c25.333 0 38 -9.33301 38 -28c0 -8 -3.16699 -15.5 -9.5 -22.5s-14.166 -10.5 -23.499 -10.5h-111
c-0.666992 -2.66699 -1 -6.33398 -1 -11.001c0 -20 3.5 -35 10.5 -45s20.5 -15 40.5 -15c25.333 0 55.333 9.83301 90 29.5s64.167 39.334 88.5 59.001s36.833 29.5 37.5 29.5c7.33301 0 13.333 -3.83301 18 -11.5s7 -14.167 7 -19.5z" />
    <glyph glyph-name="afii10102" unicode="&#x455;" horiz-adv-x="348" 
d="M348 137c0 -6.66699 -13.166 -19.668 -39.499 -39.001s-57.166 -37.833 -92.499 -55.5s-63 -26.5 -83 -26.5c-1.33301 0 -6.33301 -1.66699 -15 -5s-19.167 -6.66602 -31.5 -9.99902s-23.833 -5 -34.5 -5c-16 0 -33.833 3.83301 -53.5 11.5s-29.5 18.167 -29.5 31.5
c0 6.66699 2.5 12.667 7.5 18s11.5 8.66602 19.5 9.99902c5.33301 0 15.666 -0.833008 30.999 -2.5s27.666 -2.5 36.999 -2.5c12 0 22.333 1.83301 31 5.5s16 9.5 22 17.5s10.833 15.833 14.5 23.5s6.66699 18.334 9 32.001s4 25.167 5 34.5s2.16699 22.333 3.5 39l3 37
l-104.5 -94c-39 -34 -60.833 -51 -65.5 -51c-6 0 -11.167 3.83301 -15.5 11.5s-6.5 14.834 -6.5 21.501v2c0 8 0.666992 13.333 2 16s5.33301 6.66699 12 12c75.333 62 141 125.667 197 191c2.66699 3.33301 6.5 12.833 11.5 28.5s11.833 29.334 20.5 41.001
s20.667 17.5 36 17.5c10.667 0 19.334 -3.83301 26.001 -11.5s10 -15.834 10 -24.501c0 -8 -3.33301 -17.5 -10 -28.5s-13.834 -21 -21.501 -30s-11.834 -14.167 -12.501 -15.5c-2.66699 -7.33301 -4 -26.333 -4 -57c-0.666992 -4 -2 -19.167 -4 -45.5
s-3.66699 -44.333 -5 -54s-4 -23.334 -8 -41.001s-8.66699 -32.5 -14 -44.5c22 9.33301 43.333 21.5 64 36.5s36.334 27.5 47.001 37.5l16 15c5.33301 0 10.833 -4.16699 16.5 -12.5s8.5 -19.833 8.5 -34.5z" />
    <glyph glyph-name="afii10103" unicode="&#x456;" horiz-adv-x="222" 
d="M228 140c0 -10.667 -31.998 -37.332 -95.998 -79.999s-104.667 -64 -122 -64c-31.333 0 -47 12 -47 36c0 14 11.333 43.667 34 89c-15.333 -11.333 -24 -17 -26 -17c-6.66699 0 -12.667 2.83301 -18 8.5s-8 13.834 -8 24.501c0 6.66699 19.167 27.667 57.5 63
s58.833 56 61.5 62l46 94h81l-136 -278l-1 -2c12 7.33301 29 18.666 51 33.999l57 41l24 18c1.33301 1.33301 4.66602 3.16602 9.99902 5.49902s9.66602 3.5 12.999 3.5c4 0 8.16699 -4 12.5 -12s6.5 -16.667 6.5 -26zM216.002 454.002c0 -16 -4.66699 -30 -14 -42
s-22.333 -18 -39 -18c-24.667 0 -37 13.667 -37 41c0 14 5.16699 27.333 15.5 40s22.5 19 36.5 19c11.333 0 20.5 -4.16699 27.5 -12.5s10.5 -17.5 10.5 -27.5z" />
    <glyph glyph-name="afii10104" unicode="&#x457;" horiz-adv-x="222" 
d="M228 140c0 -10.667 -31.998 -37.332 -95.998 -79.999s-104.667 -64 -122 -64c-31.333 0 -47 12 -47 36c0 14 11.333 43.667 34 89c-15.333 -11.333 -24 -17 -26 -17c-6.66699 0 -12.667 2.83301 -18 8.5s-8 13.834 -8 24.501c0 6.66699 19.167 27.667 57.5 63
s58.833 56 61.5 62l46 94h81l-136 -278l-1 -2c12 7.33301 29 18.666 51 33.999l57 41l24 18c1.33301 1.33301 4.66602 3.16602 9.99902 5.49902s9.66602 3.5 12.999 3.5c4 0 8.16699 -4 12.5 -12s6.5 -16.667 6.5 -26zM126.002 458.002c0 -8.66699 -4.66699 -16 -14 -22
s-20 -9 -32 -9c-12.667 0 -23.5 3 -32.5 9s-13.5 13.333 -13.5 22c0 8 4.5 15.167 13.5 21.5s19.833 9.5 32.5 9.5c12 0 22.667 -3.16699 32 -9.5s14 -13.5 14 -21.5zM306.002 458.002c0 -8.66699 -4.66699 -16 -14 -22s-20 -9 -32 -9c-12.667 0 -23.5 3 -32.5 9
s-13.5 13.333 -13.5 22c0 8 4.5 15.167 13.5 21.5s19.833 9.5 32.5 9.5c12 0 22.667 -3.16699 32 -9.5s14 -13.5 14 -21.5z" />
    <glyph glyph-name="afii10105" unicode="&#x458;" horiz-adv-x="269" 
d="M269 148c0 -9.33301 -1.83105 -17.5 -5.49805 -24.5s-7.16699 -12.167 -10.5 -15.5s-10 -9 -20 -17l-102 -87c-50.667 -43.333 -80.667 -79.666 -90 -108.999c-8.66699 -26.667 -21.667 -61.5 -39 -104.5s-30 -67.167 -38 -72.5s-16.333 -8 -25 -8s-16.167 4 -22.5 12
s-9.5 16.667 -9.5 26c0 24 5.5 49.833 16.5 77.5s23.667 53.667 38 78s22.5 38.833 24.5 43.5l94 247c-66 -64.667 -102.333 -97.334 -109 -98.001h-1c-6.66699 0 -12.334 3.66699 -17.001 11s-7 14 -7 20c0 15.333 17.333 38 52 68c38.667 34.667 88 87.667 148 159h69
l-110 -295l90 80c27.333 23.333 42.666 35 45.999 35c18.667 0 28 -8.66699 28 -26zM244.002 453c0 -16 -4.66699 -30.168 -14 -42.501s-22.333 -18.5 -39 -18.5c-24.667 0 -37 14 -37 42c0 14.667 5.16699 28.334 15.5 41.001s22.5 19 36.5 19
c11.333 0 20.5 -4.16699 27.5 -12.5s10.5 -17.833 10.5 -28.5z" />
    <glyph glyph-name="afii10109" unicode="&#x45c;" horiz-adv-x="380" 
d="M393 320c0 -6 -6.66699 -21.999 -20 -47.999s-21 -42.333 -23 -49c-16 -7.33301 -30.333 -11 -43 -11c-16.667 0 -25 6.33301 -25 19c0 6 2 13.333 6 22c-6.66699 -4.66699 -17.334 -13 -32.001 -25l-65 -56l-7 -93c0 -0.666992 -0.166992 -2.33398 -0.5 -5.00098
s-0.5 -4.33398 -0.5 -5.00098c0 -4 1.66699 -6 5 -6c8 0 31.5 13.5 70.5 40.5s66.833 48.167 83.5 63.5c7.33301 6.66699 14 10 20 10c5.33301 0 10.333 -4 15 -12s7 -14.333 7 -19s-0.166992 -8.5 -0.5 -11.5s-1.5 -6 -3.5 -9s-3.5 -5 -4.5 -6s-3.66699 -3.33301 -8 -7
s-7.16602 -6.16699 -8.49902 -7.5c-20.667 -19.333 -53.334 -42.333 -98.001 -69s-77.667 -40 -99 -40c-19.333 0 -32.166 4.33301 -38.499 13s-9.5 22 -9.5 40v7l1 48l-59 -57c-36 -34 -59.667 -51 -71 -51c-7.33301 0 -14.833 2.83301 -22.5 8.5s-11.5 12.167 -11.5 19.5
v2c1.33301 10 12.333 38 33 84c-8 -5.33301 -13 -8 -15 -8c-16.667 0 -25 11.667 -25 35c0 6 17.5 24.333 52.5 55s56.167 54 63.5 70l40 87h78l-85 -180c44 44.667 92.167 86.834 144.5 126.501s90.833 59.5 115.5 59.5c26.667 0 40 -11.667 40 -35zM445 553.001l-163 -132
h-73l131 132h105z" />
    <glyph glyph-name="afii10110" unicode="&#x45e;" horiz-adv-x="425" 
d="M423 137c0 -8 -2.16797 -15.5039 -6.50098 -22.5039s-7.83301 -11.5 -10.5 -13.5c-136.667 -102 -214.667 -168 -234 -198c-1.33301 -2 -2.83301 -4.66699 -4.5 -8s-3.5 -6.33301 -5.5 -9l-55 -114c-10 -20.667 -19.167 -35.334 -27.5 -44.001s-19.833 -13 -34.5 -13
c-16 0 -26.333 3.5 -31 10.5s-7 18.167 -7 33.5c0 25.333 13.333 60 40 104s51.667 77.333 75 100c4.66699 4.66699 32 62 82 172c-105.333 -100.667 -179.666 -151 -222.999 -151c-20.667 0 -31 11 -31 33c0 14.667 12.333 46 37 94c-15.333 -11.333 -24 -17 -26 -17
c-6.66699 0 -12.5 4.16699 -17.5 12.5s-7.5 15.5 -7.5 21.5c0 4.66699 5.66699 13 17 25l48.5 49c21 20.667 38.833 39.334 53.5 56.001c6 6.66699 14.333 21.167 25 43.5s19.334 37.833 26.001 46.5h66c-2.66699 -16 -10.334 -37.333 -23.001 -64l-85 -175
c-0.666992 -1.33301 -3 -5.66602 -7 -12.999s-6.66699 -12.666 -8 -15.999c26.667 18.667 71.334 59.834 134.001 123.501s102 106.834 118 129.501c7.33301 10 16.666 15 27.999 15c24 0 39.333 -7.33301 46 -22l-131 -273l120 95c18.667 15.333 31.667 23 39 23
c4.66699 0 9.16699 -4 13.5 -12s6.5 -15.333 6.5 -22zM450.999 512.996c-18 -19.333 -44.332 -40.167 -78.999 -62.5s-67.667 -33.5 -99 -33.5c-22.667 0 -40.834 7 -54.501 21s-20.5 32.667 -20.5 56c0 11.333 6.66699 17 20 17c4.66699 0 12.5 -0.833008 23.5 -2.5
s18.5 -2.5 22.5 -2.5c0 -16.667 7 -25 21 -25c30 0 66.333 20.667 109 62c1.33301 1.33301 4.33301 2 9 2c9.33301 0 19.833 -3.5 31.5 -10.5s17.5 -13.167 17.5 -18.5c0 -1.33301 -0.333008 -2.33301 -1 -3z" />
    <glyph glyph-name="endash" unicode="&#x2013;" horiz-adv-x="500" 
d="M524 190l-17 -26h-531l17 26h531z" />
    <glyph glyph-name="emdash" unicode="&#x2014;" horiz-adv-x="1000" 
d="M1024 190l-17 -26h-1031l17 26h1031z" />
    <glyph glyph-name="quoteleft" unicode="&#x2018;" horiz-adv-x="148" 
d="M220 690l-63 -133.998c-4.66699 -10 -9.33398 -16 -14.001 -18c-1.33301 -0.666992 -9.16602 -1.83398 -23.499 -3.50098s-22.833 -2.5 -25.5 -2.5c-9.33301 0 -17.833 1.83301 -25.5 5.5s-11.5 7.16699 -11.5 10.5c0 1.33301 8.16699 12.666 24.5 33.999l54 70l35.5 46z
" />
    <glyph glyph-name="quoteright" unicode="&#x2019;" horiz-adv-x="148" 
d="M231 683c0 -1.33301 -8.16602 -12.833 -24.499 -34.5l-53.5 -69.5c-19.333 -24.667 -31 -40 -35 -46l-49 8l62 133c5.33301 11.333 10 17.666 14 18.999c1.33301 0.666992 9.16602 1.83398 23.499 3.50098s22.833 2.5 25.5 2.5c9.33301 0 17.833 -1.83301 25.5 -5.5
s11.5 -7.16699 11.5 -10.5z" />
    <glyph glyph-name="quotesinglbase" unicode="&#x201a;" horiz-adv-x="148" 
d="M57 59c0 -1.33301 -8 -12.5 -24 -33.5l-56 -72.5c-21.333 -27.333 -32.666 -42 -33.999 -44l-49 7l63 134c5.33301 11.333 10 17.666 14 18.999c1.33301 0.666992 9.16602 1.83398 23.499 3.50098s22.833 2.5 25.5 2.5c9.33301 0 17.833 -1.83301 25.5 -5.5
s11.5 -7.16699 11.5 -10.5z" />
    <glyph glyph-name="quotedblleft" unicode="&#x201c;" horiz-adv-x="296" 
d="M220 691l-63 -134c-5.33301 -11.333 -10 -17.666 -14 -18.999c-1.33301 -0.666992 -9.16602 -1.83398 -23.499 -3.50098s-22.833 -2.5 -25.5 -2.5c-9.33301 0 -17.833 2 -25.5 6s-11.5 7.33301 -11.5 10c0 1.33301 8 12.5 24 33.5l56 72.5
c21.333 27.333 32.666 42 33.999 44zM368 691l-63 -134c-5.33301 -11.333 -10 -17.666 -14 -18.999c-1.33301 -0.666992 -9.16602 -1.83398 -23.499 -3.50098s-22.833 -2.5 -25.5 -2.5c-9.33301 0 -17.833 2 -25.5 6s-11.5 7.33301 -11.5 10c0 1.33301 8 12.5 24 33.5
l56 72.5c21.333 27.333 32.666 42 33.999 44z" />
    <glyph glyph-name="quotedblright" unicode="&#x201d;" horiz-adv-x="296" 
d="M231 683c0 -1.33301 -8.16602 -12.833 -24.499 -34.5l-53.5 -69.5c-19.333 -24.667 -31 -40 -35 -46l-49 8l62 133c5.33301 11.333 10 17.666 14 18.999c1.33301 0.666992 9.16602 1.83398 23.499 3.50098s22.833 2.5 25.5 2.5c9.33301 0 17.833 -1.83301 25.5 -5.5
s11.5 -7.16699 11.5 -10.5zM379.001 683c0 -1.33301 -8.16602 -12.833 -24.499 -34.5l-53.5 -69.5c-19.333 -24.667 -31 -40 -35 -46l-49 8l62 133c5.33301 11.333 10 17.666 14 18.999c1.33301 0.666992 9.16602 1.83398 23.499 3.50098s22.833 2.5 25.5 2.5
c9.33301 0 17.833 -1.83301 25.5 -5.5s11.5 -7.16699 11.5 -10.5z" />
    <glyph glyph-name="quotedblbase" unicode="&#x201e;" horiz-adv-x="296" 
d="M57 59c0 -1.33301 -8 -12.5 -24 -33.5l-56 -72.5c-21.333 -27.333 -32.666 -42 -33.999 -44l-49 7l63 134c5.33301 11.333 10 17.666 14 18.999c1.33301 0.666992 9.16602 1.83398 23.499 3.50098s22.833 2.5 25.5 2.5c9.33301 0 17.833 -1.83301 25.5 -5.5
s11.5 -7.16699 11.5 -10.5zM205 59c0 -1.33301 -8.16602 -12.833 -24.499 -34.5l-54 -70.5c-19.667 -25.333 -31.167 -40.333 -34.5 -45l-49 7l62 134c5.33301 11.333 10 17.666 14 18.999c1.33301 0.666992 9.16602 1.83398 23.499 3.50098s22.833 2.5 25.5 2.5
c9.33301 0 17.833 -1.83301 25.5 -5.5s11.5 -7.16699 11.5 -10.5z" />
    <glyph glyph-name="dagger" unicode="&#x2020;" horiz-adv-x="556" 
d="M577 509l-21 -60h-204l-152 -521h-64l151 521h-204l17 60h205l54 189h65l-55 -189h208z" />
    <glyph glyph-name="bullet" unicode="&#x2022;" horiz-adv-x="500" 
d="M438 347c0 -48 -18.332 -89 -54.999 -123s-81.334 -51 -134.001 -51c-52 0 -96.333 17 -133 51s-55 75 -55 123c-0.666992 48 17.333 88.833 54 122.5s81.334 50.5 134.001 50.5c53.333 0 98.166 -16.833 134.499 -50.5s54.5 -74.5 54.5 -122.5z" />
    <glyph glyph-name="ellipsis" unicode="&#x2026;" horiz-adv-x="1000" 
d="M148 47c0 -14.667 -7.16699 -26.999 -21.5 -36.999s-30.5 -15 -48.5 -15c-10 0 -18 2.66699 -24 8s-9 11.666 -9 18.999c0 14.667 7.33301 27.167 22 37.5s30.667 15.5 48 15.5c10 0 18 -2.83301 24 -8.5s9 -12.167 9 -19.5zM481 47.001
c0 -14.667 -7.16699 -26.999 -21.5 -36.999s-30.5 -15 -48.5 -15c-10 0 -18 2.66699 -24 8s-9 11.666 -9 18.999c0 14.667 7.33301 27.167 22 37.5s30.667 15.5 48 15.5c10 0 18 -2.83301 24 -8.5s9 -12.167 9 -19.5zM814 47.002c0 -14.667 -7.16699 -26.999 -21.5 -36.999
s-30.5 -15 -48.5 -15c-10 0 -18 2.66699 -24 8s-9 11.666 -9 18.999c0 14.667 7.33301 27.167 22 37.5s30.667 15.5 48 15.5c10 0 18 -2.83301 24 -8.5s9 -12.167 9 -19.5z" />
    <glyph glyph-name="guilsinglleft" unicode="&#x2039;" horiz-adv-x="352" 
d="M314 330l-180.001 -155.999l112 -150h-55c-4 0 -7.66699 0.166992 -11 0.5s-6.5 1.16602 -9.5 2.49902s-5.33301 2.5 -7 3.5s-4 3 -7 6s-5 5.16699 -6 6.5l-7 9.5c-3.66699 5 -6.5 8.5 -8.5 10.5l-87 111v14l162 134c6.66699 5.33301 41.334 8 104.001 8z" />
    <glyph glyph-name="guilsinglright" unicode="&#x203a;" horiz-adv-x="352" 
d="M271 165l-162.997 -133c-6.66699 -5.33301 -41 -8 -103 -8l180 156l-112 150h55c4 0 7.5 -0.166992 10.5 -0.5s5.66699 -0.666016 8 -0.999023s4.66602 -1.33301 6.99902 -3s4.16602 -2.83398 5.49902 -3.50098s3.33301 -2.5 6 -5.5s4.5 -5.16699 5.5 -6.5l6.5 -8.5
c3.33301 -4.33301 5.66602 -7.5 6.99902 -9.5l87 -112v-15z" />
    <glyph glyph-name="Euro" unicode="&#x20ac;" 
d="M408 539l-0.000976562 -54.999c-27.333 21.333 -65.666 32 -114.999 32c-44 0 -77.833 -14 -101.5 -42s-37.5 -66.667 -41.5 -116h221l-16 -44h-210c0 -2.66699 -0.166992 -7.66699 -0.5 -15s-0.5 -12.666 -0.5 -15.999c0 -4 0.166992 -9.33301 0.5 -16
s0.5 -11.334 0.5 -14.001h188l-16 -44h-167c10 -107.333 57.667 -161 143 -161c48.667 0 87 10.667 115 32v-55c-24.667 -18 -66.334 -27 -125.001 -27c-117.333 0 -183.666 70.333 -198.999 211h-61l16 44h40c-1.33301 9.33301 -2 19.333 -2 30
c0 3.33301 0.166992 8.66602 0.5 15.999s0.5 12.333 0.5 15h-55l16 44h44c15.333 139.333 82.333 209 201 209c56 0 97.333 -9.33301 124 -28z" />
    </font>
</defs>
</svg>
